ISO-10303-21;
HEADER;
/* Generated by software containing ST-Developer
 * from STEP Tools, Inc. (www.steptools.com) 
 */

FILE_DESCRIPTION(
/* description */ (''),
/* implementation_level */ '2;1');

FILE_NAME(
/* name */ 'Crashsense Mark-1 Enclosure Part-1 v24.step',
/* time_stamp */ '2026-08-02T12:37:38+05:30',
/* author */ (''),
/* organization */ (''),
/* preprocessor_version */ 'ST-DEVELOPER v20.1',
/* originating_system */ 'Autodesk Translation Framework v15.8.0.0',
/* authorisation */ '');

FILE_SCHEMA (('AUTOMOTIVE_DESIGN { 1 0 10303 214 3 1 1 }'));
ENDSEC;

DATA;
#10=MECHANICAL_DESIGN_GEOMETRIC_PRESENTATION_REPRESENTATION('',(#13),#1703);
#11=SHAPE_REPRESENTATION_RELATIONSHIP('SRR','None',#1710,#12);
#12=ADVANCED_BREP_SHAPE_REPRESENTATION('',(#14),#1702);
#13=STYLED_ITEM('',(#1719),#14);
#14=MANIFOLD_SOLID_BREP('Body1',#1007);
#15=FACE_BOUND('',#157,.T.);
#16=FACE_BOUND('',#179,.T.);
#17=FACE_BOUND('',#182,.T.);
#18=FACE_BOUND('',#185,.T.);
#19=FACE_BOUND('',#188,.T.);
#20=FACE_BOUND('',#190,.T.);
#21=FACE_BOUND('',#191,.T.);
#22=FACE_BOUND('',#192,.T.);
#23=FACE_BOUND('',#193,.T.);
#24=FACE_BOUND('',#196,.T.);
#25=FACE_BOUND('',#201,.T.);
#26=CIRCLE('',#1036,1.5);
#27=CIRCLE('',#1037,1.5);
#28=CIRCLE('',#1038,1.5);
#29=CIRCLE('',#1039,1.5);
#30=CIRCLE('',#1044,1.5);
#31=CIRCLE('',#1045,1.5);
#32=CIRCLE('',#1046,1.5);
#33=CIRCLE('',#1048,1.49999999999999);
#34=CIRCLE('',#1049,1.49999999999999);
#35=CIRCLE('',#1050,1.49999999999999);
#36=CIRCLE('',#1051,1.49999999999999);
#37=CIRCLE('',#1056,1.5);
#38=CIRCLE('',#1058,1.5);
#39=CIRCLE('',#1060,1.5);
#40=CIRCLE('',#1061,1.5);
#41=CIRCLE('',#1062,1.5);
#42=CIRCLE('',#1077,2.);
#43=CIRCLE('',#1079,2.);
#44=CIRCLE('',#1081,2.);
#45=CIRCLE('',#1083,2.);
#46=CIRCLE('',#1085,2.);
#47=CIRCLE('',#1087,2.);
#48=CIRCLE('',#1089,2.);
#49=CIRCLE('',#1091,2.);
#50=CIRCLE('',#1093,4.);
#51=CIRCLE('',#1094,4.);
#52=CIRCLE('',#1097,4.);
#53=CIRCLE('',#1098,4.);
#54=CIRCLE('',#1101,4.);
#55=CIRCLE('',#1102,4.);
#56=CIRCLE('',#1105,4.);
#57=CIRCLE('',#1106,4.);
#58=CYLINDRICAL_SURFACE('',#1035,1.5);
#59=CYLINDRICAL_SURFACE('',#1043,1.5);
#60=CYLINDRICAL_SURFACE('',#1047,1.49999999999999);
#61=CYLINDRICAL_SURFACE('',#1055,1.5);
#62=CYLINDRICAL_SURFACE('',#1059,1.5);
#63=CYLINDRICAL_SURFACE('',#1066,1.5);
#64=CYLINDRICAL_SURFACE('',#1084,2.);
#65=CYLINDRICAL_SURFACE('',#1086,2.);
#66=CYLINDRICAL_SURFACE('',#1088,2.);
#67=CYLINDRICAL_SURFACE('',#1090,2.);
#68=CYLINDRICAL_SURFACE('',#1092,4.);
#69=CYLINDRICAL_SURFACE('',#1096,4.);
#70=CYLINDRICAL_SURFACE('',#1100,4.);
#71=CYLINDRICAL_SURFACE('',#1104,4.);
#72=ELLIPSE('',#1023,2.01804360706106,1.5);
#73=ELLIPSE('',#1024,2.01804360706106,1.5);
#74=ELLIPSE('',#1026,2.01804360706106,1.5);
#75=ELLIPSE('',#1027,2.01804360706106,1.5);
#76=ELLIPSE('',#1030,2.01804360706105,1.49999999999999);
#77=ELLIPSE('',#1031,2.01804360706106,1.5);
#78=ELLIPSE('',#1033,2.01804360706105,1.49999999999999);
#79=ELLIPSE('',#1034,2.01804360706106,1.5);
#80=FACE_OUTER_BOUND('',#137,.T.);
#81=FACE_OUTER_BOUND('',#138,.T.);
#82=FACE_OUTER_BOUND('',#139,.T.);
#83=FACE_OUTER_BOUND('',#140,.T.);
#84=FACE_OUTER_BOUND('',#141,.T.);
#85=FACE_OUTER_BOUND('',#142,.T.);
#86=FACE_OUTER_BOUND('',#143,.T.);
#87=FACE_OUTER_BOUND('',#144,.T.);
#88=FACE_OUTER_BOUND('',#145,.T.);
#89=FACE_OUTER_BOUND('',#146,.T.);
#90=FACE_OUTER_BOUND('',#147,.T.);
#91=FACE_OUTER_BOUND('',#148,.T.);
#92=FACE_OUTER_BOUND('',#149,.T.);
#93=FACE_OUTER_BOUND('',#150,.T.);
#94=FACE_OUTER_BOUND('',#151,.T.);
#95=FACE_OUTER_BOUND('',#152,.T.);
#96=FACE_OUTER_BOUND('',#153,.T.);
#97=FACE_OUTER_BOUND('',#154,.T.);
#98=FACE_OUTER_BOUND('',#155,.T.);
#99=FACE_OUTER_BOUND('',#156,.T.);
#100=FACE_OUTER_BOUND('',#158,.T.);
#101=FACE_OUTER_BOUND('',#159,.T.);
#102=FACE_OUTER_BOUND('',#160,.T.);
#103=FACE_OUTER_BOUND('',#161,.T.);
#104=FACE_OUTER_BOUND('',#162,.T.);
#105=FACE_OUTER_BOUND('',#163,.T.);
#106=FACE_OUTER_BOUND('',#164,.T.);
#107=FACE_OUTER_BOUND('',#165,.T.);
#108=FACE_OUTER_BOUND('',#166,.T.);
#109=FACE_OUTER_BOUND('',#167,.T.);
#110=FACE_OUTER_BOUND('',#168,.T.);
#111=FACE_OUTER_BOUND('',#169,.T.);
#112=FACE_OUTER_BOUND('',#170,.T.);
#113=FACE_OUTER_BOUND('',#171,.T.);
#114=FACE_OUTER_BOUND('',#172,.T.);
#115=FACE_OUTER_BOUND('',#173,.T.);
#116=FACE_OUTER_BOUND('',#174,.T.);
#117=FACE_OUTER_BOUND('',#175,.T.);
#118=FACE_OUTER_BOUND('',#176,.T.);
#119=FACE_OUTER_BOUND('',#177,.T.);
#120=FACE_OUTER_BOUND('',#178,.T.);
#121=FACE_OUTER_BOUND('',#180,.T.);
#122=FACE_OUTER_BOUND('',#181,.T.);
#123=FACE_OUTER_BOUND('',#183,.T.);
#124=FACE_OUTER_BOUND('',#184,.T.);
#125=FACE_OUTER_BOUND('',#186,.T.);
#126=FACE_OUTER_BOUND('',#187,.T.);
#127=FACE_OUTER_BOUND('',#189,.T.);
#128=FACE_OUTER_BOUND('',#194,.T.);
#129=FACE_OUTER_BOUND('',#195,.T.);
#130=FACE_OUTER_BOUND('',#197,.T.);
#131=FACE_OUTER_BOUND('',#198,.T.);
#132=FACE_OUTER_BOUND('',#199,.T.);
#133=FACE_OUTER_BOUND('',#200,.T.);
#134=FACE_OUTER_BOUND('',#202,.T.);
#135=FACE_OUTER_BOUND('',#203,.T.);
#136=FACE_OUTER_BOUND('',#204,.T.);
#137=EDGE_LOOP('',(#631,#632,#633));
#138=EDGE_LOOP('',(#634,#635,#636,#637,#638,#639,#640));
#139=EDGE_LOOP('',(#641,#642,#643,#644,#645,#646,#647));
#140=EDGE_LOOP('',(#648,#649,#650));
#141=EDGE_LOOP('',(#651,#652,#653,#654,#655,#656,#657));
#142=EDGE_LOOP('',(#658,#659,#660,#661,#662,#663,#664));
#143=EDGE_LOOP('',(#665,#666,#667,#668,#669,#670,#671,#672,#673,#674,#675,
#676));
#144=EDGE_LOOP('',(#677,#678,#679,#680));
#145=EDGE_LOOP('',(#681,#682,#683,#684));
#146=EDGE_LOOP('',(#685,#686,#687,#688));
#147=EDGE_LOOP('',(#689,#690,#691,#692,#693,#694,#695,#696));
#148=EDGE_LOOP('',(#697,#698,#699,#700,#701,#702,#703,#704,#705,#706,#707,
#708));
#149=EDGE_LOOP('',(#709,#710,#711,#712));
#150=EDGE_LOOP('',(#713,#714,#715,#716));
#151=EDGE_LOOP('',(#717,#718,#719,#720));
#152=EDGE_LOOP('',(#721,#722,#723,#724));
#153=EDGE_LOOP('',(#725,#726,#727,#728,#729,#730,#731,#732,#733,#734,#735,
#736,#737,#738));
#154=EDGE_LOOP('',(#739,#740,#741,#742,#743,#744,#745,#746));
#155=EDGE_LOOP('',(#747));
#156=EDGE_LOOP('',(#748,#749,#750,#751,#752,#753,#754,#755,#756,#757,#758,
#759,#760,#761));
#157=EDGE_LOOP('',(#762,#763,#764,#765));
#158=EDGE_LOOP('',(#766,#767,#768,#769));
#159=EDGE_LOOP('',(#770,#771,#772,#773));
#160=EDGE_LOOP('',(#774));
#161=EDGE_LOOP('',(#775,#776,#777,#778));
#162=EDGE_LOOP('',(#779));
#163=EDGE_LOOP('',(#780,#781,#782,#783));
#164=EDGE_LOOP('',(#784));
#165=EDGE_LOOP('',(#785,#786,#787,#788));
#166=EDGE_LOOP('',(#789,#790,#791,#792));
#167=EDGE_LOOP('',(#793,#794,#795,#796));
#168=EDGE_LOOP('',(#797,#798,#799,#800));
#169=EDGE_LOOP('',(#801));
#170=EDGE_LOOP('',(#802));
#171=EDGE_LOOP('',(#803));
#172=EDGE_LOOP('',(#804));
#173=EDGE_LOOP('',(#805,#806,#807,#808));
#174=EDGE_LOOP('',(#809,#810,#811,#812));
#175=EDGE_LOOP('',(#813,#814,#815,#816));
#176=EDGE_LOOP('',(#817,#818,#819,#820));
#177=EDGE_LOOP('',(#821,#822,#823,#824));
#178=EDGE_LOOP('',(#825));
#179=EDGE_LOOP('',(#826));
#180=EDGE_LOOP('',(#827,#828,#829,#830));
#181=EDGE_LOOP('',(#831));
#182=EDGE_LOOP('',(#832));
#183=EDGE_LOOP('',(#833,#834,#835,#836));
#184=EDGE_LOOP('',(#837));
#185=EDGE_LOOP('',(#838));
#186=EDGE_LOOP('',(#839,#840,#841,#842));
#187=EDGE_LOOP('',(#843));
#188=EDGE_LOOP('',(#844));
#189=EDGE_LOOP('',(#845,#846,#847,#848));
#190=EDGE_LOOP('',(#849));
#191=EDGE_LOOP('',(#850));
#192=EDGE_LOOP('',(#851));
#193=EDGE_LOOP('',(#852));
#194=EDGE_LOOP('',(#853,#854,#855,#856));
#195=EDGE_LOOP('',(#857,#858,#859,#860));
#196=EDGE_LOOP('',(#861,#862,#863,#864));
#197=EDGE_LOOP('',(#865,#866,#867,#868));
#198=EDGE_LOOP('',(#869,#870,#871,#872));
#199=EDGE_LOOP('',(#873,#874,#875,#876));
#200=EDGE_LOOP('',(#877,#878,#879,#880,#881,#882,#883,#884,#885,#886,#887,
#888,#889,#890));
#201=EDGE_LOOP('',(#891,#892,#893,#894));
#202=EDGE_LOOP('',(#895,#896,#897,#898));
#203=EDGE_LOOP('',(#899,#900,#901,#902));
#204=EDGE_LOOP('',(#903,#904,#905,#906));
#205=LINE('',#1416,#303);
#206=LINE('',#1418,#304);
#207=LINE('',#1419,#305);
#208=LINE('',#1424,#306);
#209=LINE('',#1426,#307);
#210=LINE('',#1428,#308);
#211=LINE('',#1431,#309);
#212=LINE('',#1436,#310);
#213=LINE('',#1440,#311);
#214=LINE('',#1441,#312);
#215=LINE('',#1445,#313);
#216=LINE('',#1447,#314);
#217=LINE('',#1448,#315);
#218=LINE('',#1453,#316);
#219=LINE('',#1455,#317);
#220=LINE('',#1457,#318);
#221=LINE('',#1460,#319);
#222=LINE('',#1465,#320);
#223=LINE('',#1469,#321);
#224=LINE('',#1470,#322);
#225=LINE('',#1473,#323);
#226=LINE('',#1477,#324);
#227=LINE('',#1482,#325);
#228=LINE('',#1485,#326);
#229=LINE('',#1488,#327);
#230=LINE('',#1490,#328);
#231=LINE('',#1491,#329);
#232=LINE('',#1494,#330);
#233=LINE('',#1496,#331);
#234=LINE('',#1497,#332);
#235=LINE('',#1500,#333);
#236=LINE('',#1501,#334);
#237=LINE('',#1506,#335);
#238=LINE('',#1511,#336);
#239=LINE('',#1515,#337);
#240=LINE('',#1519,#338);
#241=LINE('',#1523,#339);
#242=LINE('',#1526,#340);
#243=LINE('',#1528,#341);
#244=LINE('',#1529,#342);
#245=LINE('',#1532,#343);
#246=LINE('',#1534,#344);
#247=LINE('',#1535,#345);
#248=LINE('',#1538,#346);
#249=LINE('',#1539,#347);
#250=LINE('',#1544,#348);
#251=LINE('',#1546,#349);
#252=LINE('',#1548,#350);
#253=LINE('',#1550,#351);
#254=LINE('',#1551,#352);
#255=LINE('',#1554,#353);
#256=LINE('',#1555,#354);
#257=LINE('',#1558,#355);
#258=LINE('',#1562,#356);
#259=LINE('',#1567,#357);
#260=LINE('',#1568,#358);
#261=LINE('',#1569,#359);
#262=LINE('',#1572,#360);
#263=LINE('',#1574,#361);
#264=LINE('',#1576,#362);
#265=LINE('',#1577,#363);
#266=LINE('',#1580,#364);
#267=LINE('',#1589,#365);
#268=LINE('',#1591,#366);
#269=LINE('',#1593,#367);
#270=LINE('',#1594,#368);
#271=LINE('',#1597,#369);
#272=LINE('',#1599,#370);
#273=LINE('',#1600,#371);
#274=LINE('',#1604,#372);
#275=LINE('',#1605,#373);
#276=LINE('',#1606,#374);
#277=LINE('',#1608,#375);
#278=LINE('',#1609,#376);
#279=LINE('',#1625,#377);
#280=LINE('',#1629,#378);
#281=LINE('',#1633,#379);
#282=LINE('',#1637,#380);
#283=LINE('',#1642,#381);
#284=LINE('',#1649,#382);
#285=LINE('',#1656,#383);
#286=LINE('',#1663,#384);
#287=LINE('',#1669,#385);
#288=LINE('',#1671,#386);
#289=LINE('',#1673,#387);
#290=LINE('',#1674,#388);
#291=LINE('',#1678,#389);
#292=LINE('',#1680,#390);
#293=LINE('',#1682,#391);
#294=LINE('',#1683,#392);
#295=LINE('',#1685,#393);
#296=LINE('',#1686,#394);
#297=LINE('',#1688,#395);
#298=LINE('',#1690,#396);
#299=LINE('',#1693,#397);
#300=LINE('',#1694,#398);
#301=LINE('',#1696,#399);
#302=LINE('',#1698,#400);
#303=VECTOR('',#1122,10.);
#304=VECTOR('',#1123,10.);
#305=VECTOR('',#1124,10.);
#306=VECTOR('',#1129,10.);
#307=VECTOR('',#1130,10.);
#308=VECTOR('',#1131,10.);
#309=VECTOR('',#1134,10.);
#310=VECTOR('',#1139,10.);
#311=VECTOR('',#1142,10.);
#312=VECTOR('',#1143,10.);
#313=VECTOR('',#1146,10.);
#314=VECTOR('',#1147,10.);
#315=VECTOR('',#1148,10.);
#316=VECTOR('',#1153,10.);
#317=VECTOR('',#1154,10.);
#318=VECTOR('',#1155,10.);
#319=VECTOR('',#1158,10.);
#320=VECTOR('',#1163,10.);
#321=VECTOR('',#1166,10.);
#322=VECTOR('',#1167,10.);
#323=VECTOR('',#1170,10.);
#324=VECTOR('',#1173,1.5);
#325=VECTOR('',#1178,10.);
#326=VECTOR('',#1181,10.);
#327=VECTOR('',#1184,10.);
#328=VECTOR('',#1185,10.);
#329=VECTOR('',#1186,10.);
#330=VECTOR('',#1189,10.);
#331=VECTOR('',#1190,10.);
#332=VECTOR('',#1191,10.);
#333=VECTOR('',#1194,10.);
#334=VECTOR('',#1195,10.);
#335=VECTOR('',#1200,1.5);
#336=VECTOR('',#1207,10.);
#337=VECTOR('',#1210,10.);
#338=VECTOR('',#1213,1.49999999999999);
#339=VECTOR('',#1218,10.);
#340=VECTOR('',#1221,10.);
#341=VECTOR('',#1222,10.);
#342=VECTOR('',#1223,10.);
#343=VECTOR('',#1226,10.);
#344=VECTOR('',#1227,10.);
#345=VECTOR('',#1228,10.);
#346=VECTOR('',#1231,10.);
#347=VECTOR('',#1232,10.);
#348=VECTOR('',#1239,10.);
#349=VECTOR('',#1240,10.);
#350=VECTOR('',#1241,10.);
#351=VECTOR('',#1242,10.);
#352=VECTOR('',#1243,10.);
#353=VECTOR('',#1246,10.);
#354=VECTOR('',#1247,10.);
#355=VECTOR('',#1250,10.);
#356=VECTOR('',#1253,1.5);
#357=VECTOR('',#1262,10.);
#358=VECTOR('',#1263,10.);
#359=VECTOR('',#1264,10.);
#360=VECTOR('',#1265,10.);
#361=VECTOR('',#1266,10.);
#362=VECTOR('',#1267,10.);
#363=VECTOR('',#1268,10.);
#364=VECTOR('',#1273,10.);
#365=VECTOR('',#1286,10.);
#366=VECTOR('',#1287,10.);
#367=VECTOR('',#1288,10.);
#368=VECTOR('',#1289,10.);
#369=VECTOR('',#1292,10.);
#370=VECTOR('',#1293,10.);
#371=VECTOR('',#1294,10.);
#372=VECTOR('',#1297,10.);
#373=VECTOR('',#1298,10.);
#374=VECTOR('',#1299,10.);
#375=VECTOR('',#1302,10.);
#376=VECTOR('',#1303,10.);
#377=VECTOR('',#1324,2.);
#378=VECTOR('',#1329,2.);
#379=VECTOR('',#1334,2.);
#380=VECTOR('',#1339,2.);
#381=VECTOR('',#1344,4.);
#382=VECTOR('',#1353,4.);
#383=VECTOR('',#1362,4.);
#384=VECTOR('',#1371,4.);
#385=VECTOR('',#1378,10.);
#386=VECTOR('',#1379,10.);
#387=VECTOR('',#1380,10.);
#388=VECTOR('',#1381,10.);
#389=VECTOR('',#1384,10.);
#390=VECTOR('',#1385,10.);
#391=VECTOR('',#1386,10.);
#392=VECTOR('',#1387,10.);
#393=VECTOR('',#1390,10.);
#394=VECTOR('',#1391,10.);
#395=VECTOR('',#1394,10.);
#396=VECTOR('',#1397,10.);
#397=VECTOR('',#1402,10.);
#398=VECTOR('',#1403,10.);
#399=VECTOR('',#1406,10.);
#400=VECTOR('',#1409,10.);
#401=VERTEX_POINT('',#1414);
#402=VERTEX_POINT('',#1415);
#403=VERTEX_POINT('',#1417);
#404=VERTEX_POINT('',#1421);
#405=VERTEX_POINT('',#1423);
#406=VERTEX_POINT('',#1425);
#407=VERTEX_POINT('',#1427);
#408=VERTEX_POINT('',#1429);
#409=VERTEX_POINT('',#1433);
#410=VERTEX_POINT('',#1435);
#411=VERTEX_POINT('',#1437);
#412=VERTEX_POINT('',#1439);
#413=VERTEX_POINT('',#1443);
#414=VERTEX_POINT('',#1444);
#415=VERTEX_POINT('',#1446);
#416=VERTEX_POINT('',#1450);
#417=VERTEX_POINT('',#1452);
#418=VERTEX_POINT('',#1454);
#419=VERTEX_POINT('',#1456);
#420=VERTEX_POINT('',#1458);
#421=VERTEX_POINT('',#1462);
#422=VERTEX_POINT('',#1464);
#423=VERTEX_POINT('',#1466);
#424=VERTEX_POINT('',#1468);
#425=VERTEX_POINT('',#1472);
#426=VERTEX_POINT('',#1474);
#427=VERTEX_POINT('',#1476);
#428=VERTEX_POINT('',#1479);
#429=VERTEX_POINT('',#1481);
#430=VERTEX_POINT('',#1483);
#431=VERTEX_POINT('',#1487);
#432=VERTEX_POINT('',#1489);
#433=VERTEX_POINT('',#1493);
#434=VERTEX_POINT('',#1495);
#435=VERTEX_POINT('',#1499);
#436=VERTEX_POINT('',#1503);
#437=VERTEX_POINT('',#1505);
#438=VERTEX_POINT('',#1510);
#439=VERTEX_POINT('',#1512);
#440=VERTEX_POINT('',#1514);
#441=VERTEX_POINT('',#1516);
#442=VERTEX_POINT('',#1518);
#443=VERTEX_POINT('',#1521);
#444=VERTEX_POINT('',#1525);
#445=VERTEX_POINT('',#1527);
#446=VERTEX_POINT('',#1531);
#447=VERTEX_POINT('',#1533);
#448=VERTEX_POINT('',#1537);
#449=VERTEX_POINT('',#1543);
#450=VERTEX_POINT('',#1545);
#451=VERTEX_POINT('',#1547);
#452=VERTEX_POINT('',#1549);
#453=VERTEX_POINT('',#1552);
#454=VERTEX_POINT('',#1557);
#455=VERTEX_POINT('',#1559);
#456=VERTEX_POINT('',#1561);
#457=VERTEX_POINT('',#1570);
#458=VERTEX_POINT('',#1571);
#459=VERTEX_POINT('',#1573);
#460=VERTEX_POINT('',#1575);
#461=VERTEX_POINT('',#1587);
#462=VERTEX_POINT('',#1588);
#463=VERTEX_POINT('',#1590);
#464=VERTEX_POINT('',#1592);
#465=VERTEX_POINT('',#1596);
#466=VERTEX_POINT('',#1598);
#467=VERTEX_POINT('',#1602);
#468=VERTEX_POINT('',#1603);
#469=VERTEX_POINT('',#1611);
#470=VERTEX_POINT('',#1614);
#471=VERTEX_POINT('',#1617);
#472=VERTEX_POINT('',#1620);
#473=VERTEX_POINT('',#1623);
#474=VERTEX_POINT('',#1627);
#475=VERTEX_POINT('',#1631);
#476=VERTEX_POINT('',#1635);
#477=VERTEX_POINT('',#1639);
#478=VERTEX_POINT('',#1641);
#479=VERTEX_POINT('',#1646);
#480=VERTEX_POINT('',#1648);
#481=VERTEX_POINT('',#1653);
#482=VERTEX_POINT('',#1655);
#483=VERTEX_POINT('',#1660);
#484=VERTEX_POINT('',#1662);
#485=VERTEX_POINT('',#1667);
#486=VERTEX_POINT('',#1668);
#487=VERTEX_POINT('',#1670);
#488=VERTEX_POINT('',#1672);
#489=VERTEX_POINT('',#1676);
#490=VERTEX_POINT('',#1677);
#491=VERTEX_POINT('',#1679);
#492=VERTEX_POINT('',#1681);
#493=EDGE_CURVE('',#401,#402,#205,.T.);
#494=EDGE_CURVE('',#403,#401,#206,.T.);
#495=EDGE_CURVE('',#402,#403,#207,.T.);
#496=EDGE_CURVE('',#402,#404,#72,.T.);
#497=EDGE_CURVE('',#405,#403,#208,.T.);
#498=EDGE_CURVE('',#406,#405,#209,.T.);
#499=EDGE_CURVE('',#407,#406,#210,.T.);
#500=EDGE_CURVE('',#408,#407,#73,.T.);
#501=EDGE_CURVE('',#404,#408,#211,.T.);
#502=EDGE_CURVE('',#409,#401,#74,.T.);
#503=EDGE_CURVE('',#410,#409,#212,.T.);
#504=EDGE_CURVE('',#411,#410,#75,.T.);
#505=EDGE_CURVE('',#412,#411,#213,.T.);
#506=EDGE_CURVE('',#405,#412,#214,.T.);
#507=EDGE_CURVE('',#413,#414,#215,.T.);
#508=EDGE_CURVE('',#415,#413,#216,.T.);
#509=EDGE_CURVE('',#414,#415,#217,.T.);
#510=EDGE_CURVE('',#414,#416,#76,.T.);
#511=EDGE_CURVE('',#417,#415,#218,.T.);
#512=EDGE_CURVE('',#418,#417,#219,.T.);
#513=EDGE_CURVE('',#419,#418,#220,.T.);
#514=EDGE_CURVE('',#420,#419,#77,.T.);
#515=EDGE_CURVE('',#416,#420,#221,.T.);
#516=EDGE_CURVE('',#421,#413,#78,.T.);
#517=EDGE_CURVE('',#422,#421,#222,.T.);
#518=EDGE_CURVE('',#423,#422,#79,.T.);
#519=EDGE_CURVE('',#424,#423,#223,.T.);
#520=EDGE_CURVE('',#417,#424,#224,.T.);
#521=EDGE_CURVE('',#425,#404,#225,.T.);
#522=EDGE_CURVE('',#426,#425,#26,.T.);
#523=EDGE_CURVE('',#426,#427,#226,.T.);
#524=EDGE_CURVE('',#427,#427,#27,.T.);
#525=EDGE_CURVE('',#428,#426,#28,.T.);
#526=EDGE_CURVE('',#429,#428,#227,.T.);
#527=EDGE_CURVE('',#430,#429,#29,.T.);
#528=EDGE_CURVE('',#409,#430,#228,.T.);
#529=EDGE_CURVE('',#431,#406,#229,.T.);
#530=EDGE_CURVE('',#432,#431,#230,.T.);
#531=EDGE_CURVE('',#432,#407,#231,.T.);
#532=EDGE_CURVE('',#411,#433,#232,.T.);
#533=EDGE_CURVE('',#434,#433,#233,.T.);
#534=EDGE_CURVE('',#412,#434,#234,.T.);
#535=EDGE_CURVE('',#408,#435,#235,.T.);
#536=EDGE_CURVE('',#425,#435,#236,.T.);
#537=EDGE_CURVE('',#436,#432,#30,.T.);
#538=EDGE_CURVE('',#436,#437,#237,.T.);
#539=EDGE_CURVE('',#437,#437,#31,.T.);
#540=EDGE_CURVE('',#435,#436,#32,.T.);
#541=EDGE_CURVE('',#438,#416,#238,.T.);
#542=EDGE_CURVE('',#439,#438,#33,.T.);
#543=EDGE_CURVE('',#440,#439,#239,.T.);
#544=EDGE_CURVE('',#441,#440,#34,.T.);
#545=EDGE_CURVE('',#441,#442,#240,.T.);
#546=EDGE_CURVE('',#442,#442,#35,.T.);
#547=EDGE_CURVE('',#443,#441,#36,.T.);
#548=EDGE_CURVE('',#421,#443,#241,.T.);
#549=EDGE_CURVE('',#418,#444,#242,.T.);
#550=EDGE_CURVE('',#445,#444,#243,.T.);
#551=EDGE_CURVE('',#445,#419,#244,.T.);
#552=EDGE_CURVE('',#423,#446,#245,.T.);
#553=EDGE_CURVE('',#447,#446,#246,.T.);
#554=EDGE_CURVE('',#447,#424,#247,.T.);
#555=EDGE_CURVE('',#420,#448,#248,.T.);
#556=EDGE_CURVE('',#438,#448,#249,.T.);
#557=EDGE_CURVE('',#448,#445,#37,.T.);
#558=EDGE_CURVE('',#444,#449,#250,.T.);
#559=EDGE_CURVE('',#449,#450,#251,.T.);
#560=EDGE_CURVE('',#450,#451,#252,.T.);
#561=EDGE_CURVE('',#451,#452,#253,.T.);
#562=EDGE_CURVE('',#452,#434,#254,.T.);
#563=EDGE_CURVE('',#433,#453,#38,.T.);
#564=EDGE_CURVE('',#453,#430,#255,.T.);
#565=EDGE_CURVE('',#429,#439,#256,.T.);
#566=EDGE_CURVE('',#454,#422,#257,.T.);
#567=EDGE_CURVE('',#455,#454,#39,.T.);
#568=EDGE_CURVE('',#455,#456,#258,.T.);
#569=EDGE_CURVE('',#456,#456,#40,.T.);
#570=EDGE_CURVE('',#446,#455,#41,.T.);
#571=EDGE_CURVE('',#454,#443,#259,.T.);
#572=EDGE_CURVE('',#440,#428,#260,.T.);
#573=EDGE_CURVE('',#431,#447,#261,.T.);
#574=EDGE_CURVE('',#457,#458,#262,.T.);
#575=EDGE_CURVE('',#458,#459,#263,.T.);
#576=EDGE_CURVE('',#459,#460,#264,.T.);
#577=EDGE_CURVE('',#460,#457,#265,.T.);
#578=EDGE_CURVE('',#453,#410,#266,.T.);
#579=EDGE_CURVE('',#461,#462,#267,.T.);
#580=EDGE_CURVE('',#461,#463,#268,.T.);
#581=EDGE_CURVE('',#464,#463,#269,.T.);
#582=EDGE_CURVE('',#464,#462,#270,.T.);
#583=EDGE_CURVE('',#463,#465,#271,.T.);
#584=EDGE_CURVE('',#465,#466,#272,.T.);
#585=EDGE_CURVE('',#466,#464,#273,.T.);
#586=EDGE_CURVE('',#467,#468,#274,.T.);
#587=EDGE_CURVE('',#467,#466,#275,.T.);
#588=EDGE_CURVE('',#465,#468,#276,.T.);
#589=EDGE_CURVE('',#462,#467,#277,.T.);
#590=EDGE_CURVE('',#468,#461,#278,.T.);
#591=EDGE_CURVE('',#469,#469,#42,.T.);
#592=EDGE_CURVE('',#470,#470,#43,.T.);
#593=EDGE_CURVE('',#471,#471,#44,.T.);
#594=EDGE_CURVE('',#472,#472,#45,.T.);
#595=EDGE_CURVE('',#473,#473,#46,.T.);
#596=EDGE_CURVE('',#473,#472,#279,.T.);
#597=EDGE_CURVE('',#474,#474,#47,.T.);
#598=EDGE_CURVE('',#474,#470,#280,.T.);
#599=EDGE_CURVE('',#475,#475,#48,.T.);
#600=EDGE_CURVE('',#475,#471,#281,.T.);
#601=EDGE_CURVE('',#476,#476,#49,.T.);
#602=EDGE_CURVE('',#476,#469,#282,.T.);
#603=EDGE_CURVE('',#477,#477,#50,.T.);
#604=EDGE_CURVE('',#477,#478,#283,.T.);
#605=EDGE_CURVE('',#478,#478,#51,.T.);
#606=EDGE_CURVE('',#479,#479,#52,.T.);
#607=EDGE_CURVE('',#479,#480,#284,.T.);
#608=EDGE_CURVE('',#480,#480,#53,.T.);
#609=EDGE_CURVE('',#481,#481,#54,.T.);
#610=EDGE_CURVE('',#481,#482,#285,.T.);
#611=EDGE_CURVE('',#482,#482,#55,.T.);
#612=EDGE_CURVE('',#483,#483,#56,.T.);
#613=EDGE_CURVE('',#483,#484,#286,.T.);
#614=EDGE_CURVE('',#484,#484,#57,.T.);
#615=EDGE_CURVE('',#485,#486,#287,.T.);
#616=EDGE_CURVE('',#487,#485,#288,.T.);
#617=EDGE_CURVE('',#488,#487,#289,.T.);
#618=EDGE_CURVE('',#486,#488,#290,.T.);
#619=EDGE_CURVE('',#489,#490,#291,.T.);
#620=EDGE_CURVE('',#490,#491,#292,.T.);
#621=EDGE_CURVE('',#491,#492,#293,.T.);
#622=EDGE_CURVE('',#492,#489,#294,.T.);
#623=EDGE_CURVE('',#485,#457,#295,.T.);
#624=EDGE_CURVE('',#487,#460,#296,.T.);
#625=EDGE_CURVE('',#488,#459,#297,.T.);
#626=EDGE_CURVE('',#486,#458,#298,.T.);
#627=EDGE_CURVE('',#491,#452,#299,.T.);
#628=EDGE_CURVE('',#449,#490,#300,.T.);
#629=EDGE_CURVE('',#492,#451,#301,.T.);
#630=EDGE_CURVE('',#489,#450,#302,.T.);
#631=ORIENTED_EDGE('',*,*,#493,.F.);
#632=ORIENTED_EDGE('',*,*,#494,.F.);
#633=ORIENTED_EDGE('',*,*,#495,.F.);
#634=ORIENTED_EDGE('',*,*,#496,.F.);
#635=ORIENTED_EDGE('',*,*,#495,.T.);
#636=ORIENTED_EDGE('',*,*,#497,.F.);
#637=ORIENTED_EDGE('',*,*,#498,.F.);
#638=ORIENTED_EDGE('',*,*,#499,.F.);
#639=ORIENTED_EDGE('',*,*,#500,.F.);
#640=ORIENTED_EDGE('',*,*,#501,.F.);
#641=ORIENTED_EDGE('',*,*,#502,.F.);
#642=ORIENTED_EDGE('',*,*,#503,.F.);
#643=ORIENTED_EDGE('',*,*,#504,.F.);
#644=ORIENTED_EDGE('',*,*,#505,.F.);
#645=ORIENTED_EDGE('',*,*,#506,.F.);
#646=ORIENTED_EDGE('',*,*,#497,.T.);
#647=ORIENTED_EDGE('',*,*,#494,.T.);
#648=ORIENTED_EDGE('',*,*,#507,.F.);
#649=ORIENTED_EDGE('',*,*,#508,.F.);
#650=ORIENTED_EDGE('',*,*,#509,.F.);
#651=ORIENTED_EDGE('',*,*,#510,.F.);
#652=ORIENTED_EDGE('',*,*,#509,.T.);
#653=ORIENTED_EDGE('',*,*,#511,.F.);
#654=ORIENTED_EDGE('',*,*,#512,.F.);
#655=ORIENTED_EDGE('',*,*,#513,.F.);
#656=ORIENTED_EDGE('',*,*,#514,.F.);
#657=ORIENTED_EDGE('',*,*,#515,.F.);
#658=ORIENTED_EDGE('',*,*,#516,.F.);
#659=ORIENTED_EDGE('',*,*,#517,.F.);
#660=ORIENTED_EDGE('',*,*,#518,.F.);
#661=ORIENTED_EDGE('',*,*,#519,.F.);
#662=ORIENTED_EDGE('',*,*,#520,.F.);
#663=ORIENTED_EDGE('',*,*,#511,.T.);
#664=ORIENTED_EDGE('',*,*,#508,.T.);
#665=ORIENTED_EDGE('',*,*,#502,.T.);
#666=ORIENTED_EDGE('',*,*,#493,.T.);
#667=ORIENTED_EDGE('',*,*,#496,.T.);
#668=ORIENTED_EDGE('',*,*,#521,.F.);
#669=ORIENTED_EDGE('',*,*,#522,.F.);
#670=ORIENTED_EDGE('',*,*,#523,.T.);
#671=ORIENTED_EDGE('',*,*,#524,.T.);
#672=ORIENTED_EDGE('',*,*,#523,.F.);
#673=ORIENTED_EDGE('',*,*,#525,.F.);
#674=ORIENTED_EDGE('',*,*,#526,.F.);
#675=ORIENTED_EDGE('',*,*,#527,.F.);
#676=ORIENTED_EDGE('',*,*,#528,.F.);
#677=ORIENTED_EDGE('',*,*,#499,.T.);
#678=ORIENTED_EDGE('',*,*,#529,.F.);
#679=ORIENTED_EDGE('',*,*,#530,.F.);
#680=ORIENTED_EDGE('',*,*,#531,.T.);
#681=ORIENTED_EDGE('',*,*,#505,.T.);
#682=ORIENTED_EDGE('',*,*,#532,.T.);
#683=ORIENTED_EDGE('',*,*,#533,.F.);
#684=ORIENTED_EDGE('',*,*,#534,.F.);
#685=ORIENTED_EDGE('',*,*,#501,.T.);
#686=ORIENTED_EDGE('',*,*,#535,.T.);
#687=ORIENTED_EDGE('',*,*,#536,.F.);
#688=ORIENTED_EDGE('',*,*,#521,.T.);
#689=ORIENTED_EDGE('',*,*,#500,.T.);
#690=ORIENTED_EDGE('',*,*,#531,.F.);
#691=ORIENTED_EDGE('',*,*,#537,.F.);
#692=ORIENTED_EDGE('',*,*,#538,.T.);
#693=ORIENTED_EDGE('',*,*,#539,.T.);
#694=ORIENTED_EDGE('',*,*,#538,.F.);
#695=ORIENTED_EDGE('',*,*,#540,.F.);
#696=ORIENTED_EDGE('',*,*,#535,.F.);
#697=ORIENTED_EDGE('',*,*,#516,.T.);
#698=ORIENTED_EDGE('',*,*,#507,.T.);
#699=ORIENTED_EDGE('',*,*,#510,.T.);
#700=ORIENTED_EDGE('',*,*,#541,.F.);
#701=ORIENTED_EDGE('',*,*,#542,.F.);
#702=ORIENTED_EDGE('',*,*,#543,.F.);
#703=ORIENTED_EDGE('',*,*,#544,.F.);
#704=ORIENTED_EDGE('',*,*,#545,.T.);
#705=ORIENTED_EDGE('',*,*,#546,.T.);
#706=ORIENTED_EDGE('',*,*,#545,.F.);
#707=ORIENTED_EDGE('',*,*,#547,.F.);
#708=ORIENTED_EDGE('',*,*,#548,.F.);
#709=ORIENTED_EDGE('',*,*,#513,.T.);
#710=ORIENTED_EDGE('',*,*,#549,.T.);
#711=ORIENTED_EDGE('',*,*,#550,.F.);
#712=ORIENTED_EDGE('',*,*,#551,.T.);
#713=ORIENTED_EDGE('',*,*,#519,.T.);
#714=ORIENTED_EDGE('',*,*,#552,.T.);
#715=ORIENTED_EDGE('',*,*,#553,.F.);
#716=ORIENTED_EDGE('',*,*,#554,.T.);
#717=ORIENTED_EDGE('',*,*,#515,.T.);
#718=ORIENTED_EDGE('',*,*,#555,.T.);
#719=ORIENTED_EDGE('',*,*,#556,.F.);
#720=ORIENTED_EDGE('',*,*,#541,.T.);
#721=ORIENTED_EDGE('',*,*,#514,.T.);
#722=ORIENTED_EDGE('',*,*,#551,.F.);
#723=ORIENTED_EDGE('',*,*,#557,.F.);
#724=ORIENTED_EDGE('',*,*,#555,.F.);
#725=ORIENTED_EDGE('',*,*,#557,.T.);
#726=ORIENTED_EDGE('',*,*,#550,.T.);
#727=ORIENTED_EDGE('',*,*,#558,.T.);
#728=ORIENTED_EDGE('',*,*,#559,.T.);
#729=ORIENTED_EDGE('',*,*,#560,.T.);
#730=ORIENTED_EDGE('',*,*,#561,.T.);
#731=ORIENTED_EDGE('',*,*,#562,.T.);
#732=ORIENTED_EDGE('',*,*,#533,.T.);
#733=ORIENTED_EDGE('',*,*,#563,.T.);
#734=ORIENTED_EDGE('',*,*,#564,.T.);
#735=ORIENTED_EDGE('',*,*,#527,.T.);
#736=ORIENTED_EDGE('',*,*,#565,.T.);
#737=ORIENTED_EDGE('',*,*,#542,.T.);
#738=ORIENTED_EDGE('',*,*,#556,.T.);
#739=ORIENTED_EDGE('',*,*,#518,.T.);
#740=ORIENTED_EDGE('',*,*,#566,.F.);
#741=ORIENTED_EDGE('',*,*,#567,.F.);
#742=ORIENTED_EDGE('',*,*,#568,.T.);
#743=ORIENTED_EDGE('',*,*,#569,.T.);
#744=ORIENTED_EDGE('',*,*,#568,.F.);
#745=ORIENTED_EDGE('',*,*,#570,.F.);
#746=ORIENTED_EDGE('',*,*,#552,.F.);
#747=ORIENTED_EDGE('',*,*,#569,.F.);
#748=ORIENTED_EDGE('',*,*,#570,.T.);
#749=ORIENTED_EDGE('',*,*,#567,.T.);
#750=ORIENTED_EDGE('',*,*,#571,.T.);
#751=ORIENTED_EDGE('',*,*,#547,.T.);
#752=ORIENTED_EDGE('',*,*,#544,.T.);
#753=ORIENTED_EDGE('',*,*,#572,.T.);
#754=ORIENTED_EDGE('',*,*,#525,.T.);
#755=ORIENTED_EDGE('',*,*,#522,.T.);
#756=ORIENTED_EDGE('',*,*,#536,.T.);
#757=ORIENTED_EDGE('',*,*,#540,.T.);
#758=ORIENTED_EDGE('',*,*,#537,.T.);
#759=ORIENTED_EDGE('',*,*,#530,.T.);
#760=ORIENTED_EDGE('',*,*,#573,.T.);
#761=ORIENTED_EDGE('',*,*,#553,.T.);
#762=ORIENTED_EDGE('',*,*,#574,.T.);
#763=ORIENTED_EDGE('',*,*,#575,.T.);
#764=ORIENTED_EDGE('',*,*,#576,.T.);
#765=ORIENTED_EDGE('',*,*,#577,.T.);
#766=ORIENTED_EDGE('',*,*,#517,.T.);
#767=ORIENTED_EDGE('',*,*,#548,.T.);
#768=ORIENTED_EDGE('',*,*,#571,.F.);
#769=ORIENTED_EDGE('',*,*,#566,.T.);
#770=ORIENTED_EDGE('',*,*,#504,.T.);
#771=ORIENTED_EDGE('',*,*,#578,.F.);
#772=ORIENTED_EDGE('',*,*,#563,.F.);
#773=ORIENTED_EDGE('',*,*,#532,.F.);
#774=ORIENTED_EDGE('',*,*,#539,.F.);
#775=ORIENTED_EDGE('',*,*,#503,.T.);
#776=ORIENTED_EDGE('',*,*,#528,.T.);
#777=ORIENTED_EDGE('',*,*,#564,.F.);
#778=ORIENTED_EDGE('',*,*,#578,.T.);
#779=ORIENTED_EDGE('',*,*,#524,.F.);
#780=ORIENTED_EDGE('',*,*,#526,.T.);
#781=ORIENTED_EDGE('',*,*,#572,.F.);
#782=ORIENTED_EDGE('',*,*,#543,.T.);
#783=ORIENTED_EDGE('',*,*,#565,.F.);
#784=ORIENTED_EDGE('',*,*,#546,.F.);
#785=ORIENTED_EDGE('',*,*,#579,.F.);
#786=ORIENTED_EDGE('',*,*,#580,.T.);
#787=ORIENTED_EDGE('',*,*,#581,.F.);
#788=ORIENTED_EDGE('',*,*,#582,.T.);
#789=ORIENTED_EDGE('',*,*,#581,.T.);
#790=ORIENTED_EDGE('',*,*,#583,.T.);
#791=ORIENTED_EDGE('',*,*,#584,.T.);
#792=ORIENTED_EDGE('',*,*,#585,.T.);
#793=ORIENTED_EDGE('',*,*,#586,.F.);
#794=ORIENTED_EDGE('',*,*,#587,.T.);
#795=ORIENTED_EDGE('',*,*,#584,.F.);
#796=ORIENTED_EDGE('',*,*,#588,.T.);
#797=ORIENTED_EDGE('',*,*,#579,.T.);
#798=ORIENTED_EDGE('',*,*,#589,.T.);
#799=ORIENTED_EDGE('',*,*,#586,.T.);
#800=ORIENTED_EDGE('',*,*,#590,.T.);
#801=ORIENTED_EDGE('',*,*,#591,.F.);
#802=ORIENTED_EDGE('',*,*,#592,.F.);
#803=ORIENTED_EDGE('',*,*,#593,.F.);
#804=ORIENTED_EDGE('',*,*,#594,.F.);
#805=ORIENTED_EDGE('',*,*,#595,.F.);
#806=ORIENTED_EDGE('',*,*,#596,.T.);
#807=ORIENTED_EDGE('',*,*,#594,.T.);
#808=ORIENTED_EDGE('',*,*,#596,.F.);
#809=ORIENTED_EDGE('',*,*,#597,.F.);
#810=ORIENTED_EDGE('',*,*,#598,.T.);
#811=ORIENTED_EDGE('',*,*,#592,.T.);
#812=ORIENTED_EDGE('',*,*,#598,.F.);
#813=ORIENTED_EDGE('',*,*,#599,.F.);
#814=ORIENTED_EDGE('',*,*,#600,.T.);
#815=ORIENTED_EDGE('',*,*,#593,.T.);
#816=ORIENTED_EDGE('',*,*,#600,.F.);
#817=ORIENTED_EDGE('',*,*,#601,.F.);
#818=ORIENTED_EDGE('',*,*,#602,.T.);
#819=ORIENTED_EDGE('',*,*,#591,.T.);
#820=ORIENTED_EDGE('',*,*,#602,.F.);
#821=ORIENTED_EDGE('',*,*,#603,.F.);
#822=ORIENTED_EDGE('',*,*,#604,.T.);
#823=ORIENTED_EDGE('',*,*,#605,.F.);
#824=ORIENTED_EDGE('',*,*,#604,.F.);
#825=ORIENTED_EDGE('',*,*,#603,.T.);
#826=ORIENTED_EDGE('',*,*,#597,.T.);
#827=ORIENTED_EDGE('',*,*,#606,.F.);
#828=ORIENTED_EDGE('',*,*,#607,.T.);
#829=ORIENTED_EDGE('',*,*,#608,.F.);
#830=ORIENTED_EDGE('',*,*,#607,.F.);
#831=ORIENTED_EDGE('',*,*,#606,.T.);
#832=ORIENTED_EDGE('',*,*,#601,.T.);
#833=ORIENTED_EDGE('',*,*,#609,.F.);
#834=ORIENTED_EDGE('',*,*,#610,.T.);
#835=ORIENTED_EDGE('',*,*,#611,.F.);
#836=ORIENTED_EDGE('',*,*,#610,.F.);
#837=ORIENTED_EDGE('',*,*,#609,.T.);
#838=ORIENTED_EDGE('',*,*,#595,.T.);
#839=ORIENTED_EDGE('',*,*,#612,.F.);
#840=ORIENTED_EDGE('',*,*,#613,.T.);
#841=ORIENTED_EDGE('',*,*,#614,.F.);
#842=ORIENTED_EDGE('',*,*,#613,.F.);
#843=ORIENTED_EDGE('',*,*,#612,.T.);
#844=ORIENTED_EDGE('',*,*,#599,.T.);
#845=ORIENTED_EDGE('',*,*,#615,.F.);
#846=ORIENTED_EDGE('',*,*,#616,.F.);
#847=ORIENTED_EDGE('',*,*,#617,.F.);
#848=ORIENTED_EDGE('',*,*,#618,.F.);
#849=ORIENTED_EDGE('',*,*,#605,.T.);
#850=ORIENTED_EDGE('',*,*,#608,.T.);
#851=ORIENTED_EDGE('',*,*,#611,.T.);
#852=ORIENTED_EDGE('',*,*,#614,.T.);
#853=ORIENTED_EDGE('',*,*,#619,.T.);
#854=ORIENTED_EDGE('',*,*,#620,.T.);
#855=ORIENTED_EDGE('',*,*,#621,.T.);
#856=ORIENTED_EDGE('',*,*,#622,.T.);
#857=ORIENTED_EDGE('',*,*,#616,.T.);
#858=ORIENTED_EDGE('',*,*,#623,.T.);
#859=ORIENTED_EDGE('',*,*,#577,.F.);
#860=ORIENTED_EDGE('',*,*,#624,.F.);
#861=ORIENTED_EDGE('',*,*,#580,.F.);
#862=ORIENTED_EDGE('',*,*,#590,.F.);
#863=ORIENTED_EDGE('',*,*,#588,.F.);
#864=ORIENTED_EDGE('',*,*,#583,.F.);
#865=ORIENTED_EDGE('',*,*,#617,.T.);
#866=ORIENTED_EDGE('',*,*,#624,.T.);
#867=ORIENTED_EDGE('',*,*,#576,.F.);
#868=ORIENTED_EDGE('',*,*,#625,.F.);
#869=ORIENTED_EDGE('',*,*,#618,.T.);
#870=ORIENTED_EDGE('',*,*,#625,.T.);
#871=ORIENTED_EDGE('',*,*,#575,.F.);
#872=ORIENTED_EDGE('',*,*,#626,.F.);
#873=ORIENTED_EDGE('',*,*,#615,.T.);
#874=ORIENTED_EDGE('',*,*,#626,.T.);
#875=ORIENTED_EDGE('',*,*,#574,.F.);
#876=ORIENTED_EDGE('',*,*,#623,.F.);
#877=ORIENTED_EDGE('',*,*,#506,.T.);
#878=ORIENTED_EDGE('',*,*,#534,.T.);
#879=ORIENTED_EDGE('',*,*,#562,.F.);
#880=ORIENTED_EDGE('',*,*,#627,.F.);
#881=ORIENTED_EDGE('',*,*,#620,.F.);
#882=ORIENTED_EDGE('',*,*,#628,.F.);
#883=ORIENTED_EDGE('',*,*,#558,.F.);
#884=ORIENTED_EDGE('',*,*,#549,.F.);
#885=ORIENTED_EDGE('',*,*,#512,.T.);
#886=ORIENTED_EDGE('',*,*,#520,.T.);
#887=ORIENTED_EDGE('',*,*,#554,.F.);
#888=ORIENTED_EDGE('',*,*,#573,.F.);
#889=ORIENTED_EDGE('',*,*,#529,.T.);
#890=ORIENTED_EDGE('',*,*,#498,.T.);
#891=ORIENTED_EDGE('',*,*,#585,.F.);
#892=ORIENTED_EDGE('',*,*,#587,.F.);
#893=ORIENTED_EDGE('',*,*,#589,.F.);
#894=ORIENTED_EDGE('',*,*,#582,.F.);
#895=ORIENTED_EDGE('',*,*,#627,.T.);
#896=ORIENTED_EDGE('',*,*,#561,.F.);
#897=ORIENTED_EDGE('',*,*,#629,.F.);
#898=ORIENTED_EDGE('',*,*,#621,.F.);
#899=ORIENTED_EDGE('',*,*,#629,.T.);
#900=ORIENTED_EDGE('',*,*,#560,.F.);
#901=ORIENTED_EDGE('',*,*,#630,.F.);
#902=ORIENTED_EDGE('',*,*,#622,.F.);
#903=ORIENTED_EDGE('',*,*,#630,.T.);
#904=ORIENTED_EDGE('',*,*,#559,.F.);
#905=ORIENTED_EDGE('',*,*,#628,.T.);
#906=ORIENTED_EDGE('',*,*,#619,.F.);
#907=PLANE('',#1021);
#908=PLANE('',#1022);
#909=PLANE('',#1025);
#910=PLANE('',#1028);
#911=PLANE('',#1029);
#912=PLANE('',#1032);
#913=PLANE('',#1040);
#914=PLANE('',#1041);
#915=PLANE('',#1042);
#916=PLANE('',#1052);
#917=PLANE('',#1053);
#918=PLANE('',#1054);
#919=PLANE('',#1057);
#920=PLANE('',#1063);
#921=PLANE('',#1064);
#922=PLANE('',#1065);
#923=PLANE('',#1067);
#924=PLANE('',#1068);
#925=PLANE('',#1069);
#926=PLANE('',#1070);
#927=PLANE('',#1071);
#928=PLANE('',#1072);
#929=PLANE('',#1073);
#930=PLANE('',#1074);
#931=PLANE('',#1075);
#932=PLANE('',#1076);
#933=PLANE('',#1078);
#934=PLANE('',#1080);
#935=PLANE('',#1082);
#936=PLANE('',#1095);
#937=PLANE('',#1099);
#938=PLANE('',#1103);
#939=PLANE('',#1107);
#940=PLANE('',#1108);
#941=PLANE('',#1109);
#942=PLANE('',#1110);
#943=PLANE('',#1111);
#944=PLANE('',#1112);
#945=PLANE('',#1113);
#946=PLANE('',#1114);
#947=PLANE('',#1115);
#948=PLANE('',#1116);
#949=PLANE('',#1117);
#950=ADVANCED_FACE('',(#80),#907,.F.);
#951=ADVANCED_FACE('',(#81),#908,.F.);
#952=ADVANCED_FACE('',(#82),#909,.F.);
#953=ADVANCED_FACE('',(#83),#910,.F.);
#954=ADVANCED_FACE('',(#84),#911,.F.);
#955=ADVANCED_FACE('',(#85),#912,.F.);
#956=ADVANCED_FACE('',(#86),#58,.F.);
#957=ADVANCED_FACE('',(#87),#913,.T.);
#958=ADVANCED_FACE('',(#88),#914,.T.);
#959=ADVANCED_FACE('',(#89),#915,.T.);
#960=ADVANCED_FACE('',(#90),#59,.F.);
#961=ADVANCED_FACE('',(#91),#60,.F.);
#962=ADVANCED_FACE('',(#92),#916,.T.);
#963=ADVANCED_FACE('',(#93),#917,.T.);
#964=ADVANCED_FACE('',(#94),#918,.T.);
#965=ADVANCED_FACE('',(#95),#61,.F.);
#966=ADVANCED_FACE('',(#96),#919,.T.);
#967=ADVANCED_FACE('',(#97),#62,.F.);
#968=ADVANCED_FACE('',(#98),#920,.T.);
#969=ADVANCED_FACE('',(#99,#15),#921,.T.);
#970=ADVANCED_FACE('',(#100),#922,.T.);
#971=ADVANCED_FACE('',(#101),#63,.F.);
#972=ADVANCED_FACE('',(#102),#923,.T.);
#973=ADVANCED_FACE('',(#103),#924,.T.);
#974=ADVANCED_FACE('',(#104),#925,.T.);
#975=ADVANCED_FACE('',(#105),#926,.F.);
#976=ADVANCED_FACE('',(#106),#927,.T.);
#977=ADVANCED_FACE('',(#107),#928,.T.);
#978=ADVANCED_FACE('',(#108),#929,.T.);
#979=ADVANCED_FACE('',(#109),#930,.T.);
#980=ADVANCED_FACE('',(#110),#931,.T.);
#981=ADVANCED_FACE('',(#111),#932,.T.);
#982=ADVANCED_FACE('',(#112),#933,.T.);
#983=ADVANCED_FACE('',(#113),#934,.T.);
#984=ADVANCED_FACE('',(#114),#935,.T.);
#985=ADVANCED_FACE('',(#115),#64,.F.);
#986=ADVANCED_FACE('',(#116),#65,.F.);
#987=ADVANCED_FACE('',(#117),#66,.F.);
#988=ADVANCED_FACE('',(#118),#67,.F.);
#989=ADVANCED_FACE('',(#119),#68,.T.);
#990=ADVANCED_FACE('',(#120,#16),#936,.T.);
#991=ADVANCED_FACE('',(#121),#69,.T.);
#992=ADVANCED_FACE('',(#122,#17),#937,.T.);
#993=ADVANCED_FACE('',(#123),#70,.T.);
#994=ADVANCED_FACE('',(#124,#18),#938,.T.);
#995=ADVANCED_FACE('',(#125),#71,.T.);
#996=ADVANCED_FACE('',(#126,#19),#939,.T.);
#997=ADVANCED_FACE('',(#127,#20,#21,#22,#23),#940,.T.);
#998=ADVANCED_FACE('',(#128),#941,.F.);
#999=ADVANCED_FACE('',(#129,#24),#942,.T.);
#1000=ADVANCED_FACE('',(#130),#943,.T.);
#1001=ADVANCED_FACE('',(#131),#944,.T.);
#1002=ADVANCED_FACE('',(#132),#945,.T.);
#1003=ADVANCED_FACE('',(#133,#25),#946,.T.);
#1004=ADVANCED_FACE('',(#134),#947,.T.);
#1005=ADVANCED_FACE('',(#135),#948,.T.);
#1006=ADVANCED_FACE('',(#136),#949,.T.);
#1007=CLOSED_SHELL('',(#950,#951,#952,#953,#954,#955,#956,#957,#958,#959,
#960,#961,#962,#963,#964,#965,#966,#967,#968,#969,#970,#971,#972,#973,#974,
#975,#976,#977,#978,#979,#980,#981,#982,#983,#984,#985,#986,#987,#988,#989,
#990,#991,#992,#993,#994,#995,#996,#997,#998,#999,#1000,#1001,#1002,#1003,
#1004,#1005,#1006));
#1008=DERIVED_UNIT_ELEMENT(#1010,1.);
#1009=DERIVED_UNIT_ELEMENT(#1705,-3.);
#1010=(
MASS_UNIT()
NAMED_UNIT(*)
SI_UNIT(.KILO.,.GRAM.)
);
#1011=DERIVED_UNIT((#1008,#1009));
#1012=MEASURE_REPRESENTATION_ITEM('density measure',
POSITIVE_RATIO_MEASURE(952.),#1011);
#1013=PROPERTY_DEFINITION_REPRESENTATION(#1018,#1015);
#1014=PROPERTY_DEFINITION_REPRESENTATION(#1019,#1016);
#1015=REPRESENTATION('material name',(#1017),#1702);
#1016=REPRESENTATION('density',(#1012),#1702);
#1017=DESCRIPTIVE_REPRESENTATION_ITEM('Plastic, Opaque White',
'Plastic, Opaque White');
#1018=PROPERTY_DEFINITION('material property','material name',#1712);
#1019=PROPERTY_DEFINITION('material property','density of part',#1712);
#1020=AXIS2_PLACEMENT_3D('',#1412,#1118,#1119);
#1021=AXIS2_PLACEMENT_3D('',#1413,#1120,#1121);
#1022=AXIS2_PLACEMENT_3D('',#1420,#1125,#1126);
#1023=AXIS2_PLACEMENT_3D('',#1422,#1127,#1128);
#1024=AXIS2_PLACEMENT_3D('',#1430,#1132,#1133);
#1025=AXIS2_PLACEMENT_3D('',#1432,#1135,#1136);
#1026=AXIS2_PLACEMENT_3D('',#1434,#1137,#1138);
#1027=AXIS2_PLACEMENT_3D('',#1438,#1140,#1141);
#1028=AXIS2_PLACEMENT_3D('',#1442,#1144,#1145);
#1029=AXIS2_PLACEMENT_3D('',#1449,#1149,#1150);
#1030=AXIS2_PLACEMENT_3D('',#1451,#1151,#1152);
#1031=AXIS2_PLACEMENT_3D('',#1459,#1156,#1157);
#1032=AXIS2_PLACEMENT_3D('',#1461,#1159,#1160);
#1033=AXIS2_PLACEMENT_3D('',#1463,#1161,#1162);
#1034=AXIS2_PLACEMENT_3D('',#1467,#1164,#1165);
#1035=AXIS2_PLACEMENT_3D('',#1471,#1168,#1169);
#1036=AXIS2_PLACEMENT_3D('',#1475,#1171,#1172);
#1037=AXIS2_PLACEMENT_3D('',#1478,#1174,#1175);
#1038=AXIS2_PLACEMENT_3D('',#1480,#1176,#1177);
#1039=AXIS2_PLACEMENT_3D('',#1484,#1179,#1180);
#1040=AXIS2_PLACEMENT_3D('',#1486,#1182,#1183);
#1041=AXIS2_PLACEMENT_3D('',#1492,#1187,#1188);
#1042=AXIS2_PLACEMENT_3D('',#1498,#1192,#1193);
#1043=AXIS2_PLACEMENT_3D('',#1502,#1196,#1197);
#1044=AXIS2_PLACEMENT_3D('',#1504,#1198,#1199);
#1045=AXIS2_PLACEMENT_3D('',#1507,#1201,#1202);
#1046=AXIS2_PLACEMENT_3D('',#1508,#1203,#1204);
#1047=AXIS2_PLACEMENT_3D('',#1509,#1205,#1206);
#1048=AXIS2_PLACEMENT_3D('',#1513,#1208,#1209);
#1049=AXIS2_PLACEMENT_3D('',#1517,#1211,#1212);
#1050=AXIS2_PLACEMENT_3D('',#1520,#1214,#1215);
#1051=AXIS2_PLACEMENT_3D('',#1522,#1216,#1217);
#1052=AXIS2_PLACEMENT_3D('',#1524,#1219,#1220);
#1053=AXIS2_PLACEMENT_3D('',#1530,#1224,#1225);
#1054=AXIS2_PLACEMENT_3D('',#1536,#1229,#1230);
#1055=AXIS2_PLACEMENT_3D('',#1540,#1233,#1234);
#1056=AXIS2_PLACEMENT_3D('',#1541,#1235,#1236);
#1057=AXIS2_PLACEMENT_3D('',#1542,#1237,#1238);
#1058=AXIS2_PLACEMENT_3D('',#1553,#1244,#1245);
#1059=AXIS2_PLACEMENT_3D('',#1556,#1248,#1249);
#1060=AXIS2_PLACEMENT_3D('',#1560,#1251,#1252);
#1061=AXIS2_PLACEMENT_3D('',#1563,#1254,#1255);
#1062=AXIS2_PLACEMENT_3D('',#1564,#1256,#1257);
#1063=AXIS2_PLACEMENT_3D('',#1565,#1258,#1259);
#1064=AXIS2_PLACEMENT_3D('',#1566,#1260,#1261);
#1065=AXIS2_PLACEMENT_3D('',#1578,#1269,#1270);
#1066=AXIS2_PLACEMENT_3D('',#1579,#1271,#1272);
#1067=AXIS2_PLACEMENT_3D('',#1581,#1274,#1275);
#1068=AXIS2_PLACEMENT_3D('',#1582,#1276,#1277);
#1069=AXIS2_PLACEMENT_3D('',#1583,#1278,#1279);
#1070=AXIS2_PLACEMENT_3D('',#1584,#1280,#1281);
#1071=AXIS2_PLACEMENT_3D('',#1585,#1282,#1283);
#1072=AXIS2_PLACEMENT_3D('',#1586,#1284,#1285);
#1073=AXIS2_PLACEMENT_3D('',#1595,#1290,#1291);
#1074=AXIS2_PLACEMENT_3D('',#1601,#1295,#1296);
#1075=AXIS2_PLACEMENT_3D('',#1607,#1300,#1301);
#1076=AXIS2_PLACEMENT_3D('',#1610,#1304,#1305);
#1077=AXIS2_PLACEMENT_3D('',#1612,#1306,#1307);
#1078=AXIS2_PLACEMENT_3D('',#1613,#1308,#1309);
#1079=AXIS2_PLACEMENT_3D('',#1615,#1310,#1311);
#1080=AXIS2_PLACEMENT_3D('',#1616,#1312,#1313);
#1081=AXIS2_PLACEMENT_3D('',#1618,#1314,#1315);
#1082=AXIS2_PLACEMENT_3D('',#1619,#1316,#1317);
#1083=AXIS2_PLACEMENT_3D('',#1621,#1318,#1319);
#1084=AXIS2_PLACEMENT_3D('',#1622,#1320,#1321);
#1085=AXIS2_PLACEMENT_3D('',#1624,#1322,#1323);
#1086=AXIS2_PLACEMENT_3D('',#1626,#1325,#1326);
#1087=AXIS2_PLACEMENT_3D('',#1628,#1327,#1328);
#1088=AXIS2_PLACEMENT_3D('',#1630,#1330,#1331);
#1089=AXIS2_PLACEMENT_3D('',#1632,#1332,#1333);
#1090=AXIS2_PLACEMENT_3D('',#1634,#1335,#1336);
#1091=AXIS2_PLACEMENT_3D('',#1636,#1337,#1338);
#1092=AXIS2_PLACEMENT_3D('',#1638,#1340,#1341);
#1093=AXIS2_PLACEMENT_3D('',#1640,#1342,#1343);
#1094=AXIS2_PLACEMENT_3D('',#1643,#1345,#1346);
#1095=AXIS2_PLACEMENT_3D('',#1644,#1347,#1348);
#1096=AXIS2_PLACEMENT_3D('',#1645,#1349,#1350);
#1097=AXIS2_PLACEMENT_3D('',#1647,#1351,#1352);
#1098=AXIS2_PLACEMENT_3D('',#1650,#1354,#1355);
#1099=AXIS2_PLACEMENT_3D('',#1651,#1356,#1357);
#1100=AXIS2_PLACEMENT_3D('',#1652,#1358,#1359);
#1101=AXIS2_PLACEMENT_3D('',#1654,#1360,#1361);
#1102=AXIS2_PLACEMENT_3D('',#1657,#1363,#1364);
#1103=AXIS2_PLACEMENT_3D('',#1658,#1365,#1366);
#1104=AXIS2_PLACEMENT_3D('',#1659,#1367,#1368);
#1105=AXIS2_PLACEMENT_3D('',#1661,#1369,#1370);
#1106=AXIS2_PLACEMENT_3D('',#1664,#1372,#1373);
#1107=AXIS2_PLACEMENT_3D('',#1665,#1374,#1375);
#1108=AXIS2_PLACEMENT_3D('',#1666,#1376,#1377);
#1109=AXIS2_PLACEMENT_3D('',#1675,#1382,#1383);
#1110=AXIS2_PLACEMENT_3D('',#1684,#1388,#1389);
#1111=AXIS2_PLACEMENT_3D('',#1687,#1392,#1393);
#1112=AXIS2_PLACEMENT_3D('',#1689,#1395,#1396);
#1113=AXIS2_PLACEMENT_3D('',#1691,#1398,#1399);
#1114=AXIS2_PLACEMENT_3D('',#1692,#1400,#1401);
#1115=AXIS2_PLACEMENT_3D('',#1695,#1404,#1405);
#1116=AXIS2_PLACEMENT_3D('',#1697,#1407,#1408);
#1117=AXIS2_PLACEMENT_3D('',#1699,#1410,#1411);
#1118=DIRECTION('axis',(0.,0.,1.));
#1119=DIRECTION('refdir',(1.,0.,0.));
#1120=DIRECTION('center_axis',(-1.,0.,0.));
#1121=DIRECTION('ref_axis',(0.,0.,1.));
#1122=DIRECTION('',(0.,0.,-1.));
#1123=DIRECTION('',(0.,0.743294146247167,0.668964731622449));
#1124=DIRECTION('',(0.,-0.743294146247166,0.66896473162245));
#1125=DIRECTION('center_axis',(0.,-0.66896473162245,-0.743294146247166));
#1126=DIRECTION('ref_axis',(0.,-0.743294146247166,0.66896473162245));
#1127=DIRECTION('center_axis',(0.,0.66896473162245,0.743294146247166));
#1128=DIRECTION('ref_axis',(0.,0.743294146247166,-0.66896473162245));
#1129=DIRECTION('',(-1.,0.,0.));
#1130=DIRECTION('',(0.,-0.743294146247166,0.66896473162245));
#1131=DIRECTION('',(1.,0.,0.));
#1132=DIRECTION('center_axis',(0.,0.66896473162245,0.743294146247166));
#1133=DIRECTION('ref_axis',(0.,0.743294146247166,-0.66896473162245));
#1134=DIRECTION('',(1.,0.,0.));
#1135=DIRECTION('center_axis',(0.,-0.668964731622449,0.743294146247167));
#1136=DIRECTION('ref_axis',(0.,0.743294146247167,0.668964731622449));
#1137=DIRECTION('center_axis',(0.,0.668964731622449,-0.743294146247167));
#1138=DIRECTION('ref_axis',(0.,0.743294146247167,0.668964731622449));
#1139=DIRECTION('',(-1.,0.,0.));
#1140=DIRECTION('center_axis',(0.,0.668964731622449,-0.743294146247167));
#1141=DIRECTION('ref_axis',(0.,0.743294146247167,0.668964731622449));
#1142=DIRECTION('',(-1.,0.,0.));
#1143=DIRECTION('',(0.,0.743294146247167,0.668964731622449));
#1144=DIRECTION('center_axis',(-1.,0.,0.));
#1145=DIRECTION('ref_axis',(0.,0.,1.));
#1146=DIRECTION('',(0.,0.,1.));
#1147=DIRECTION('',(0.,-0.743294146247166,-0.66896473162245));
#1148=DIRECTION('',(0.,0.743294146247167,-0.668964731622449));
#1149=DIRECTION('center_axis',(0.,0.668964731622449,0.743294146247167));
#1150=DIRECTION('ref_axis',(0.,0.743294146247167,-0.668964731622449));
#1151=DIRECTION('center_axis',(0.,-0.668964731622449,-0.743294146247167));
#1152=DIRECTION('ref_axis',(0.,0.743294146247167,-0.668964731622449));
#1153=DIRECTION('',(-1.,0.,0.));
#1154=DIRECTION('',(0.,0.743294146247167,-0.668964731622449));
#1155=DIRECTION('',(1.,0.,0.));
#1156=DIRECTION('center_axis',(0.,-0.668964731622449,-0.743294146247167));
#1157=DIRECTION('ref_axis',(0.,0.743294146247167,-0.668964731622449));
#1158=DIRECTION('',(1.,0.,0.));
#1159=DIRECTION('center_axis',(0.,0.66896473162245,-0.743294146247166));
#1160=DIRECTION('ref_axis',(0.,-0.743294146247166,-0.66896473162245));
#1161=DIRECTION('center_axis',(0.,-0.66896473162245,0.743294146247166));
#1162=DIRECTION('ref_axis',(0.,0.743294146247166,0.66896473162245));
#1163=DIRECTION('',(-1.,0.,0.));
#1164=DIRECTION('center_axis',(0.,-0.66896473162245,0.743294146247166));
#1165=DIRECTION('ref_axis',(0.,0.743294146247166,0.66896473162245));
#1166=DIRECTION('',(-1.,0.,0.));
#1167=DIRECTION('',(0.,-0.743294146247166,-0.66896473162245));
#1168=DIRECTION('center_axis',(0.,0.,-1.));
#1169=DIRECTION('ref_axis',(-1.,0.,0.));
#1170=DIRECTION('',(0.,0.,1.));
#1171=DIRECTION('center_axis',(0.,0.,-1.));
#1172=DIRECTION('ref_axis',(-1.,0.,0.));
#1173=DIRECTION('',(0.,0.,-1.));
#1174=DIRECTION('center_axis',(0.,0.,-1.));
#1175=DIRECTION('ref_axis',(-1.,0.,0.));
#1176=DIRECTION('center_axis',(0.,0.,-1.));
#1177=DIRECTION('ref_axis',(-1.,0.,0.));
#1178=DIRECTION('',(0.,0.,-1.));
#1179=DIRECTION('center_axis',(0.,0.,-1.));
#1180=DIRECTION('ref_axis',(-1.,0.,0.));
#1181=DIRECTION('',(0.,0.,1.));
#1182=DIRECTION('center_axis',(0.,1.,0.));
#1183=DIRECTION('ref_axis',(-1.,0.,0.));
#1184=DIRECTION('',(0.,0.,1.));
#1185=DIRECTION('',(1.,0.,0.));
#1186=DIRECTION('',(0.,0.,1.));
#1187=DIRECTION('center_axis',(0.,1.,0.));
#1188=DIRECTION('ref_axis',(-1.,0.,0.));
#1189=DIRECTION('',(0.,0.,1.));
#1190=DIRECTION('',(-1.,0.,0.));
#1191=DIRECTION('',(0.,0.,1.));
#1192=DIRECTION('center_axis',(0.,1.,0.));
#1193=DIRECTION('ref_axis',(-1.,0.,0.));
#1194=DIRECTION('',(0.,0.,-1.));
#1195=DIRECTION('',(1.,0.,0.));
#1196=DIRECTION('center_axis',(0.,0.,-1.));
#1197=DIRECTION('ref_axis',(-1.,0.,0.));
#1198=DIRECTION('center_axis',(0.,0.,-1.));
#1199=DIRECTION('ref_axis',(-1.,0.,0.));
#1200=DIRECTION('',(0.,0.,-1.));
#1201=DIRECTION('center_axis',(0.,0.,-1.));
#1202=DIRECTION('ref_axis',(-1.,0.,0.));
#1203=DIRECTION('center_axis',(0.,0.,-1.));
#1204=DIRECTION('ref_axis',(-1.,0.,0.));
#1205=DIRECTION('center_axis',(0.,0.,-1.));
#1206=DIRECTION('ref_axis',(-1.,0.,0.));
#1207=DIRECTION('',(0.,0.,-1.));
#1208=DIRECTION('center_axis',(0.,0.,-1.));
#1209=DIRECTION('ref_axis',(-1.,0.,0.));
#1210=DIRECTION('',(0.,0.,1.));
#1211=DIRECTION('center_axis',(0.,0.,-1.));
#1212=DIRECTION('ref_axis',(-1.,0.,0.));
#1213=DIRECTION('',(0.,0.,-1.));
#1214=DIRECTION('center_axis',(0.,0.,-1.));
#1215=DIRECTION('ref_axis',(-1.,0.,0.));
#1216=DIRECTION('center_axis',(0.,0.,-1.));
#1217=DIRECTION('ref_axis',(-1.,0.,0.));
#1218=DIRECTION('',(0.,0.,-1.));
#1219=DIRECTION('center_axis',(0.,-1.,0.));
#1220=DIRECTION('ref_axis',(1.,0.,0.));
#1221=DIRECTION('',(0.,0.,1.));
#1222=DIRECTION('',(1.,0.,0.));
#1223=DIRECTION('',(0.,0.,-1.));
#1224=DIRECTION('center_axis',(0.,-1.,0.));
#1225=DIRECTION('ref_axis',(1.,0.,0.));
#1226=DIRECTION('',(0.,0.,-1.));
#1227=DIRECTION('',(-1.,0.,0.));
#1228=DIRECTION('',(0.,0.,1.));
#1229=DIRECTION('center_axis',(0.,-1.,0.));
#1230=DIRECTION('ref_axis',(1.,0.,0.));
#1231=DIRECTION('',(0.,0.,1.));
#1232=DIRECTION('',(1.,0.,0.));
#1233=DIRECTION('center_axis',(0.,0.,-1.));
#1234=DIRECTION('ref_axis',(-1.,0.,0.));
#1235=DIRECTION('center_axis',(0.,0.,-1.));
#1236=DIRECTION('ref_axis',(-1.,0.,0.));
#1237=DIRECTION('center_axis',(0.,0.,1.));
#1238=DIRECTION('ref_axis',(1.,0.,0.));
#1239=DIRECTION('',(0.,1.,0.));
#1240=DIRECTION('',(-1.,0.,0.));
#1241=DIRECTION('',(0.,-1.,0.));
#1242=DIRECTION('',(1.,0.,0.));
#1243=DIRECTION('',(0.,1.,0.));
#1244=DIRECTION('center_axis',(0.,0.,-1.));
#1245=DIRECTION('ref_axis',(-1.,0.,0.));
#1246=DIRECTION('',(-1.,0.,0.));
#1247=DIRECTION('',(0.,1.,0.));
#1248=DIRECTION('center_axis',(0.,0.,-1.));
#1249=DIRECTION('ref_axis',(-1.,0.,0.));
#1250=DIRECTION('',(0.,0.,1.));
#1251=DIRECTION('center_axis',(0.,0.,-1.));
#1252=DIRECTION('ref_axis',(-1.,0.,0.));
#1253=DIRECTION('',(0.,0.,-1.));
#1254=DIRECTION('center_axis',(0.,0.,-1.));
#1255=DIRECTION('ref_axis',(-1.,0.,0.));
#1256=DIRECTION('center_axis',(0.,0.,-1.));
#1257=DIRECTION('ref_axis',(-1.,0.,0.));
#1258=DIRECTION('center_axis',(0.,0.,1.));
#1259=DIRECTION('ref_axis',(-1.,0.,0.));
#1260=DIRECTION('center_axis',(0.,0.,1.));
#1261=DIRECTION('ref_axis',(1.,0.,0.));
#1262=DIRECTION('',(-1.,0.,0.));
#1263=DIRECTION('',(0.,-1.,0.));
#1264=DIRECTION('',(0.,1.,0.));
#1265=DIRECTION('',(-1.,0.,0.));
#1266=DIRECTION('',(0.,1.,0.));
#1267=DIRECTION('',(1.,0.,0.));
#1268=DIRECTION('',(0.,-1.,0.));
#1269=DIRECTION('center_axis',(0.,-1.,0.));
#1270=DIRECTION('ref_axis',(1.,0.,0.));
#1271=DIRECTION('center_axis',(0.,0.,-1.));
#1272=DIRECTION('ref_axis',(-1.,0.,0.));
#1273=DIRECTION('',(0.,0.,-1.));
#1274=DIRECTION('center_axis',(0.,0.,1.));
#1275=DIRECTION('ref_axis',(-1.,0.,0.));
#1276=DIRECTION('center_axis',(0.,1.,0.));
#1277=DIRECTION('ref_axis',(-1.,0.,0.));
#1278=DIRECTION('center_axis',(0.,0.,1.));
#1279=DIRECTION('ref_axis',(-1.,0.,0.));
#1280=DIRECTION('center_axis',(-1.,0.,0.));
#1281=DIRECTION('ref_axis',(0.,0.,1.));
#1282=DIRECTION('center_axis',(0.,0.,1.));
#1283=DIRECTION('ref_axis',(-1.,0.,0.));
#1284=DIRECTION('center_axis',(0.,0.,-1.));
#1285=DIRECTION('ref_axis',(-1.,0.,0.));
#1286=DIRECTION('',(1.,0.,0.));
#1287=DIRECTION('',(0.,1.,0.));
#1288=DIRECTION('',(-1.,0.,0.));
#1289=DIRECTION('',(0.,-1.,0.));
#1290=DIRECTION('center_axis',(0.,-1.,0.));
#1291=DIRECTION('ref_axis',(0.,0.,-1.));
#1292=DIRECTION('',(0.,0.,-1.));
#1293=DIRECTION('',(1.,0.,0.));
#1294=DIRECTION('',(0.,0.,1.));
#1295=DIRECTION('center_axis',(0.,0.,1.));
#1296=DIRECTION('ref_axis',(1.,0.,0.));
#1297=DIRECTION('',(-1.,0.,0.));
#1298=DIRECTION('',(0.,1.,0.));
#1299=DIRECTION('',(0.,-1.,0.));
#1300=DIRECTION('center_axis',(0.,1.,0.));
#1301=DIRECTION('ref_axis',(0.,0.,1.));
#1302=DIRECTION('',(0.,0.,-1.));
#1303=DIRECTION('',(0.,0.,1.));
#1304=DIRECTION('center_axis',(0.,0.,1.));
#1305=DIRECTION('ref_axis',(-1.,0.,0.));
#1306=DIRECTION('center_axis',(0.,0.,-1.));
#1307=DIRECTION('ref_axis',(-1.,0.,0.));
#1308=DIRECTION('center_axis',(0.,0.,1.));
#1309=DIRECTION('ref_axis',(-1.,0.,0.));
#1310=DIRECTION('center_axis',(0.,0.,-1.));
#1311=DIRECTION('ref_axis',(-1.,0.,0.));
#1312=DIRECTION('center_axis',(0.,0.,1.));
#1313=DIRECTION('ref_axis',(-1.,0.,0.));
#1314=DIRECTION('center_axis',(0.,0.,-1.));
#1315=DIRECTION('ref_axis',(-1.,0.,0.));
#1316=DIRECTION('center_axis',(0.,0.,1.));
#1317=DIRECTION('ref_axis',(-1.,0.,0.));
#1318=DIRECTION('center_axis',(0.,0.,-1.));
#1319=DIRECTION('ref_axis',(-1.,0.,0.));
#1320=DIRECTION('center_axis',(0.,0.,-1.));
#1321=DIRECTION('ref_axis',(-1.,0.,0.));
#1322=DIRECTION('center_axis',(0.,0.,-1.));
#1323=DIRECTION('ref_axis',(-1.,0.,0.));
#1324=DIRECTION('',(0.,0.,-1.));
#1325=DIRECTION('center_axis',(0.,0.,-1.));
#1326=DIRECTION('ref_axis',(-1.,0.,0.));
#1327=DIRECTION('center_axis',(0.,0.,-1.));
#1328=DIRECTION('ref_axis',(-1.,0.,0.));
#1329=DIRECTION('',(0.,0.,-1.));
#1330=DIRECTION('center_axis',(0.,0.,-1.));
#1331=DIRECTION('ref_axis',(-1.,0.,0.));
#1332=DIRECTION('center_axis',(0.,0.,-1.));
#1333=DIRECTION('ref_axis',(-1.,0.,0.));
#1334=DIRECTION('',(0.,0.,-1.));
#1335=DIRECTION('center_axis',(0.,0.,-1.));
#1336=DIRECTION('ref_axis',(-1.,0.,0.));
#1337=DIRECTION('center_axis',(0.,0.,-1.));
#1338=DIRECTION('ref_axis',(-1.,0.,0.));
#1339=DIRECTION('',(0.,0.,-1.));
#1340=DIRECTION('center_axis',(0.,0.,1.));
#1341=DIRECTION('ref_axis',(-1.,0.,0.));
#1342=DIRECTION('center_axis',(0.,0.,1.));
#1343=DIRECTION('ref_axis',(-1.,0.,0.));
#1344=DIRECTION('',(0.,0.,-1.));
#1345=DIRECTION('center_axis',(0.,0.,-1.));
#1346=DIRECTION('ref_axis',(-1.,0.,0.));
#1347=DIRECTION('center_axis',(0.,0.,1.));
#1348=DIRECTION('ref_axis',(-1.,0.,0.));
#1349=DIRECTION('center_axis',(0.,0.,1.));
#1350=DIRECTION('ref_axis',(-1.,0.,0.));
#1351=DIRECTION('center_axis',(0.,0.,1.));
#1352=DIRECTION('ref_axis',(-1.,0.,0.));
#1353=DIRECTION('',(0.,0.,-1.));
#1354=DIRECTION('center_axis',(0.,0.,-1.));
#1355=DIRECTION('ref_axis',(-1.,0.,0.));
#1356=DIRECTION('center_axis',(0.,0.,1.));
#1357=DIRECTION('ref_axis',(-1.,0.,0.));
#1358=DIRECTION('center_axis',(0.,0.,1.));
#1359=DIRECTION('ref_axis',(-1.,0.,0.));
#1360=DIRECTION('center_axis',(0.,0.,1.));
#1361=DIRECTION('ref_axis',(-1.,0.,0.));
#1362=DIRECTION('',(0.,0.,-1.));
#1363=DIRECTION('center_axis',(0.,0.,-1.));
#1364=DIRECTION('ref_axis',(-1.,0.,0.));
#1365=DIRECTION('center_axis',(0.,0.,1.));
#1366=DIRECTION('ref_axis',(-1.,0.,0.));
#1367=DIRECTION('center_axis',(0.,0.,1.));
#1368=DIRECTION('ref_axis',(-1.,0.,0.));
#1369=DIRECTION('center_axis',(0.,0.,1.));
#1370=DIRECTION('ref_axis',(-1.,0.,0.));
#1371=DIRECTION('',(0.,0.,-1.));
#1372=DIRECTION('center_axis',(0.,0.,-1.));
#1373=DIRECTION('ref_axis',(-1.,0.,0.));
#1374=DIRECTION('center_axis',(0.,0.,1.));
#1375=DIRECTION('ref_axis',(-1.,0.,0.));
#1376=DIRECTION('center_axis',(0.,0.,1.));
#1377=DIRECTION('ref_axis',(1.,0.,0.));
#1378=DIRECTION('',(-1.,0.,0.));
#1379=DIRECTION('',(0.,-1.,0.));
#1380=DIRECTION('',(1.,0.,0.));
#1381=DIRECTION('',(0.,1.,0.));
#1382=DIRECTION('center_axis',(0.,0.,1.));
#1383=DIRECTION('ref_axis',(1.,0.,0.));
#1384=DIRECTION('',(1.,0.,0.));
#1385=DIRECTION('',(0.,-1.,0.));
#1386=DIRECTION('',(-1.,0.,0.));
#1387=DIRECTION('',(0.,1.,0.));
#1388=DIRECTION('center_axis',(-1.,0.,0.));
#1389=DIRECTION('ref_axis',(0.,-1.,0.));
#1390=DIRECTION('',(0.,0.,1.));
#1391=DIRECTION('',(0.,0.,1.));
#1392=DIRECTION('center_axis',(0.,-1.,0.));
#1393=DIRECTION('ref_axis',(1.,0.,0.));
#1394=DIRECTION('',(0.,0.,1.));
#1395=DIRECTION('center_axis',(1.,0.,0.));
#1396=DIRECTION('ref_axis',(0.,1.,0.));
#1397=DIRECTION('',(0.,0.,1.));
#1398=DIRECTION('center_axis',(0.,1.,0.));
#1399=DIRECTION('ref_axis',(-1.,0.,0.));
#1400=DIRECTION('center_axis',(1.,0.,0.));
#1401=DIRECTION('ref_axis',(0.,1.,0.));
#1402=DIRECTION('',(0.,0.,1.));
#1403=DIRECTION('',(0.,0.,-1.));
#1404=DIRECTION('center_axis',(0.,-1.,0.));
#1405=DIRECTION('ref_axis',(1.,0.,0.));
#1406=DIRECTION('',(0.,0.,1.));
#1407=DIRECTION('center_axis',(-1.,0.,0.));
#1408=DIRECTION('ref_axis',(0.,-1.,0.));
#1409=DIRECTION('',(0.,0.,1.));
#1410=DIRECTION('center_axis',(0.,1.,0.));
#1411=DIRECTION('ref_axis',(-1.,0.,0.));
#1412=CARTESIAN_POINT('',(0.,0.,0.));
#1413=CARTESIAN_POINT('Origin',(-59.3125,-42.275,34.5));
#1414=CARTESIAN_POINT('',(-59.3125,-41.7997727084868,36.0527045623619));
#1415=CARTESIAN_POINT('',(-59.3125,-41.7997727084868,32.9472954376381));
#1416=CARTESIAN_POINT('',(-59.3125,-41.7997727084868,34.));
#1417=CARTESIAN_POINT('',(-59.3125,-43.525,34.5));
#1418=CARTESIAN_POINT('',(-59.3125,-41.025,36.75));
#1419=CARTESIAN_POINT('',(-59.3125,-41.025,32.25));
#1420=CARTESIAN_POINT('Origin',(64.0125,-41.025,32.25));
#1421=CARTESIAN_POINT('',(-57.3377272915133,-41.025,32.25));
#1422=CARTESIAN_POINT('Origin',(-58.7125,-40.425,31.71));
#1423=CARTESIAN_POINT('',(64.0125,-43.525,34.5));
#1424=CARTESIAN_POINT('',(64.0125,-43.525,34.5));
#1425=CARTESIAN_POINT('',(64.0125,-41.025,32.25));
#1426=CARTESIAN_POINT('',(64.0125,-34.3882596685083,26.2769337016575));
#1427=CARTESIAN_POINT('',(55.4696946503326,-41.025,32.25));
#1428=CARTESIAN_POINT('',(64.0125,-41.025,32.25));
#1429=CARTESIAN_POINT('',(52.5303069589928,-41.025,32.25));
#1430=CARTESIAN_POINT('Origin',(54.0000008046627,-40.725,31.98));
#1431=CARTESIAN_POINT('',(64.0125,-41.025,32.25));
#1432=CARTESIAN_POINT('Origin',(64.0125,-43.525,34.5));
#1433=CARTESIAN_POINT('',(-57.3377272915133,-41.025,36.75));
#1434=CARTESIAN_POINT('Origin',(-58.7125,-40.425,37.29));
#1435=CARTESIAN_POINT('',(52.5303069589928,-41.025,36.75));
#1436=CARTESIAN_POINT('',(64.0125,-41.025,36.75));
#1437=CARTESIAN_POINT('',(55.4696946503326,-41.025,36.75));
#1438=CARTESIAN_POINT('Origin',(54.0000008046627,-40.725,37.02));
#1439=CARTESIAN_POINT('',(64.0125,-41.025,36.75));
#1440=CARTESIAN_POINT('',(64.0125,-41.025,36.75));
#1441=CARTESIAN_POINT('',(64.0125,-52.792955801105,26.1588397790055));
#1442=CARTESIAN_POINT('Origin',(-59.3125,42.275,34.5));
#1443=CARTESIAN_POINT('',(-59.3125,42.0997727084868,33.2172954376381));
#1444=CARTESIAN_POINT('',(-59.3125,42.0997727084868,35.7827045623619));
#1445=CARTESIAN_POINT('',(-59.3125,42.0997727084868,34.));
#1446=CARTESIAN_POINT('',(-59.3125,43.525,34.5));
#1447=CARTESIAN_POINT('',(-59.3125,41.025,32.25));
#1448=CARTESIAN_POINT('',(-59.3125,41.025,36.75));
#1449=CARTESIAN_POINT('Origin',(64.0125,41.025,36.75));
#1450=CARTESIAN_POINT('',(-57.2428061543301,41.025,36.75));
#1451=CARTESIAN_POINT('Origin',(-58.7125,40.725,37.02));
#1452=CARTESIAN_POINT('',(64.0125,43.525,34.5));
#1453=CARTESIAN_POINT('',(64.0125,43.525,34.5));
#1454=CARTESIAN_POINT('',(64.0125,41.025,36.75));
#1455=CARTESIAN_POINT('',(64.0125,26.1147790055248,50.1691988950276));
#1456=CARTESIAN_POINT('',(55.4997924670435,41.025,36.75));
#1457=CARTESIAN_POINT('',(2.5,41.025,36.75));
#1458=CARTESIAN_POINT('',(52.5002091422819,41.025,36.75));
#1459=CARTESIAN_POINT('Origin',(54.0000008046627,41.0000006109476,36.7724994501472));
#1460=CARTESIAN_POINT('',(2.5,41.025,36.75));
#1461=CARTESIAN_POINT('Origin',(64.0125,43.525,34.5));
#1462=CARTESIAN_POINT('',(-57.2428061543301,41.025,32.25));
#1463=CARTESIAN_POINT('Origin',(-58.7125,40.725,31.98));
#1464=CARTESIAN_POINT('',(52.5002091422819,41.025,32.25));
#1465=CARTESIAN_POINT('',(2.5,41.025,32.25));
#1466=CARTESIAN_POINT('',(55.4997924670435,41.025,32.25));
#1467=CARTESIAN_POINT('Origin',(54.0000008046627,41.0000006109476,32.2275005498528));
#1468=CARTESIAN_POINT('',(64.0125,41.025,32.25));
#1469=CARTESIAN_POINT('',(2.5,41.025,32.25));
#1470=CARTESIAN_POINT('',(64.0125,10.2100828729282,4.51657458563535));
#1471=CARTESIAN_POINT('Origin',(-58.7125,-40.425,34.));
#1472=CARTESIAN_POINT('',(-57.3377272915133,-41.025,30.));
#1473=CARTESIAN_POINT('',(-57.3377272915133,-41.025,34.));
#1474=CARTESIAN_POINT('',(-57.2125,-40.425,30.));
#1475=CARTESIAN_POINT('Origin',(-58.7125,-40.425,30.));
#1476=CARTESIAN_POINT('',(-57.2125,-40.425,14.));
#1477=CARTESIAN_POINT('',(-57.2125,-40.425,34.));
#1478=CARTESIAN_POINT('Origin',(-58.7125,-40.425,14.));
#1479=CARTESIAN_POINT('',(-59.3125,-39.0502272915133,30.));
#1480=CARTESIAN_POINT('Origin',(-58.7125,-40.425,30.));
#1481=CARTESIAN_POINT('',(-59.3125,-39.0502272915133,39.));
#1482=CARTESIAN_POINT('',(-59.3125,-39.0502272915133,34.));
#1483=CARTESIAN_POINT('',(-57.3377272915133,-41.025,39.));
#1484=CARTESIAN_POINT('Origin',(-58.7125,-40.425,39.));
#1485=CARTESIAN_POINT('',(-57.3377272915133,-41.025,34.));
#1486=CARTESIAN_POINT('Origin',(64.0125,-41.025,30.));
#1487=CARTESIAN_POINT('',(64.0125,-41.025,30.));
#1488=CARTESIAN_POINT('',(64.0125,-41.025,30.));
#1489=CARTESIAN_POINT('',(55.4696946503326,-41.025,30.));
#1490=CARTESIAN_POINT('',(32.00625,-41.025,30.));
#1491=CARTESIAN_POINT('',(55.4696946503326,-41.025,34.));
#1492=CARTESIAN_POINT('Origin',(64.0125,-41.025,30.));
#1493=CARTESIAN_POINT('',(55.4696946503326,-41.025,39.));
#1494=CARTESIAN_POINT('',(55.4696946503326,-41.025,34.));
#1495=CARTESIAN_POINT('',(64.0125,-41.025,39.));
#1496=CARTESIAN_POINT('',(54.0125,-41.025,39.));
#1497=CARTESIAN_POINT('',(64.0125,-41.025,30.));
#1498=CARTESIAN_POINT('Origin',(64.0125,-41.025,30.));
#1499=CARTESIAN_POINT('',(52.5303069589928,-41.025,30.));
#1500=CARTESIAN_POINT('',(52.5303069589928,-41.025,34.));
#1501=CARTESIAN_POINT('',(32.00625,-41.025,30.));
#1502=CARTESIAN_POINT('Origin',(54.0000008046627,-40.725,34.));
#1503=CARTESIAN_POINT('',(55.5000008046627,-40.725,30.));
#1504=CARTESIAN_POINT('Origin',(54.0000008046627,-40.725,30.));
#1505=CARTESIAN_POINT('',(55.5000008046627,-40.725,14.));
#1506=CARTESIAN_POINT('',(55.5000008046627,-40.725,34.));
#1507=CARTESIAN_POINT('Origin',(54.0000008046627,-40.725,14.));
#1508=CARTESIAN_POINT('Origin',(54.0000008046627,-40.725,30.));
#1509=CARTESIAN_POINT('Origin',(-58.7125,40.725,34.));
#1510=CARTESIAN_POINT('',(-57.2428061543301,41.025,39.));
#1511=CARTESIAN_POINT('',(-57.2428061543301,41.025,34.));
#1512=CARTESIAN_POINT('',(-59.3125,39.3502272915133,39.));
#1513=CARTESIAN_POINT('Origin',(-58.7125,40.725,39.));
#1514=CARTESIAN_POINT('',(-59.3125,39.3502272915133,30.));
#1515=CARTESIAN_POINT('',(-59.3125,39.3502272915133,34.));
#1516=CARTESIAN_POINT('',(-57.2125,40.725,30.));
#1517=CARTESIAN_POINT('Origin',(-58.7125,40.725,30.));
#1518=CARTESIAN_POINT('',(-57.2125,40.725,14.));
#1519=CARTESIAN_POINT('',(-57.2125,40.725,34.));
#1520=CARTESIAN_POINT('Origin',(-58.7125,40.725,14.));
#1521=CARTESIAN_POINT('',(-57.2428061543301,41.025,30.));
#1522=CARTESIAN_POINT('Origin',(-58.7125,40.725,30.));
#1523=CARTESIAN_POINT('',(-57.2428061543301,41.025,34.));
#1524=CARTESIAN_POINT('Origin',(-59.0125,41.025,30.));
#1525=CARTESIAN_POINT('',(64.0125,41.025,39.));
#1526=CARTESIAN_POINT('',(64.0125,41.025,30.));
#1527=CARTESIAN_POINT('',(55.4997924670435,41.025,39.));
#1528=CARTESIAN_POINT('',(-29.50625,41.025,39.));
#1529=CARTESIAN_POINT('',(55.4997924670435,41.025,34.));
#1530=CARTESIAN_POINT('Origin',(-59.0125,41.025,30.));
#1531=CARTESIAN_POINT('',(55.4997924670435,41.025,30.));
#1532=CARTESIAN_POINT('',(55.4997924670435,41.025,34.));
#1533=CARTESIAN_POINT('',(64.0125,41.025,30.));
#1534=CARTESIAN_POINT('',(-29.50625,41.025,30.));
#1535=CARTESIAN_POINT('',(64.0125,41.025,30.));
#1536=CARTESIAN_POINT('Origin',(-59.0125,41.025,30.));
#1537=CARTESIAN_POINT('',(52.5002091422819,41.025,39.));
#1538=CARTESIAN_POINT('',(52.5002091422819,41.025,34.));
#1539=CARTESIAN_POINT('',(-29.50625,41.025,39.));
#1540=CARTESIAN_POINT('Origin',(54.0000008046627,41.0000006109476,34.));
#1541=CARTESIAN_POINT('Origin',(54.0000008046627,41.0000006109476,39.));
#1542=CARTESIAN_POINT('Origin',(0.,0.,39.));
#1543=CARTESIAN_POINT('',(64.0125,46.025,39.));
#1544=CARTESIAN_POINT('',(64.0125,41.025,39.));
#1545=CARTESIAN_POINT('',(-64.0125,46.025,39.));
#1546=CARTESIAN_POINT('',(64.0125,46.025,39.));
#1547=CARTESIAN_POINT('',(-64.0125,-46.025,39.));
#1548=CARTESIAN_POINT('',(-64.0125,46.025,39.));
#1549=CARTESIAN_POINT('',(64.0125,-46.025,39.));
#1550=CARTESIAN_POINT('',(-64.0125,-46.025,39.));
#1551=CARTESIAN_POINT('',(64.0125,-41.025,39.));
#1552=CARTESIAN_POINT('',(52.5303069589928,-41.025,39.));
#1553=CARTESIAN_POINT('Origin',(54.0000008046627,-40.725,39.));
#1554=CARTESIAN_POINT('',(54.0125,-41.025,39.));
#1555=CARTESIAN_POINT('',(-59.3125,-20.5125,39.));
#1556=CARTESIAN_POINT('Origin',(54.0000008046627,41.0000006109476,34.));
#1557=CARTESIAN_POINT('',(52.5002091422819,41.025,30.));
#1558=CARTESIAN_POINT('',(52.5002091422819,41.025,34.));
#1559=CARTESIAN_POINT('',(55.5000008046627,41.0000006109476,30.));
#1560=CARTESIAN_POINT('Origin',(54.0000008046627,41.0000006109476,30.));
#1561=CARTESIAN_POINT('',(55.5000008046627,41.0000006109476,14.));
#1562=CARTESIAN_POINT('',(55.5000008046627,41.0000006109476,34.));
#1563=CARTESIAN_POINT('Origin',(54.0000008046627,41.0000006109476,14.));
#1564=CARTESIAN_POINT('Origin',(54.0000008046627,41.0000006109476,30.));
#1565=CARTESIAN_POINT('Origin',(54.0000008046627,41.0000006109476,14.));
#1566=CARTESIAN_POINT('Origin',(0.,0.,30.));
#1567=CARTESIAN_POINT('',(-29.50625,41.025,30.));
#1568=CARTESIAN_POINT('',(-59.3125,-20.5125,30.));
#1569=CARTESIAN_POINT('',(64.0125,46.025,30.));
#1570=CARTESIAN_POINT('',(54.0125,-36.025,30.));
#1571=CARTESIAN_POINT('',(-54.0125,-36.025,30.));
#1572=CARTESIAN_POINT('',(54.0125,-36.025,30.));
#1573=CARTESIAN_POINT('',(-54.0125,36.025,30.));
#1574=CARTESIAN_POINT('',(-54.0125,-36.025,30.));
#1575=CARTESIAN_POINT('',(54.0125,36.025,30.));
#1576=CARTESIAN_POINT('',(-54.0125,36.025,30.));
#1577=CARTESIAN_POINT('',(54.0125,36.025,30.));
#1578=CARTESIAN_POINT('Origin',(-59.0125,41.025,30.));
#1579=CARTESIAN_POINT('Origin',(54.0000008046627,-40.725,34.));
#1580=CARTESIAN_POINT('',(52.5303069589928,-41.025,34.));
#1581=CARTESIAN_POINT('Origin',(54.0000008046627,-40.725,14.));
#1582=CARTESIAN_POINT('Origin',(64.0125,-41.025,30.));
#1583=CARTESIAN_POINT('Origin',(-58.7125,-40.425,14.));
#1584=CARTESIAN_POINT('Origin',(-59.3125,-41.025,30.));
#1585=CARTESIAN_POINT('Origin',(-58.7125,40.725,14.));
#1586=CARTESIAN_POINT('Origin',(64.0125,-7.02500000000001,17.));
#1587=CARTESIAN_POINT('',(54.0125,-6.02500000000001,17.));
#1588=CARTESIAN_POINT('',(64.0125,-6.02500000000001,17.));
#1589=CARTESIAN_POINT('',(64.0125,-6.02500000000001,17.));
#1590=CARTESIAN_POINT('',(54.0125,7.97499999999999,17.));
#1591=CARTESIAN_POINT('',(54.0125,14.5,17.));
#1592=CARTESIAN_POINT('',(64.0125,7.97499999999999,17.));
#1593=CARTESIAN_POINT('',(64.0125,7.97499999999999,17.));
#1594=CARTESIAN_POINT('',(64.0125,-26.525,17.));
#1595=CARTESIAN_POINT('Origin',(64.0125,7.97499999999999,18.));
#1596=CARTESIAN_POINT('',(54.0125,7.97499999999999,9.));
#1597=CARTESIAN_POINT('',(54.0125,7.975,9.));
#1598=CARTESIAN_POINT('',(64.0125,7.97499999999999,9.));
#1599=CARTESIAN_POINT('',(64.0125,7.97499999999999,9.));
#1600=CARTESIAN_POINT('',(64.0125,7.97499999999999,9.));
#1601=CARTESIAN_POINT('Origin',(64.0125,8.97499999999999,9.));
#1602=CARTESIAN_POINT('',(64.0125,-6.02500000000001,9.));
#1603=CARTESIAN_POINT('',(54.0125,-6.02500000000001,9.));
#1604=CARTESIAN_POINT('',(64.0125,-6.02500000000001,9.));
#1605=CARTESIAN_POINT('',(64.0125,-18.525,9.));
#1606=CARTESIAN_POINT('',(54.0125,22.5,9.));
#1607=CARTESIAN_POINT('Origin',(64.0125,-6.02500000000001,8.));
#1608=CARTESIAN_POINT('',(64.0125,-6.02500000000001,4.));
#1609=CARTESIAN_POINT('',(54.0125,-6.02500000000001,4.));
#1610=CARTESIAN_POINT('Origin',(-43.9995,25.755,4.05));
#1611=CARTESIAN_POINT('',(-41.9995,25.755,4.05));
#1612=CARTESIAN_POINT('Origin',(-43.9995,25.755,4.05));
#1613=CARTESIAN_POINT('Origin',(43.9995,-26.245,4.05));
#1614=CARTESIAN_POINT('',(45.9995,-26.245,4.05));
#1615=CARTESIAN_POINT('Origin',(43.9995,-26.245,4.05));
#1616=CARTESIAN_POINT('Origin',(43.9995,25.755,4.05));
#1617=CARTESIAN_POINT('',(45.9995,25.755,4.05));
#1618=CARTESIAN_POINT('Origin',(43.9995,25.755,4.05));
#1619=CARTESIAN_POINT('Origin',(-43.9995,-26.245,4.05));
#1620=CARTESIAN_POINT('',(-41.9995,-26.245,4.05));
#1621=CARTESIAN_POINT('Origin',(-43.9995,-26.245,4.05));
#1622=CARTESIAN_POINT('Origin',(-43.9995,-26.245,10.));
#1623=CARTESIAN_POINT('',(-41.9995,-26.245,10.));
#1624=CARTESIAN_POINT('Origin',(-43.9995,-26.245,10.));
#1625=CARTESIAN_POINT('',(-41.9995,-26.245,10.));
#1626=CARTESIAN_POINT('Origin',(43.9995,-26.245,10.));
#1627=CARTESIAN_POINT('',(45.9995,-26.245,10.));
#1628=CARTESIAN_POINT('Origin',(43.9995,-26.245,10.));
#1629=CARTESIAN_POINT('',(45.9995,-26.245,10.));
#1630=CARTESIAN_POINT('Origin',(43.9995,25.755,10.));
#1631=CARTESIAN_POINT('',(45.9995,25.755,10.));
#1632=CARTESIAN_POINT('Origin',(43.9995,25.755,10.));
#1633=CARTESIAN_POINT('',(45.9995,25.755,10.));
#1634=CARTESIAN_POINT('Origin',(-43.9995,25.755,10.));
#1635=CARTESIAN_POINT('',(-41.9995,25.755,10.));
#1636=CARTESIAN_POINT('Origin',(-43.9995,25.755,10.));
#1637=CARTESIAN_POINT('',(-41.9995,25.755,10.));
#1638=CARTESIAN_POINT('Origin',(43.9995,-26.245,0.));
#1639=CARTESIAN_POINT('',(47.9995,-26.245,10.));
#1640=CARTESIAN_POINT('Origin',(43.9995,-26.245,10.));
#1641=CARTESIAN_POINT('',(47.9995,-26.245,0.));
#1642=CARTESIAN_POINT('',(47.9995,-26.245,0.));
#1643=CARTESIAN_POINT('Origin',(43.9995,-26.245,0.));
#1644=CARTESIAN_POINT('Origin',(43.9995,-26.245,10.));
#1645=CARTESIAN_POINT('Origin',(-43.9995,25.755,0.));
#1646=CARTESIAN_POINT('',(-39.9995,25.755,10.));
#1647=CARTESIAN_POINT('Origin',(-43.9995,25.755,10.));
#1648=CARTESIAN_POINT('',(-39.9995,25.755,0.));
#1649=CARTESIAN_POINT('',(-39.9995,25.755,0.));
#1650=CARTESIAN_POINT('Origin',(-43.9995,25.755,0.));
#1651=CARTESIAN_POINT('Origin',(-43.9995,25.755,10.));
#1652=CARTESIAN_POINT('Origin',(-43.9995,-26.245,0.));
#1653=CARTESIAN_POINT('',(-39.9995,-26.245,10.));
#1654=CARTESIAN_POINT('Origin',(-43.9995,-26.245,10.));
#1655=CARTESIAN_POINT('',(-39.9995,-26.245,0.));
#1656=CARTESIAN_POINT('',(-39.9995,-26.245,0.));
#1657=CARTESIAN_POINT('Origin',(-43.9995,-26.245,0.));
#1658=CARTESIAN_POINT('Origin',(-43.9995,-26.245,10.));
#1659=CARTESIAN_POINT('Origin',(43.9995,25.755,0.));
#1660=CARTESIAN_POINT('',(47.9995,25.755,10.));
#1661=CARTESIAN_POINT('Origin',(43.9995,25.755,10.));
#1662=CARTESIAN_POINT('',(47.9995,25.755,0.));
#1663=CARTESIAN_POINT('',(47.9995,25.755,0.));
#1664=CARTESIAN_POINT('Origin',(43.9995,25.755,0.));
#1665=CARTESIAN_POINT('Origin',(43.9995,25.755,10.));
#1666=CARTESIAN_POINT('Origin',(0.,0.,0.));
#1667=CARTESIAN_POINT('',(54.0125,-36.025,0.));
#1668=CARTESIAN_POINT('',(-54.0125,-36.025,0.));
#1669=CARTESIAN_POINT('',(54.0125,-36.025,0.));
#1670=CARTESIAN_POINT('',(54.0125,36.025,0.));
#1671=CARTESIAN_POINT('',(54.0125,36.025,0.));
#1672=CARTESIAN_POINT('',(-54.0125,36.025,0.));
#1673=CARTESIAN_POINT('',(-54.0125,36.025,0.));
#1674=CARTESIAN_POINT('',(-54.0125,-36.025,0.));
#1675=CARTESIAN_POINT('Origin',(0.,0.,-10.));
#1676=CARTESIAN_POINT('',(-64.0125,46.025,-10.));
#1677=CARTESIAN_POINT('',(64.0125,46.025,-10.));
#1678=CARTESIAN_POINT('',(-64.0125,46.025,-10.));
#1679=CARTESIAN_POINT('',(64.0125,-46.025,-10.));
#1680=CARTESIAN_POINT('',(64.0125,46.025,-10.));
#1681=CARTESIAN_POINT('',(-64.0125,-46.025,-10.));
#1682=CARTESIAN_POINT('',(64.0125,-46.025,-10.));
#1683=CARTESIAN_POINT('',(-64.0125,-46.025,-10.));
#1684=CARTESIAN_POINT('Origin',(54.0125,36.025,0.));
#1685=CARTESIAN_POINT('',(54.0125,-36.025,0.));
#1686=CARTESIAN_POINT('',(54.0125,36.025,0.));
#1687=CARTESIAN_POINT('Origin',(-54.0125,36.025,0.));
#1688=CARTESIAN_POINT('',(-54.0125,36.025,0.));
#1689=CARTESIAN_POINT('Origin',(-54.0125,-36.025,0.));
#1690=CARTESIAN_POINT('',(-54.0125,-36.025,0.));
#1691=CARTESIAN_POINT('Origin',(54.0125,-36.025,0.));
#1692=CARTESIAN_POINT('Origin',(64.0125,-46.025,0.));
#1693=CARTESIAN_POINT('',(64.0125,-46.025,0.));
#1694=CARTESIAN_POINT('',(64.0125,46.025,0.));
#1695=CARTESIAN_POINT('Origin',(-64.0125,-46.025,0.));
#1696=CARTESIAN_POINT('',(-64.0125,-46.025,0.));
#1697=CARTESIAN_POINT('Origin',(-64.0125,46.025,0.));
#1698=CARTESIAN_POINT('',(-64.0125,46.025,0.));
#1699=CARTESIAN_POINT('Origin',(64.0125,46.025,0.));
#1700=UNCERTAINTY_MEASURE_WITH_UNIT(LENGTH_MEASURE(0.01),#1704,
'DISTANCE_ACCURACY_VALUE',
'Maximum model space distance between geometric entities at asserted c
onnectivities');
#1701=UNCERTAINTY_MEASURE_WITH_UNIT(LENGTH_MEASURE(0.01),#1704,
'DISTANCE_ACCURACY_VALUE',
'Maximum model space distance between geometric entities at asserted c
onnectivities');
#1702=(
GEOMETRIC_REPRESENTATION_CONTEXT(3)
GLOBAL_UNCERTAINTY_ASSIGNED_CONTEXT((#1700))
GLOBAL_UNIT_ASSIGNED_CONTEXT((#1704,#1706,#1707))
REPRESENTATION_CONTEXT('','3D')
);
#1703=(
GEOMETRIC_REPRESENTATION_CONTEXT(3)
GLOBAL_UNCERTAINTY_ASSIGNED_CONTEXT((#1701))
GLOBAL_UNIT_ASSIGNED_CONTEXT((#1704,#1706,#1707))
REPRESENTATION_CONTEXT('','3D')
);
#1704=(
LENGTH_UNIT()
NAMED_UNIT(*)
SI_UNIT(.MILLI.,.METRE.)
);
#1705=(
LENGTH_UNIT()
NAMED_UNIT(*)
SI_UNIT($,.METRE.)
);
#1706=(
NAMED_UNIT(*)
PLANE_ANGLE_UNIT()
SI_UNIT($,.RADIAN.)
);
#1707=(
NAMED_UNIT(*)
SI_UNIT($,.STERADIAN.)
SOLID_ANGLE_UNIT()
);
#1708=SHAPE_DEFINITION_REPRESENTATION(#1709,#1710);
#1709=PRODUCT_DEFINITION_SHAPE('',$,#1712);
#1710=SHAPE_REPRESENTATION('',(#1020),#1702);
#1711=PRODUCT_DEFINITION_CONTEXT('part definition',#1716,'design');
#1712=PRODUCT_DEFINITION('Crashsense Mark-1 Enclosure Part-1',
'Crashsense Mark-1 Enclosure Part-1 v24',#1713,#1711);
#1713=PRODUCT_DEFINITION_FORMATION('',$,#1718);
#1714=PRODUCT_RELATED_PRODUCT_CATEGORY(
'Crashsense Mark-1 Enclosure Part-1 v24',
'Crashsense Mark-1 Enclosure Part-1 v24',(#1718));
#1715=APPLICATION_PROTOCOL_DEFINITION('international standard',
'automotive_design',2009,#1716);
#1716=APPLICATION_CONTEXT(
'Core Data for Automotive Mechanical Design Process');
#1717=PRODUCT_CONTEXT('part definition',#1716,'mechanical');
#1718=PRODUCT('Crashsense Mark-1 Enclosure Part-1',
'Crashsense Mark-1 Enclosure Part-1 v24',$,(#1717));
#1719=PRESENTATION_STYLE_ASSIGNMENT((#1720));
#1720=SURFACE_STYLE_USAGE(.BOTH.,#1721);
#1721=SURFACE_SIDE_STYLE('',(#1722));
#1722=SURFACE_STYLE_FILL_AREA(#1723);
#1723=FILL_AREA_STYLE('Plastic - Matte (White)',(#1724));
#1724=FILL_AREA_STYLE_COLOUR('Plastic - Matte (White)',#1725);
#1725=COLOUR_RGB('Plastic - Matte (White)',0.964705882352941,0.964705882352941,
0.952941176470588);
ENDSEC;
END-ISO-10303-21;
