ISO-10303-21;
HEADER;
/* Generated by software containing ST-Developer
 * from STEP Tools, Inc. (www.steptools.com) 
 */

FILE_DESCRIPTION(
/* description */ (''),
/* implementation_level */ '2;1');

FILE_NAME(
/* name */ 'Crashsense Mark-1 LID v10.step',
/* time_stamp */ '2026-08-02T12:38:18+05:30',
/* author */ (''),
/* organization */ (''),
/* preprocessor_version */ 'ST-DEVELOPER v20.1',
/* originating_system */ 'Autodesk Translation Framework v15.8.0.0',
/* authorisation */ '');

FILE_SCHEMA (('AUTOMOTIVE_DESIGN { 1 0 10303 214 3 1 1 }'));
ENDSEC;

DATA;
#10=MECHANICAL_DESIGN_GEOMETRIC_PRESENTATION_REPRESENTATION('',(#23,#24),
#1434);
#11=SHAPE_REPRESENTATION_RELATIONSHIP('SRR','None',#1441,#12);
#12=ADVANCED_BREP_SHAPE_REPRESENTATION('',(#25,#26),#1433);
#13=ELLIPSE('',#911,2.01804359360378,1.49999999999999);
#14=ELLIPSE('',#912,2.01804362051832,1.49999999999999);
#15=ELLIPSE('',#914,2.01804362051834,1.5);
#16=ELLIPSE('',#915,2.01804359360379,1.5);
#17=ELLIPSE('',#918,2.01804359360379,1.5);
#18=ELLIPSE('',#920,2.01804362051834,1.5);
#19=ELLIPSE('',#929,2.01804359360378,1.49999999999999);
#20=ELLIPSE('',#930,2.01804359360378,1.49999999999999);
#21=ELLIPSE('',#932,2.01804362051832,1.49999999999999);
#22=ELLIPSE('',#933,2.01804362051832,1.49999999999999);
#23=STYLED_ITEM('',(#1450),#25);
#24=STYLED_ITEM('',(#1450),#26);
#25=MANIFOLD_SOLID_BREP('Body1',#855);
#26=MANIFOLD_SOLID_BREP('Body2',#856);
#27=CYLINDRICAL_SURFACE('',#884,1.5);
#28=CYLINDRICAL_SURFACE('',#889,2.65000000000001);
#29=CYLINDRICAL_SURFACE('',#893,2.65000000000001);
#30=CYLINDRICAL_SURFACE('',#897,2.65000000000001);
#31=CYLINDRICAL_SURFACE('',#900,2.65000000000001);
#32=CYLINDRICAL_SURFACE('',#901,1.49999999999999);
#33=CYLINDRICAL_SURFACE('',#902,1.5);
#34=CYLINDRICAL_SURFACE('',#903,1.49999999999999);
#35=CYLINDRICAL_SURFACE('',#909,1.49999999999999);
#36=CYLINDRICAL_SURFACE('',#913,1.5);
#37=CYLINDRICAL_SURFACE('',#917,1.5);
#38=CYLINDRICAL_SURFACE('',#942,1.49999999999999);
#39=FACE_BOUND('',#122,.T.);
#40=FACE_BOUND('',#123,.T.);
#41=FACE_BOUND('',#124,.T.);
#42=FACE_BOUND('',#125,.T.);
#43=FACE_BOUND('',#129,.T.);
#44=FACE_BOUND('',#130,.T.);
#45=FACE_BOUND('',#131,.T.);
#46=FACE_BOUND('',#132,.T.);
#47=FACE_BOUND('',#137,.T.);
#48=FACE_BOUND('',#140,.T.);
#49=FACE_BOUND('',#143,.T.);
#50=FACE_BOUND('',#146,.T.);
#51=FACE_BOUND('',#152,.T.);
#52=FACE_BOUND('',#159,.T.);
#53=CIRCLE('',#871,1.5);
#54=CIRCLE('',#872,1.5);
#55=CIRCLE('',#873,1.49999999999999);
#56=CIRCLE('',#874,1.49999999999999);
#57=CIRCLE('',#878,2.65000000000001);
#58=CIRCLE('',#879,2.65000000000001);
#59=CIRCLE('',#880,2.65000000000001);
#60=CIRCLE('',#881,2.65000000000001);
#61=CIRCLE('',#885,1.5);
#62=CIRCLE('',#887,2.65000000000001);
#63=CIRCLE('',#888,1.49999999999999);
#64=CIRCLE('',#891,2.65000000000001);
#65=CIRCLE('',#892,1.49999999999999);
#66=CIRCLE('',#895,2.65000000000001);
#67=CIRCLE('',#896,1.5);
#68=CIRCLE('',#899,2.65000000000001);
#69=CIRCLE('',#905,1.5);
#70=CIRCLE('',#906,1.5);
#71=CIRCLE('',#907,1.49999999999999);
#72=CIRCLE('',#908,1.49999999999999);
#73=CIRCLE('',#910,1.49999999999999);
#74=CIRCLE('',#916,1.5);
#75=CIRCLE('',#919,1.5);
#76=CIRCLE('',#924,1.49999999999999);
#77=FACE_OUTER_BOUND('',#121,.T.);
#78=FACE_OUTER_BOUND('',#126,.T.);
#79=FACE_OUTER_BOUND('',#127,.T.);
#80=FACE_OUTER_BOUND('',#128,.T.);
#81=FACE_OUTER_BOUND('',#133,.T.);
#82=FACE_OUTER_BOUND('',#134,.T.);
#83=FACE_OUTER_BOUND('',#135,.T.);
#84=FACE_OUTER_BOUND('',#136,.T.);
#85=FACE_OUTER_BOUND('',#138,.T.);
#86=FACE_OUTER_BOUND('',#139,.T.);
#87=FACE_OUTER_BOUND('',#141,.T.);
#88=FACE_OUTER_BOUND('',#142,.T.);
#89=FACE_OUTER_BOUND('',#144,.T.);
#90=FACE_OUTER_BOUND('',#145,.T.);
#91=FACE_OUTER_BOUND('',#147,.T.);
#92=FACE_OUTER_BOUND('',#148,.T.);
#93=FACE_OUTER_BOUND('',#149,.T.);
#94=FACE_OUTER_BOUND('',#150,.T.);
#95=FACE_OUTER_BOUND('',#151,.T.);
#96=FACE_OUTER_BOUND('',#153,.T.);
#97=FACE_OUTER_BOUND('',#154,.T.);
#98=FACE_OUTER_BOUND('',#155,.T.);
#99=FACE_OUTER_BOUND('',#156,.T.);
#100=FACE_OUTER_BOUND('',#157,.T.);
#101=FACE_OUTER_BOUND('',#158,.T.);
#102=FACE_OUTER_BOUND('',#160,.T.);
#103=FACE_OUTER_BOUND('',#161,.T.);
#104=FACE_OUTER_BOUND('',#162,.T.);
#105=FACE_OUTER_BOUND('',#163,.T.);
#106=FACE_OUTER_BOUND('',#164,.T.);
#107=FACE_OUTER_BOUND('',#165,.T.);
#108=FACE_OUTER_BOUND('',#166,.T.);
#109=FACE_OUTER_BOUND('',#167,.T.);
#110=FACE_OUTER_BOUND('',#168,.T.);
#111=FACE_OUTER_BOUND('',#169,.T.);
#112=FACE_OUTER_BOUND('',#170,.T.);
#113=FACE_OUTER_BOUND('',#171,.T.);
#114=FACE_OUTER_BOUND('',#172,.T.);
#115=FACE_OUTER_BOUND('',#173,.T.);
#116=FACE_OUTER_BOUND('',#174,.T.);
#117=FACE_OUTER_BOUND('',#175,.T.);
#118=FACE_OUTER_BOUND('',#176,.T.);
#119=FACE_OUTER_BOUND('',#177,.T.);
#120=FACE_OUTER_BOUND('',#178,.T.);
#121=EDGE_LOOP('',(#543,#544,#545,#546));
#122=EDGE_LOOP('',(#547));
#123=EDGE_LOOP('',(#548));
#124=EDGE_LOOP('',(#549));
#125=EDGE_LOOP('',(#550));
#126=EDGE_LOOP('',(#551,#552,#553,#554));
#127=EDGE_LOOP('',(#555,#556,#557,#558));
#128=EDGE_LOOP('',(#559,#560,#561,#562));
#129=EDGE_LOOP('',(#563));
#130=EDGE_LOOP('',(#564));
#131=EDGE_LOOP('',(#565));
#132=EDGE_LOOP('',(#566));
#133=EDGE_LOOP('',(#567,#568,#569,#570));
#134=EDGE_LOOP('',(#571,#572,#573,#574));
#135=EDGE_LOOP('',(#575,#576,#577,#578));
#136=EDGE_LOOP('',(#579));
#137=EDGE_LOOP('',(#580));
#138=EDGE_LOOP('',(#581,#582,#583,#584));
#139=EDGE_LOOP('',(#585));
#140=EDGE_LOOP('',(#586));
#141=EDGE_LOOP('',(#587,#588,#589,#590));
#142=EDGE_LOOP('',(#591));
#143=EDGE_LOOP('',(#592));
#144=EDGE_LOOP('',(#593,#594,#595,#596));
#145=EDGE_LOOP('',(#597));
#146=EDGE_LOOP('',(#598));
#147=EDGE_LOOP('',(#599,#600,#601,#602));
#148=EDGE_LOOP('',(#603,#604,#605,#606));
#149=EDGE_LOOP('',(#607,#608,#609,#610));
#150=EDGE_LOOP('',(#611,#612,#613,#614));
#151=EDGE_LOOP('',(#615,#616,#617,#618,#619,#620,#621,#622,#623,#624));
#152=EDGE_LOOP('',(#625,#626,#627,#628));
#153=EDGE_LOOP('',(#629,#630,#631,#632,#633,#634,#635,#636));
#154=EDGE_LOOP('',(#637,#638,#639,#640,#641,#642,#643,#644));
#155=EDGE_LOOP('',(#645,#646,#647,#648,#649,#650,#651,#652,#653,#654));
#156=EDGE_LOOP('',(#655,#656,#657,#658));
#157=EDGE_LOOP('',(#659,#660,#661,#662));
#158=EDGE_LOOP('',(#663,#664,#665,#666,#667,#668,#669,#670,#671,#672));
#159=EDGE_LOOP('',(#673,#674,#675,#676));
#160=EDGE_LOOP('',(#677,#678,#679));
#161=EDGE_LOOP('',(#680,#681,#682));
#162=EDGE_LOOP('',(#683,#684,#685,#686));
#163=EDGE_LOOP('',(#687,#688,#689,#690,#691,#692,#693,#694));
#164=EDGE_LOOP('',(#695,#696,#697,#698,#699,#700,#701,#702));
#165=EDGE_LOOP('',(#703,#704,#705,#706));
#166=EDGE_LOOP('',(#707,#708,#709,#710));
#167=EDGE_LOOP('',(#711,#712,#713,#714));
#168=EDGE_LOOP('',(#715,#716,#717,#718,#719,#720,#721));
#169=EDGE_LOOP('',(#722,#723,#724,#725,#726,#727,#728));
#170=EDGE_LOOP('',(#729,#730,#731,#732));
#171=EDGE_LOOP('',(#733,#734,#735,#736));
#172=EDGE_LOOP('',(#737,#738,#739,#740));
#173=EDGE_LOOP('',(#741,#742,#743,#744,#745,#746,#747,#748,#749,#750,#751,
#752));
#174=EDGE_LOOP('',(#753,#754,#755,#756));
#175=EDGE_LOOP('',(#757,#758,#759,#760));
#176=EDGE_LOOP('',(#761,#762,#763,#764,#765,#766,#767,#768,#769,#770));
#177=EDGE_LOOP('',(#771,#772,#773,#774));
#178=EDGE_LOOP('',(#775,#776,#777,#778));
#179=LINE('',#1194,#263);
#180=LINE('',#1196,#264);
#181=LINE('',#1198,#265);
#182=LINE('',#1199,#266);
#183=LINE('',#1210,#267);
#184=LINE('',#1212,#268);
#185=LINE('',#1213,#269);
#186=LINE('',#1216,#270);
#187=LINE('',#1217,#271);
#188=LINE('',#1220,#272);
#189=LINE('',#1221,#273);
#190=LINE('',#1231,#274);
#191=LINE('',#1235,#275);
#192=LINE('',#1243,#276);
#193=LINE('',#1250,#277);
#194=LINE('',#1257,#278);
#195=LINE('',#1262,#279);
#196=LINE('',#1264,#280);
#197=LINE('',#1266,#281);
#198=LINE('',#1268,#282);
#199=LINE('',#1272,#283);
#200=LINE('',#1276,#284);
#201=LINE('',#1280,#285);
#202=LINE('',#1284,#286);
#203=LINE('',#1288,#287);
#204=LINE('',#1289,#288);
#205=LINE('',#1292,#289);
#206=LINE('',#1294,#290);
#207=LINE('',#1296,#291);
#208=LINE('',#1297,#292);
#209=LINE('',#1300,#293);
#210=LINE('',#1304,#294);
#211=LINE('',#1308,#295);
#212=LINE('',#1311,#296);
#213=LINE('',#1314,#297);
#214=LINE('',#1318,#298);
#215=LINE('',#1322,#299);
#216=LINE('',#1325,#300);
#217=LINE('',#1331,#301);
#218=LINE('',#1334,#302);
#219=LINE('',#1336,#303);
#220=LINE('',#1337,#304);
#221=LINE('',#1339,#305);
#222=LINE('',#1342,#306);
#223=LINE('',#1343,#307);
#224=LINE('',#1346,#308);
#225=LINE('',#1347,#309);
#226=LINE('',#1350,#310);
#227=LINE('',#1352,#311);
#228=LINE('',#1354,#312);
#229=LINE('',#1357,#313);
#230=LINE('',#1358,#314);
#231=LINE('',#1361,#315);
#232=LINE('',#1363,#316);
#233=LINE('',#1365,#317);
#234=LINE('',#1366,#318);
#235=LINE('',#1369,#319);
#236=LINE('',#1370,#320);
#237=LINE('',#1373,#321);
#238=LINE('',#1374,#322);
#239=LINE('',#1383,#323);
#240=LINE('',#1385,#324);
#241=LINE('',#1386,#325);
#242=LINE('',#1387,#326);
#243=LINE('',#1394,#327);
#244=LINE('',#1395,#328);
#245=LINE('',#1397,#329);
#246=LINE('',#1399,#330);
#247=LINE('',#1400,#331);
#248=LINE('',#1402,#332);
#249=LINE('',#1403,#333);
#250=LINE('',#1405,#334);
#251=LINE('',#1407,#335);
#252=LINE('',#1409,#336);
#253=LINE('',#1410,#337);
#254=LINE('',#1413,#338);
#255=LINE('',#1414,#339);
#256=LINE('',#1417,#340);
#257=LINE('',#1419,#341);
#258=LINE('',#1421,#342);
#259=LINE('',#1423,#343);
#260=LINE('',#1424,#344);
#261=LINE('',#1426,#345);
#262=LINE('',#1429,#346);
#263=VECTOR('',#952,10.);
#264=VECTOR('',#953,10.);
#265=VECTOR('',#954,10.);
#266=VECTOR('',#955,10.);
#267=VECTOR('',#966,10.);
#268=VECTOR('',#967,10.);
#269=VECTOR('',#968,10.);
#270=VECTOR('',#971,10.);
#271=VECTOR('',#972,10.);
#272=VECTOR('',#975,10.);
#273=VECTOR('',#976,10.);
#274=VECTOR('',#987,10.);
#275=VECTOR('',#992,1.5);
#276=VECTOR('',#1003,2.65000000000001);
#277=VECTOR('',#1012,2.65000000000001);
#278=VECTOR('',#1021,2.65000000000001);
#279=VECTOR('',#1028,2.65000000000001);
#280=VECTOR('',#1031,1.49999999999999);
#281=VECTOR('',#1034,1.5);
#282=VECTOR('',#1037,1.49999999999999);
#283=VECTOR('',#1040,10.);
#284=VECTOR('',#1043,10.);
#285=VECTOR('',#1046,10.);
#286=VECTOR('',#1049,10.);
#287=VECTOR('',#1052,10.);
#288=VECTOR('',#1053,10.);
#289=VECTOR('',#1054,10.);
#290=VECTOR('',#1055,10.);
#291=VECTOR('',#1056,10.);
#292=VECTOR('',#1057,10.);
#293=VECTOR('',#1060,10.);
#294=VECTOR('',#1063,10.);
#295=VECTOR('',#1066,10.);
#296=VECTOR('',#1069,10.);
#297=VECTOR('',#1072,10.);
#298=VECTOR('',#1075,10.);
#299=VECTOR('',#1078,10.);
#300=VECTOR('',#1081,10.);
#301=VECTOR('',#1086,10.);
#302=VECTOR('',#1089,10.);
#303=VECTOR('',#1090,1.5);
#304=VECTOR('',#1091,10.);
#305=VECTOR('',#1092,10.);
#306=VECTOR('',#1097,10.);
#307=VECTOR('',#1098,10.);
#308=VECTOR('',#1101,10.);
#309=VECTOR('',#1102,10.);
#310=VECTOR('',#1105,10.);
#311=VECTOR('',#1106,10.);
#312=VECTOR('',#1107,10.);
#313=VECTOR('',#1110,10.);
#314=VECTOR('',#1111,10.);
#315=VECTOR('',#1112,10.);
#316=VECTOR('',#1113,10.);
#317=VECTOR('',#1114,10.);
#318=VECTOR('',#1115,10.);
#319=VECTOR('',#1118,10.);
#320=VECTOR('',#1119,10.);
#321=VECTOR('',#1122,10.);
#322=VECTOR('',#1123,10.);
#323=VECTOR('',#1132,10.);
#324=VECTOR('',#1133,10.);
#325=VECTOR('',#1134,10.);
#326=VECTOR('',#1135,10.);
#327=VECTOR('',#1142,10.);
#328=VECTOR('',#1143,10.);
#329=VECTOR('',#1146,10.);
#330=VECTOR('',#1149,10.);
#331=VECTOR('',#1150,10.);
#332=VECTOR('',#1153,10.);
#333=VECTOR('',#1154,10.);
#334=VECTOR('',#1157,10.);
#335=VECTOR('',#1158,10.);
#336=VECTOR('',#1159,10.);
#337=VECTOR('',#1160,10.);
#338=VECTOR('',#1163,10.);
#339=VECTOR('',#1164,10.);
#340=VECTOR('',#1169,10.);
#341=VECTOR('',#1172,10.);
#342=VECTOR('',#1175,1.49999999999999);
#343=VECTOR('',#1178,10.);
#344=VECTOR('',#1179,10.);
#345=VECTOR('',#1182,10.);
#346=VECTOR('',#1187,10.);
#347=VERTEX_POINT('',#1192);
#348=VERTEX_POINT('',#1193);
#349=VERTEX_POINT('',#1195);
#350=VERTEX_POINT('',#1197);
#351=VERTEX_POINT('',#1200);
#352=VERTEX_POINT('',#1202);
#353=VERTEX_POINT('',#1204);
#354=VERTEX_POINT('',#1206);
#355=VERTEX_POINT('',#1209);
#356=VERTEX_POINT('',#1211);
#357=VERTEX_POINT('',#1215);
#358=VERTEX_POINT('',#1219);
#359=VERTEX_POINT('',#1222);
#360=VERTEX_POINT('',#1224);
#361=VERTEX_POINT('',#1226);
#362=VERTEX_POINT('',#1228);
#363=VERTEX_POINT('',#1234);
#364=VERTEX_POINT('',#1238);
#365=VERTEX_POINT('',#1240);
#366=VERTEX_POINT('',#1245);
#367=VERTEX_POINT('',#1247);
#368=VERTEX_POINT('',#1252);
#369=VERTEX_POINT('',#1254);
#370=VERTEX_POINT('',#1259);
#371=VERTEX_POINT('',#1270);
#372=VERTEX_POINT('',#1271);
#373=VERTEX_POINT('',#1273);
#374=VERTEX_POINT('',#1275);
#375=VERTEX_POINT('',#1277);
#376=VERTEX_POINT('',#1279);
#377=VERTEX_POINT('',#1281);
#378=VERTEX_POINT('',#1283);
#379=VERTEX_POINT('',#1285);
#380=VERTEX_POINT('',#1287);
#381=VERTEX_POINT('',#1290);
#382=VERTEX_POINT('',#1291);
#383=VERTEX_POINT('',#1293);
#384=VERTEX_POINT('',#1295);
#385=VERTEX_POINT('',#1299);
#386=VERTEX_POINT('',#1301);
#387=VERTEX_POINT('',#1303);
#388=VERTEX_POINT('',#1305);
#389=VERTEX_POINT('',#1307);
#390=VERTEX_POINT('',#1309);
#391=VERTEX_POINT('',#1313);
#392=VERTEX_POINT('',#1315);
#393=VERTEX_POINT('',#1317);
#394=VERTEX_POINT('',#1319);
#395=VERTEX_POINT('',#1321);
#396=VERTEX_POINT('',#1323);
#397=VERTEX_POINT('',#1327);
#398=VERTEX_POINT('',#1328);
#399=VERTEX_POINT('',#1330);
#400=VERTEX_POINT('',#1332);
#401=VERTEX_POINT('',#1335);
#402=VERTEX_POINT('',#1338);
#403=VERTEX_POINT('',#1345);
#404=VERTEX_POINT('',#1349);
#405=VERTEX_POINT('',#1351);
#406=VERTEX_POINT('',#1353);
#407=VERTEX_POINT('',#1355);
#408=VERTEX_POINT('',#1359);
#409=VERTEX_POINT('',#1360);
#410=VERTEX_POINT('',#1362);
#411=VERTEX_POINT('',#1364);
#412=VERTEX_POINT('',#1368);
#413=VERTEX_POINT('',#1372);
#414=VERTEX_POINT('',#1377);
#415=VERTEX_POINT('',#1378);
#416=VERTEX_POINT('',#1380);
#417=VERTEX_POINT('',#1382);
#418=VERTEX_POINT('',#1384);
#419=VERTEX_POINT('',#1389);
#420=VERTEX_POINT('',#1390);
#421=VERTEX_POINT('',#1393);
#422=VERTEX_POINT('',#1406);
#423=VERTEX_POINT('',#1408);
#424=VERTEX_POINT('',#1412);
#425=EDGE_CURVE('',#347,#348,#179,.T.);
#426=EDGE_CURVE('',#349,#347,#180,.T.);
#427=EDGE_CURVE('',#350,#349,#181,.T.);
#428=EDGE_CURVE('',#348,#350,#182,.T.);
#429=EDGE_CURVE('',#351,#351,#53,.T.);
#430=EDGE_CURVE('',#352,#352,#54,.T.);
#431=EDGE_CURVE('',#353,#353,#55,.T.);
#432=EDGE_CURVE('',#354,#354,#56,.T.);
#433=EDGE_CURVE('',#348,#355,#183,.T.);
#434=EDGE_CURVE('',#356,#355,#184,.T.);
#435=EDGE_CURVE('',#347,#356,#185,.T.);
#436=EDGE_CURVE('',#350,#357,#186,.T.);
#437=EDGE_CURVE('',#355,#357,#187,.T.);
#438=EDGE_CURVE('',#357,#358,#188,.T.);
#439=EDGE_CURVE('',#358,#356,#189,.T.);
#440=EDGE_CURVE('',#359,#359,#57,.T.);
#441=EDGE_CURVE('',#360,#360,#58,.T.);
#442=EDGE_CURVE('',#361,#361,#59,.T.);
#443=EDGE_CURVE('',#362,#362,#60,.T.);
#444=EDGE_CURVE('',#349,#358,#190,.T.);
#445=EDGE_CURVE('',#352,#363,#191,.T.);
#446=EDGE_CURVE('',#363,#363,#61,.T.);
#447=EDGE_CURVE('',#364,#364,#62,.T.);
#448=EDGE_CURVE('',#365,#365,#63,.T.);
#449=EDGE_CURVE('',#359,#364,#192,.T.);
#450=EDGE_CURVE('',#366,#366,#64,.T.);
#451=EDGE_CURVE('',#367,#367,#65,.T.);
#452=EDGE_CURVE('',#360,#366,#193,.T.);
#453=EDGE_CURVE('',#368,#368,#66,.T.);
#454=EDGE_CURVE('',#369,#369,#67,.T.);
#455=EDGE_CURVE('',#361,#368,#194,.T.);
#456=EDGE_CURVE('',#370,#370,#68,.T.);
#457=EDGE_CURVE('',#362,#370,#195,.T.);
#458=EDGE_CURVE('',#365,#354,#196,.T.);
#459=EDGE_CURVE('',#369,#351,#197,.T.);
#460=EDGE_CURVE('',#353,#367,#198,.T.);
#461=EDGE_CURVE('',#371,#372,#199,.T.);
#462=EDGE_CURVE('',#373,#372,#69,.T.);
#463=EDGE_CURVE('',#373,#374,#200,.T.);
#464=EDGE_CURVE('',#375,#374,#70,.T.);
#465=EDGE_CURVE('',#375,#376,#201,.T.);
#466=EDGE_CURVE('',#377,#376,#71,.T.);
#467=EDGE_CURVE('',#377,#378,#202,.T.);
#468=EDGE_CURVE('',#379,#378,#72,.T.);
#469=EDGE_CURVE('',#379,#380,#203,.T.);
#470=EDGE_CURVE('',#371,#380,#204,.T.);
#471=EDGE_CURVE('',#381,#382,#205,.T.);
#472=EDGE_CURVE('',#382,#383,#206,.T.);
#473=EDGE_CURVE('',#383,#384,#207,.T.);
#474=EDGE_CURVE('',#384,#381,#208,.T.);
#475=EDGE_CURVE('',#385,#376,#209,.T.);
#476=EDGE_CURVE('',#386,#385,#73,.T.);
#477=EDGE_CURVE('',#387,#386,#210,.T.);
#478=EDGE_CURVE('',#388,#387,#13,.T.);
#479=EDGE_CURVE('',#389,#388,#211,.T.);
#480=EDGE_CURVE('',#390,#389,#14,.T.);
#481=EDGE_CURVE('',#377,#390,#212,.T.);
#482=EDGE_CURVE('',#391,#374,#213,.T.);
#483=EDGE_CURVE('',#392,#391,#15,.T.);
#484=EDGE_CURVE('',#393,#392,#214,.T.);
#485=EDGE_CURVE('',#394,#393,#16,.T.);
#486=EDGE_CURVE('',#395,#394,#215,.T.);
#487=EDGE_CURVE('',#396,#395,#74,.T.);
#488=EDGE_CURVE('',#375,#396,#216,.T.);
#489=EDGE_CURVE('',#397,#398,#17,.T.);
#490=EDGE_CURVE('',#397,#399,#217,.T.);
#491=EDGE_CURVE('',#400,#399,#75,.T.);
#492=EDGE_CURVE('',#398,#400,#218,.T.);
#493=EDGE_CURVE('',#398,#401,#219,.T.);
#494=EDGE_CURVE('',#373,#401,#220,.T.);
#495=EDGE_CURVE('',#372,#402,#221,.T.);
#496=EDGE_CURVE('',#401,#402,#18,.T.);
#497=EDGE_CURVE('',#394,#398,#222,.T.);
#498=EDGE_CURVE('',#395,#400,#223,.T.);
#499=EDGE_CURVE('',#390,#403,#224,.T.);
#500=EDGE_CURVE('',#378,#403,#225,.T.);
#501=EDGE_CURVE('',#399,#404,#226,.T.);
#502=EDGE_CURVE('',#404,#405,#227,.T.);
#503=EDGE_CURVE('',#405,#406,#228,.T.);
#504=EDGE_CURVE('',#406,#407,#76,.T.);
#505=EDGE_CURVE('',#407,#386,#229,.T.);
#506=EDGE_CURVE('',#385,#396,#230,.T.);
#507=EDGE_CURVE('',#408,#409,#231,.T.);
#508=EDGE_CURVE('',#409,#410,#232,.T.);
#509=EDGE_CURVE('',#410,#411,#233,.T.);
#510=EDGE_CURVE('',#411,#408,#234,.T.);
#511=EDGE_CURVE('',#388,#412,#235,.T.);
#512=EDGE_CURVE('',#389,#412,#236,.T.);
#513=EDGE_CURVE('',#392,#413,#237,.T.);
#514=EDGE_CURVE('',#393,#413,#238,.T.);
#515=EDGE_CURVE('',#414,#415,#19,.T.);
#516=EDGE_CURVE('',#415,#416,#20,.T.);
#517=EDGE_CURVE('',#417,#416,#239,.T.);
#518=EDGE_CURVE('',#418,#417,#240,.T.);
#519=EDGE_CURVE('',#412,#418,#241,.T.);
#520=EDGE_CURVE('',#414,#387,#242,.T.);
#521=EDGE_CURVE('',#419,#420,#21,.T.);
#522=EDGE_CURVE('',#420,#403,#22,.T.);
#523=EDGE_CURVE('',#421,#418,#243,.T.);
#524=EDGE_CURVE('',#419,#421,#244,.T.);
#525=EDGE_CURVE('',#414,#407,#245,.T.);
#526=EDGE_CURVE('',#380,#421,#246,.T.);
#527=EDGE_CURVE('',#379,#419,#247,.T.);
#528=EDGE_CURVE('',#416,#406,#248,.T.);
#529=EDGE_CURVE('',#417,#405,#249,.T.);
#530=EDGE_CURVE('',#401,#391,#250,.T.);
#531=EDGE_CURVE('',#422,#402,#251,.T.);
#532=EDGE_CURVE('',#423,#422,#252,.T.);
#533=EDGE_CURVE('',#413,#423,#253,.T.);
#534=EDGE_CURVE('',#424,#423,#254,.T.);
#535=EDGE_CURVE('',#397,#424,#255,.T.);
#536=EDGE_CURVE('',#404,#424,#256,.T.);
#537=EDGE_CURVE('',#422,#371,#257,.T.);
#538=EDGE_CURVE('',#415,#420,#258,.T.);
#539=EDGE_CURVE('',#382,#411,#259,.T.);
#540=EDGE_CURVE('',#381,#408,#260,.T.);
#541=EDGE_CURVE('',#383,#410,#261,.T.);
#542=EDGE_CURVE('',#384,#409,#262,.T.);
#543=ORIENTED_EDGE('',*,*,#425,.F.);
#544=ORIENTED_EDGE('',*,*,#426,.F.);
#545=ORIENTED_EDGE('',*,*,#427,.F.);
#546=ORIENTED_EDGE('',*,*,#428,.F.);
#547=ORIENTED_EDGE('',*,*,#429,.F.);
#548=ORIENTED_EDGE('',*,*,#430,.F.);
#549=ORIENTED_EDGE('',*,*,#431,.F.);
#550=ORIENTED_EDGE('',*,*,#432,.F.);
#551=ORIENTED_EDGE('',*,*,#425,.T.);
#552=ORIENTED_EDGE('',*,*,#433,.T.);
#553=ORIENTED_EDGE('',*,*,#434,.F.);
#554=ORIENTED_EDGE('',*,*,#435,.F.);
#555=ORIENTED_EDGE('',*,*,#428,.T.);
#556=ORIENTED_EDGE('',*,*,#436,.T.);
#557=ORIENTED_EDGE('',*,*,#437,.F.);
#558=ORIENTED_EDGE('',*,*,#433,.F.);
#559=ORIENTED_EDGE('',*,*,#437,.T.);
#560=ORIENTED_EDGE('',*,*,#438,.T.);
#561=ORIENTED_EDGE('',*,*,#439,.T.);
#562=ORIENTED_EDGE('',*,*,#434,.T.);
#563=ORIENTED_EDGE('',*,*,#440,.T.);
#564=ORIENTED_EDGE('',*,*,#441,.T.);
#565=ORIENTED_EDGE('',*,*,#442,.T.);
#566=ORIENTED_EDGE('',*,*,#443,.T.);
#567=ORIENTED_EDGE('',*,*,#427,.T.);
#568=ORIENTED_EDGE('',*,*,#444,.T.);
#569=ORIENTED_EDGE('',*,*,#438,.F.);
#570=ORIENTED_EDGE('',*,*,#436,.F.);
#571=ORIENTED_EDGE('',*,*,#426,.T.);
#572=ORIENTED_EDGE('',*,*,#435,.T.);
#573=ORIENTED_EDGE('',*,*,#439,.F.);
#574=ORIENTED_EDGE('',*,*,#444,.F.);
#575=ORIENTED_EDGE('',*,*,#430,.T.);
#576=ORIENTED_EDGE('',*,*,#445,.T.);
#577=ORIENTED_EDGE('',*,*,#446,.T.);
#578=ORIENTED_EDGE('',*,*,#445,.F.);
#579=ORIENTED_EDGE('',*,*,#447,.F.);
#580=ORIENTED_EDGE('',*,*,#448,.T.);
#581=ORIENTED_EDGE('',*,*,#440,.F.);
#582=ORIENTED_EDGE('',*,*,#449,.T.);
#583=ORIENTED_EDGE('',*,*,#447,.T.);
#584=ORIENTED_EDGE('',*,*,#449,.F.);
#585=ORIENTED_EDGE('',*,*,#450,.F.);
#586=ORIENTED_EDGE('',*,*,#451,.F.);
#587=ORIENTED_EDGE('',*,*,#441,.F.);
#588=ORIENTED_EDGE('',*,*,#452,.T.);
#589=ORIENTED_EDGE('',*,*,#450,.T.);
#590=ORIENTED_EDGE('',*,*,#452,.F.);
#591=ORIENTED_EDGE('',*,*,#453,.F.);
#592=ORIENTED_EDGE('',*,*,#454,.T.);
#593=ORIENTED_EDGE('',*,*,#442,.F.);
#594=ORIENTED_EDGE('',*,*,#455,.T.);
#595=ORIENTED_EDGE('',*,*,#453,.T.);
#596=ORIENTED_EDGE('',*,*,#455,.F.);
#597=ORIENTED_EDGE('',*,*,#456,.F.);
#598=ORIENTED_EDGE('',*,*,#446,.F.);
#599=ORIENTED_EDGE('',*,*,#443,.F.);
#600=ORIENTED_EDGE('',*,*,#457,.T.);
#601=ORIENTED_EDGE('',*,*,#456,.T.);
#602=ORIENTED_EDGE('',*,*,#457,.F.);
#603=ORIENTED_EDGE('',*,*,#448,.F.);
#604=ORIENTED_EDGE('',*,*,#458,.T.);
#605=ORIENTED_EDGE('',*,*,#432,.T.);
#606=ORIENTED_EDGE('',*,*,#458,.F.);
#607=ORIENTED_EDGE('',*,*,#454,.F.);
#608=ORIENTED_EDGE('',*,*,#459,.T.);
#609=ORIENTED_EDGE('',*,*,#429,.T.);
#610=ORIENTED_EDGE('',*,*,#459,.F.);
#611=ORIENTED_EDGE('',*,*,#431,.T.);
#612=ORIENTED_EDGE('',*,*,#460,.T.);
#613=ORIENTED_EDGE('',*,*,#451,.T.);
#614=ORIENTED_EDGE('',*,*,#460,.F.);
#615=ORIENTED_EDGE('',*,*,#461,.T.);
#616=ORIENTED_EDGE('',*,*,#462,.F.);
#617=ORIENTED_EDGE('',*,*,#463,.T.);
#618=ORIENTED_EDGE('',*,*,#464,.F.);
#619=ORIENTED_EDGE('',*,*,#465,.T.);
#620=ORIENTED_EDGE('',*,*,#466,.F.);
#621=ORIENTED_EDGE('',*,*,#467,.T.);
#622=ORIENTED_EDGE('',*,*,#468,.F.);
#623=ORIENTED_EDGE('',*,*,#469,.T.);
#624=ORIENTED_EDGE('',*,*,#470,.F.);
#625=ORIENTED_EDGE('',*,*,#471,.T.);
#626=ORIENTED_EDGE('',*,*,#472,.T.);
#627=ORIENTED_EDGE('',*,*,#473,.T.);
#628=ORIENTED_EDGE('',*,*,#474,.T.);
#629=ORIENTED_EDGE('',*,*,#466,.T.);
#630=ORIENTED_EDGE('',*,*,#475,.F.);
#631=ORIENTED_EDGE('',*,*,#476,.F.);
#632=ORIENTED_EDGE('',*,*,#477,.F.);
#633=ORIENTED_EDGE('',*,*,#478,.F.);
#634=ORIENTED_EDGE('',*,*,#479,.F.);
#635=ORIENTED_EDGE('',*,*,#480,.F.);
#636=ORIENTED_EDGE('',*,*,#481,.F.);
#637=ORIENTED_EDGE('',*,*,#464,.T.);
#638=ORIENTED_EDGE('',*,*,#482,.F.);
#639=ORIENTED_EDGE('',*,*,#483,.F.);
#640=ORIENTED_EDGE('',*,*,#484,.F.);
#641=ORIENTED_EDGE('',*,*,#485,.F.);
#642=ORIENTED_EDGE('',*,*,#486,.F.);
#643=ORIENTED_EDGE('',*,*,#487,.F.);
#644=ORIENTED_EDGE('',*,*,#488,.F.);
#645=ORIENTED_EDGE('',*,*,#489,.F.);
#646=ORIENTED_EDGE('',*,*,#490,.T.);
#647=ORIENTED_EDGE('',*,*,#491,.F.);
#648=ORIENTED_EDGE('',*,*,#492,.F.);
#649=ORIENTED_EDGE('',*,*,#493,.T.);
#650=ORIENTED_EDGE('',*,*,#494,.F.);
#651=ORIENTED_EDGE('',*,*,#462,.T.);
#652=ORIENTED_EDGE('',*,*,#495,.T.);
#653=ORIENTED_EDGE('',*,*,#496,.F.);
#654=ORIENTED_EDGE('',*,*,#493,.F.);
#655=ORIENTED_EDGE('',*,*,#486,.T.);
#656=ORIENTED_EDGE('',*,*,#497,.T.);
#657=ORIENTED_EDGE('',*,*,#492,.T.);
#658=ORIENTED_EDGE('',*,*,#498,.F.);
#659=ORIENTED_EDGE('',*,*,#481,.T.);
#660=ORIENTED_EDGE('',*,*,#499,.T.);
#661=ORIENTED_EDGE('',*,*,#500,.F.);
#662=ORIENTED_EDGE('',*,*,#467,.F.);
#663=ORIENTED_EDGE('',*,*,#487,.T.);
#664=ORIENTED_EDGE('',*,*,#498,.T.);
#665=ORIENTED_EDGE('',*,*,#491,.T.);
#666=ORIENTED_EDGE('',*,*,#501,.T.);
#667=ORIENTED_EDGE('',*,*,#502,.T.);
#668=ORIENTED_EDGE('',*,*,#503,.T.);
#669=ORIENTED_EDGE('',*,*,#504,.T.);
#670=ORIENTED_EDGE('',*,*,#505,.T.);
#671=ORIENTED_EDGE('',*,*,#476,.T.);
#672=ORIENTED_EDGE('',*,*,#506,.T.);
#673=ORIENTED_EDGE('',*,*,#507,.T.);
#674=ORIENTED_EDGE('',*,*,#508,.T.);
#675=ORIENTED_EDGE('',*,*,#509,.T.);
#676=ORIENTED_EDGE('',*,*,#510,.T.);
#677=ORIENTED_EDGE('',*,*,#479,.T.);
#678=ORIENTED_EDGE('',*,*,#511,.T.);
#679=ORIENTED_EDGE('',*,*,#512,.F.);
#680=ORIENTED_EDGE('',*,*,#484,.T.);
#681=ORIENTED_EDGE('',*,*,#513,.T.);
#682=ORIENTED_EDGE('',*,*,#514,.F.);
#683=ORIENTED_EDGE('',*,*,#488,.T.);
#684=ORIENTED_EDGE('',*,*,#506,.F.);
#685=ORIENTED_EDGE('',*,*,#475,.T.);
#686=ORIENTED_EDGE('',*,*,#465,.F.);
#687=ORIENTED_EDGE('',*,*,#515,.T.);
#688=ORIENTED_EDGE('',*,*,#516,.T.);
#689=ORIENTED_EDGE('',*,*,#517,.F.);
#690=ORIENTED_EDGE('',*,*,#518,.F.);
#691=ORIENTED_EDGE('',*,*,#519,.F.);
#692=ORIENTED_EDGE('',*,*,#511,.F.);
#693=ORIENTED_EDGE('',*,*,#478,.T.);
#694=ORIENTED_EDGE('',*,*,#520,.F.);
#695=ORIENTED_EDGE('',*,*,#521,.T.);
#696=ORIENTED_EDGE('',*,*,#522,.T.);
#697=ORIENTED_EDGE('',*,*,#499,.F.);
#698=ORIENTED_EDGE('',*,*,#480,.T.);
#699=ORIENTED_EDGE('',*,*,#512,.T.);
#700=ORIENTED_EDGE('',*,*,#519,.T.);
#701=ORIENTED_EDGE('',*,*,#523,.F.);
#702=ORIENTED_EDGE('',*,*,#524,.F.);
#703=ORIENTED_EDGE('',*,*,#477,.T.);
#704=ORIENTED_EDGE('',*,*,#505,.F.);
#705=ORIENTED_EDGE('',*,*,#525,.F.);
#706=ORIENTED_EDGE('',*,*,#520,.T.);
#707=ORIENTED_EDGE('',*,*,#524,.T.);
#708=ORIENTED_EDGE('',*,*,#526,.F.);
#709=ORIENTED_EDGE('',*,*,#469,.F.);
#710=ORIENTED_EDGE('',*,*,#527,.T.);
#711=ORIENTED_EDGE('',*,*,#517,.T.);
#712=ORIENTED_EDGE('',*,*,#528,.T.);
#713=ORIENTED_EDGE('',*,*,#503,.F.);
#714=ORIENTED_EDGE('',*,*,#529,.F.);
#715=ORIENTED_EDGE('',*,*,#483,.T.);
#716=ORIENTED_EDGE('',*,*,#530,.F.);
#717=ORIENTED_EDGE('',*,*,#496,.T.);
#718=ORIENTED_EDGE('',*,*,#531,.F.);
#719=ORIENTED_EDGE('',*,*,#532,.F.);
#720=ORIENTED_EDGE('',*,*,#533,.F.);
#721=ORIENTED_EDGE('',*,*,#513,.F.);
#722=ORIENTED_EDGE('',*,*,#485,.T.);
#723=ORIENTED_EDGE('',*,*,#514,.T.);
#724=ORIENTED_EDGE('',*,*,#533,.T.);
#725=ORIENTED_EDGE('',*,*,#534,.F.);
#726=ORIENTED_EDGE('',*,*,#535,.F.);
#727=ORIENTED_EDGE('',*,*,#489,.T.);
#728=ORIENTED_EDGE('',*,*,#497,.F.);
#729=ORIENTED_EDGE('',*,*,#482,.T.);
#730=ORIENTED_EDGE('',*,*,#463,.F.);
#731=ORIENTED_EDGE('',*,*,#494,.T.);
#732=ORIENTED_EDGE('',*,*,#530,.T.);
#733=ORIENTED_EDGE('',*,*,#535,.T.);
#734=ORIENTED_EDGE('',*,*,#536,.F.);
#735=ORIENTED_EDGE('',*,*,#501,.F.);
#736=ORIENTED_EDGE('',*,*,#490,.F.);
#737=ORIENTED_EDGE('',*,*,#531,.T.);
#738=ORIENTED_EDGE('',*,*,#495,.F.);
#739=ORIENTED_EDGE('',*,*,#461,.F.);
#740=ORIENTED_EDGE('',*,*,#537,.F.);
#741=ORIENTED_EDGE('',*,*,#525,.T.);
#742=ORIENTED_EDGE('',*,*,#504,.F.);
#743=ORIENTED_EDGE('',*,*,#528,.F.);
#744=ORIENTED_EDGE('',*,*,#516,.F.);
#745=ORIENTED_EDGE('',*,*,#538,.T.);
#746=ORIENTED_EDGE('',*,*,#521,.F.);
#747=ORIENTED_EDGE('',*,*,#527,.F.);
#748=ORIENTED_EDGE('',*,*,#468,.T.);
#749=ORIENTED_EDGE('',*,*,#500,.T.);
#750=ORIENTED_EDGE('',*,*,#522,.F.);
#751=ORIENTED_EDGE('',*,*,#538,.F.);
#752=ORIENTED_EDGE('',*,*,#515,.F.);
#753=ORIENTED_EDGE('',*,*,#539,.F.);
#754=ORIENTED_EDGE('',*,*,#471,.F.);
#755=ORIENTED_EDGE('',*,*,#540,.T.);
#756=ORIENTED_EDGE('',*,*,#510,.F.);
#757=ORIENTED_EDGE('',*,*,#541,.F.);
#758=ORIENTED_EDGE('',*,*,#472,.F.);
#759=ORIENTED_EDGE('',*,*,#539,.T.);
#760=ORIENTED_EDGE('',*,*,#509,.F.);
#761=ORIENTED_EDGE('',*,*,#470,.T.);
#762=ORIENTED_EDGE('',*,*,#526,.T.);
#763=ORIENTED_EDGE('',*,*,#523,.T.);
#764=ORIENTED_EDGE('',*,*,#518,.T.);
#765=ORIENTED_EDGE('',*,*,#529,.T.);
#766=ORIENTED_EDGE('',*,*,#502,.F.);
#767=ORIENTED_EDGE('',*,*,#536,.T.);
#768=ORIENTED_EDGE('',*,*,#534,.T.);
#769=ORIENTED_EDGE('',*,*,#532,.T.);
#770=ORIENTED_EDGE('',*,*,#537,.T.);
#771=ORIENTED_EDGE('',*,*,#542,.F.);
#772=ORIENTED_EDGE('',*,*,#473,.F.);
#773=ORIENTED_EDGE('',*,*,#541,.T.);
#774=ORIENTED_EDGE('',*,*,#508,.F.);
#775=ORIENTED_EDGE('',*,*,#540,.F.);
#776=ORIENTED_EDGE('',*,*,#474,.F.);
#777=ORIENTED_EDGE('',*,*,#542,.T.);
#778=ORIENTED_EDGE('',*,*,#507,.F.);
#779=PLANE('',#870);
#780=PLANE('',#875);
#781=PLANE('',#876);
#782=PLANE('',#877);
#783=PLANE('',#882);
#784=PLANE('',#883);
#785=PLANE('',#886);
#786=PLANE('',#890);
#787=PLANE('',#894);
#788=PLANE('',#898);
#789=PLANE('',#904);
#790=PLANE('',#921);
#791=PLANE('',#922);
#792=PLANE('',#923);
#793=PLANE('',#925);
#794=PLANE('',#926);
#795=PLANE('',#927);
#796=PLANE('',#928);
#797=PLANE('',#931);
#798=PLANE('',#934);
#799=PLANE('',#935);
#800=PLANE('',#936);
#801=PLANE('',#937);
#802=PLANE('',#938);
#803=PLANE('',#939);
#804=PLANE('',#940);
#805=PLANE('',#941);
#806=PLANE('',#943);
#807=PLANE('',#944);
#808=PLANE('',#945);
#809=PLANE('',#946);
#810=PLANE('',#947);
#811=ADVANCED_FACE('',(#77,#39,#40,#41,#42),#779,.F.);
#812=ADVANCED_FACE('',(#78),#780,.T.);
#813=ADVANCED_FACE('',(#79),#781,.T.);
#814=ADVANCED_FACE('',(#80,#43,#44,#45,#46),#782,.T.);
#815=ADVANCED_FACE('',(#81),#783,.T.);
#816=ADVANCED_FACE('',(#82),#784,.T.);
#817=ADVANCED_FACE('',(#83),#27,.F.);
#818=ADVANCED_FACE('',(#84,#47),#785,.T.);
#819=ADVANCED_FACE('',(#85),#28,.F.);
#820=ADVANCED_FACE('',(#86,#48),#786,.T.);
#821=ADVANCED_FACE('',(#87),#29,.F.);
#822=ADVANCED_FACE('',(#88,#49),#787,.T.);
#823=ADVANCED_FACE('',(#89),#30,.F.);
#824=ADVANCED_FACE('',(#90,#50),#788,.T.);
#825=ADVANCED_FACE('',(#91),#31,.F.);
#826=ADVANCED_FACE('',(#92),#32,.F.);
#827=ADVANCED_FACE('',(#93),#33,.F.);
#828=ADVANCED_FACE('',(#94),#34,.F.);
#829=ADVANCED_FACE('',(#95,#51),#789,.F.);
#830=ADVANCED_FACE('',(#96),#35,.F.);
#831=ADVANCED_FACE('',(#97),#36,.F.);
#832=ADVANCED_FACE('',(#98),#37,.F.);
#833=ADVANCED_FACE('',(#99),#790,.F.);
#834=ADVANCED_FACE('',(#100),#791,.F.);
#835=ADVANCED_FACE('',(#101,#52),#792,.F.);
#836=ADVANCED_FACE('',(#102),#793,.F.);
#837=ADVANCED_FACE('',(#103),#794,.F.);
#838=ADVANCED_FACE('',(#104),#795,.F.);
#839=ADVANCED_FACE('',(#105),#796,.T.);
#840=ADVANCED_FACE('',(#106),#797,.T.);
#841=ADVANCED_FACE('',(#107),#798,.F.);
#842=ADVANCED_FACE('',(#108),#799,.F.);
#843=ADVANCED_FACE('',(#109),#800,.F.);
#844=ADVANCED_FACE('',(#110),#801,.T.);
#845=ADVANCED_FACE('',(#111),#802,.T.);
#846=ADVANCED_FACE('',(#112),#803,.F.);
#847=ADVANCED_FACE('',(#113),#804,.F.);
#848=ADVANCED_FACE('',(#114),#805,.F.);
#849=ADVANCED_FACE('',(#115),#38,.F.);
#850=ADVANCED_FACE('',(#116),#806,.T.);
#851=ADVANCED_FACE('',(#117),#807,.T.);
#852=ADVANCED_FACE('',(#118),#808,.T.);
#853=ADVANCED_FACE('',(#119),#809,.T.);
#854=ADVANCED_FACE('',(#120),#810,.T.);
#855=CLOSED_SHELL('',(#811,#812,#813,#814,#815,#816,#817,#818,#819,#820,
#821,#822,#823,#824,#825,#826,#827,#828));
#856=CLOSED_SHELL('',(#829,#830,#831,#832,#833,#834,#835,#836,#837,#838,
#839,#840,#841,#842,#843,#844,#845,#846,#847,#848,#849,#850,#851,#852,#853,
#854));
#857=DERIVED_UNIT_ELEMENT(#859,1.);
#858=DERIVED_UNIT_ELEMENT(#1436,-3.);
#859=(
MASS_UNIT()
NAMED_UNIT(*)
SI_UNIT(.KILO.,.GRAM.)
);
#860=DERIVED_UNIT((#857,#858));
#861=MEASURE_REPRESENTATION_ITEM('density measure',
POSITIVE_RATIO_MEASURE(952.),#860);
#862=PROPERTY_DEFINITION_REPRESENTATION(#867,#864);
#863=PROPERTY_DEFINITION_REPRESENTATION(#868,#865);
#864=REPRESENTATION('material name',(#866),#1433);
#865=REPRESENTATION('density',(#861),#1433);
#866=DESCRIPTIVE_REPRESENTATION_ITEM('Plastic, Opaque White',
'Plastic, Opaque White');
#867=PROPERTY_DEFINITION('material property','material name',#1443);
#868=PROPERTY_DEFINITION('material property','density of part',#1443);
#869=AXIS2_PLACEMENT_3D('',#1190,#948,#949);
#870=AXIS2_PLACEMENT_3D('',#1191,#950,#951);
#871=AXIS2_PLACEMENT_3D('',#1201,#956,#957);
#872=AXIS2_PLACEMENT_3D('',#1203,#958,#959);
#873=AXIS2_PLACEMENT_3D('',#1205,#960,#961);
#874=AXIS2_PLACEMENT_3D('',#1207,#962,#963);
#875=AXIS2_PLACEMENT_3D('',#1208,#964,#965);
#876=AXIS2_PLACEMENT_3D('',#1214,#969,#970);
#877=AXIS2_PLACEMENT_3D('',#1218,#973,#974);
#878=AXIS2_PLACEMENT_3D('',#1223,#977,#978);
#879=AXIS2_PLACEMENT_3D('',#1225,#979,#980);
#880=AXIS2_PLACEMENT_3D('',#1227,#981,#982);
#881=AXIS2_PLACEMENT_3D('',#1229,#983,#984);
#882=AXIS2_PLACEMENT_3D('',#1230,#985,#986);
#883=AXIS2_PLACEMENT_3D('',#1232,#988,#989);
#884=AXIS2_PLACEMENT_3D('',#1233,#990,#991);
#885=AXIS2_PLACEMENT_3D('',#1236,#993,#994);
#886=AXIS2_PLACEMENT_3D('',#1237,#995,#996);
#887=AXIS2_PLACEMENT_3D('',#1239,#997,#998);
#888=AXIS2_PLACEMENT_3D('',#1241,#999,#1000);
#889=AXIS2_PLACEMENT_3D('',#1242,#1001,#1002);
#890=AXIS2_PLACEMENT_3D('',#1244,#1004,#1005);
#891=AXIS2_PLACEMENT_3D('',#1246,#1006,#1007);
#892=AXIS2_PLACEMENT_3D('',#1248,#1008,#1009);
#893=AXIS2_PLACEMENT_3D('',#1249,#1010,#1011);
#894=AXIS2_PLACEMENT_3D('',#1251,#1013,#1014);
#895=AXIS2_PLACEMENT_3D('',#1253,#1015,#1016);
#896=AXIS2_PLACEMENT_3D('',#1255,#1017,#1018);
#897=AXIS2_PLACEMENT_3D('',#1256,#1019,#1020);
#898=AXIS2_PLACEMENT_3D('',#1258,#1022,#1023);
#899=AXIS2_PLACEMENT_3D('',#1260,#1024,#1025);
#900=AXIS2_PLACEMENT_3D('',#1261,#1026,#1027);
#901=AXIS2_PLACEMENT_3D('',#1263,#1029,#1030);
#902=AXIS2_PLACEMENT_3D('',#1265,#1032,#1033);
#903=AXIS2_PLACEMENT_3D('',#1267,#1035,#1036);
#904=AXIS2_PLACEMENT_3D('',#1269,#1038,#1039);
#905=AXIS2_PLACEMENT_3D('',#1274,#1041,#1042);
#906=AXIS2_PLACEMENT_3D('',#1278,#1044,#1045);
#907=AXIS2_PLACEMENT_3D('',#1282,#1047,#1048);
#908=AXIS2_PLACEMENT_3D('',#1286,#1050,#1051);
#909=AXIS2_PLACEMENT_3D('',#1298,#1058,#1059);
#910=AXIS2_PLACEMENT_3D('',#1302,#1061,#1062);
#911=AXIS2_PLACEMENT_3D('',#1306,#1064,#1065);
#912=AXIS2_PLACEMENT_3D('',#1310,#1067,#1068);
#913=AXIS2_PLACEMENT_3D('',#1312,#1070,#1071);
#914=AXIS2_PLACEMENT_3D('',#1316,#1073,#1074);
#915=AXIS2_PLACEMENT_3D('',#1320,#1076,#1077);
#916=AXIS2_PLACEMENT_3D('',#1324,#1079,#1080);
#917=AXIS2_PLACEMENT_3D('',#1326,#1082,#1083);
#918=AXIS2_PLACEMENT_3D('',#1329,#1084,#1085);
#919=AXIS2_PLACEMENT_3D('',#1333,#1087,#1088);
#920=AXIS2_PLACEMENT_3D('',#1340,#1093,#1094);
#921=AXIS2_PLACEMENT_3D('',#1341,#1095,#1096);
#922=AXIS2_PLACEMENT_3D('',#1344,#1099,#1100);
#923=AXIS2_PLACEMENT_3D('',#1348,#1103,#1104);
#924=AXIS2_PLACEMENT_3D('',#1356,#1108,#1109);
#925=AXIS2_PLACEMENT_3D('',#1367,#1116,#1117);
#926=AXIS2_PLACEMENT_3D('',#1371,#1120,#1121);
#927=AXIS2_PLACEMENT_3D('',#1375,#1124,#1125);
#928=AXIS2_PLACEMENT_3D('',#1376,#1126,#1127);
#929=AXIS2_PLACEMENT_3D('',#1379,#1128,#1129);
#930=AXIS2_PLACEMENT_3D('',#1381,#1130,#1131);
#931=AXIS2_PLACEMENT_3D('',#1388,#1136,#1137);
#932=AXIS2_PLACEMENT_3D('',#1391,#1138,#1139);
#933=AXIS2_PLACEMENT_3D('',#1392,#1140,#1141);
#934=AXIS2_PLACEMENT_3D('',#1396,#1144,#1145);
#935=AXIS2_PLACEMENT_3D('',#1398,#1147,#1148);
#936=AXIS2_PLACEMENT_3D('',#1401,#1151,#1152);
#937=AXIS2_PLACEMENT_3D('',#1404,#1155,#1156);
#938=AXIS2_PLACEMENT_3D('',#1411,#1161,#1162);
#939=AXIS2_PLACEMENT_3D('',#1415,#1165,#1166);
#940=AXIS2_PLACEMENT_3D('',#1416,#1167,#1168);
#941=AXIS2_PLACEMENT_3D('',#1418,#1170,#1171);
#942=AXIS2_PLACEMENT_3D('',#1420,#1173,#1174);
#943=AXIS2_PLACEMENT_3D('',#1422,#1176,#1177);
#944=AXIS2_PLACEMENT_3D('',#1425,#1180,#1181);
#945=AXIS2_PLACEMENT_3D('',#1427,#1183,#1184);
#946=AXIS2_PLACEMENT_3D('',#1428,#1185,#1186);
#947=AXIS2_PLACEMENT_3D('',#1430,#1188,#1189);
#948=DIRECTION('axis',(0.,0.,1.));
#949=DIRECTION('refdir',(1.,0.,0.));
#950=DIRECTION('center_axis',(0.,0.,1.));
#951=DIRECTION('ref_axis',(1.,0.,0.));
#952=DIRECTION('',(0.,1.,0.));
#953=DIRECTION('',(1.,0.,0.));
#954=DIRECTION('',(0.,-1.,0.));
#955=DIRECTION('',(-1.,0.,0.));
#956=DIRECTION('center_axis',(0.,0.,-1.));
#957=DIRECTION('ref_axis',(-1.,0.,0.));
#958=DIRECTION('center_axis',(0.,0.,-1.));
#959=DIRECTION('ref_axis',(1.,0.,0.));
#960=DIRECTION('center_axis',(0.,0.,-1.));
#961=DIRECTION('ref_axis',(1.,0.,0.));
#962=DIRECTION('center_axis',(0.,0.,-1.));
#963=DIRECTION('ref_axis',(-1.,0.,0.));
#964=DIRECTION('center_axis',(1.,0.,0.));
#965=DIRECTION('ref_axis',(0.,1.,0.));
#966=DIRECTION('',(0.,0.,1.));
#967=DIRECTION('',(0.,1.,0.));
#968=DIRECTION('',(0.,0.,1.));
#969=DIRECTION('center_axis',(0.,1.,0.));
#970=DIRECTION('ref_axis',(-1.,0.,0.));
#971=DIRECTION('',(0.,0.,1.));
#972=DIRECTION('',(-1.,0.,0.));
#973=DIRECTION('center_axis',(0.,0.,1.));
#974=DIRECTION('ref_axis',(1.,0.,0.));
#975=DIRECTION('',(0.,-1.,0.));
#976=DIRECTION('',(1.,0.,0.));
#977=DIRECTION('center_axis',(0.,0.,-1.));
#978=DIRECTION('ref_axis',(-1.,0.,0.));
#979=DIRECTION('center_axis',(0.,0.,-1.));
#980=DIRECTION('ref_axis',(-1.,0.,0.));
#981=DIRECTION('center_axis',(0.,0.,-1.));
#982=DIRECTION('ref_axis',(-1.,0.,0.));
#983=DIRECTION('center_axis',(0.,0.,-1.));
#984=DIRECTION('ref_axis',(-1.,0.,0.));
#985=DIRECTION('center_axis',(-1.,0.,0.));
#986=DIRECTION('ref_axis',(0.,-1.,0.));
#987=DIRECTION('',(0.,0.,1.));
#988=DIRECTION('center_axis',(0.,-1.,0.));
#989=DIRECTION('ref_axis',(1.,0.,0.));
#990=DIRECTION('center_axis',(0.,0.,1.));
#991=DIRECTION('ref_axis',(1.,0.,0.));
#992=DIRECTION('',(0.,0.,1.));
#993=DIRECTION('center_axis',(0.,0.,1.));
#994=DIRECTION('ref_axis',(1.,0.,0.));
#995=DIRECTION('center_axis',(0.,0.,1.));
#996=DIRECTION('ref_axis',(-1.,0.,0.));
#997=DIRECTION('center_axis',(0.,0.,-1.));
#998=DIRECTION('ref_axis',(-1.,0.,0.));
#999=DIRECTION('center_axis',(0.,0.,-1.));
#1000=DIRECTION('ref_axis',(-1.,0.,0.));
#1001=DIRECTION('center_axis',(0.,0.,-1.));
#1002=DIRECTION('ref_axis',(-1.,0.,0.));
#1003=DIRECTION('',(0.,0.,-1.));
#1004=DIRECTION('center_axis',(0.,0.,1.));
#1005=DIRECTION('ref_axis',(-1.,0.,0.));
#1006=DIRECTION('center_axis',(0.,0.,-1.));
#1007=DIRECTION('ref_axis',(-1.,0.,0.));
#1008=DIRECTION('center_axis',(0.,0.,1.));
#1009=DIRECTION('ref_axis',(1.,0.,0.));
#1010=DIRECTION('center_axis',(0.,0.,-1.));
#1011=DIRECTION('ref_axis',(-1.,0.,0.));
#1012=DIRECTION('',(0.,0.,-1.));
#1013=DIRECTION('center_axis',(0.,0.,1.));
#1014=DIRECTION('ref_axis',(-1.,0.,0.));
#1015=DIRECTION('center_axis',(0.,0.,-1.));
#1016=DIRECTION('ref_axis',(-1.,0.,0.));
#1017=DIRECTION('center_axis',(0.,0.,-1.));
#1018=DIRECTION('ref_axis',(-1.,0.,0.));
#1019=DIRECTION('center_axis',(0.,0.,-1.));
#1020=DIRECTION('ref_axis',(-1.,0.,0.));
#1021=DIRECTION('',(0.,0.,-1.));
#1022=DIRECTION('center_axis',(0.,0.,1.));
#1023=DIRECTION('ref_axis',(-1.,0.,0.));
#1024=DIRECTION('center_axis',(0.,0.,-1.));
#1025=DIRECTION('ref_axis',(-1.,0.,0.));
#1026=DIRECTION('center_axis',(0.,0.,-1.));
#1027=DIRECTION('ref_axis',(-1.,0.,0.));
#1028=DIRECTION('',(0.,0.,-1.));
#1029=DIRECTION('center_axis',(0.,0.,-1.));
#1030=DIRECTION('ref_axis',(-1.,0.,0.));
#1031=DIRECTION('',(0.,0.,-1.));
#1032=DIRECTION('center_axis',(0.,0.,-1.));
#1033=DIRECTION('ref_axis',(-1.,0.,0.));
#1034=DIRECTION('',(0.,0.,-1.));
#1035=DIRECTION('center_axis',(0.,0.,1.));
#1036=DIRECTION('ref_axis',(1.,0.,0.));
#1037=DIRECTION('',(0.,0.,1.));
#1038=DIRECTION('center_axis',(0.,0.,-1.));
#1039=DIRECTION('ref_axis',(-1.,0.,0.));
#1040=DIRECTION('',(-1.,0.,0.));
#1041=DIRECTION('center_axis',(0.,0.,1.));
#1042=DIRECTION('ref_axis',(1.,0.,0.));
#1043=DIRECTION('',(-1.,0.,0.));
#1044=DIRECTION('center_axis',(0.,0.,1.));
#1045=DIRECTION('ref_axis',(-1.,0.,0.));
#1046=DIRECTION('',(0.,-1.,0.));
#1047=DIRECTION('center_axis',(0.,0.,1.));
#1048=DIRECTION('ref_axis',(-1.,0.,0.));
#1049=DIRECTION('',(0.99999542116715,-0.0030261600642981,0.));
#1050=DIRECTION('center_axis',(0.,0.,1.));
#1051=DIRECTION('ref_axis',(1.,0.,0.));
#1052=DIRECTION('',(0.99999542116715,-0.0030261600642981,0.));
#1053=DIRECTION('',(0.,-1.,0.));
#1054=DIRECTION('',(0.,-1.,0.));
#1055=DIRECTION('',(-1.,0.,0.));
#1056=DIRECTION('',(0.,1.,0.));
#1057=DIRECTION('',(1.,0.,0.));
#1058=DIRECTION('center_axis',(0.,0.,-1.));
#1059=DIRECTION('ref_axis',(1.,1.22464679914735E-16,0.));
#1060=DIRECTION('',(0.,0.,1.));
#1061=DIRECTION('center_axis',(0.,0.,1.));
#1062=DIRECTION('ref_axis',(-1.,0.,0.));
#1063=DIRECTION('',(0.,0.,-1.));
#1064=DIRECTION('center_axis',(0.,0.668964726115073,0.743294151203805));
#1065=DIRECTION('ref_axis',(0.,0.743294151203805,-0.668964726115073));
#1066=DIRECTION('',(0.,0.,-1.));
#1067=DIRECTION('center_axis',(0.,0.668964737129826,-0.743294141290527));
#1068=DIRECTION('ref_axis',(0.,0.743294141290527,0.668964737129826));
#1069=DIRECTION('',(0.,0.,-1.));
#1070=DIRECTION('center_axis',(0.,0.,-1.));
#1071=DIRECTION('ref_axis',(1.,-1.22464679914735E-16,0.));
#1072=DIRECTION('',(0.,0.,1.));
#1073=DIRECTION('center_axis',(0.,-0.668964737129826,-0.743294141290527));
#1074=DIRECTION('ref_axis',(0.,0.743294141290527,-0.668964737129826));
#1075=DIRECTION('',(0.,0.,1.));
#1076=DIRECTION('center_axis',(0.,-0.668964726115073,0.743294151203805));
#1077=DIRECTION('ref_axis',(0.,0.743294151203805,0.668964726115073));
#1078=DIRECTION('',(0.,0.,1.));
#1079=DIRECTION('center_axis',(0.,0.,1.));
#1080=DIRECTION('ref_axis',(-1.,0.,0.));
#1081=DIRECTION('',(0.,0.,-1.));
#1082=DIRECTION('center_axis',(0.,0.,1.));
#1083=DIRECTION('ref_axis',(1.,0.,0.));
#1084=DIRECTION('center_axis',(0.,-0.668964726115073,0.743294151203805));
#1085=DIRECTION('ref_axis',(0.,0.743294151203805,0.668964726115073));
#1086=DIRECTION('',(0.,0.,-1.));
#1087=DIRECTION('center_axis',(0.,0.,1.));
#1088=DIRECTION('ref_axis',(1.,0.,0.));
#1089=DIRECTION('',(0.,0.,-1.));
#1090=DIRECTION('',(0.,0.,1.));
#1091=DIRECTION('',(0.,0.,-1.));
#1092=DIRECTION('',(0.,0.,-1.));
#1093=DIRECTION('center_axis',(0.,-0.668964737129826,-0.743294141290527));
#1094=DIRECTION('ref_axis',(0.,0.743294141290527,-0.668964737129826));
#1095=DIRECTION('center_axis',(0.,-1.,0.));
#1096=DIRECTION('ref_axis',(0.,0.,-1.));
#1097=DIRECTION('',(1.,0.,0.));
#1098=DIRECTION('',(1.,0.,0.));
#1099=DIRECTION('center_axis',(0.00302616006431225,0.99999542116715,0.));
#1100=DIRECTION('ref_axis',(0.,0.,1.));
#1101=DIRECTION('',(0.999991712358537,-0.00302614884081235,-0.00272353399731494));
#1102=DIRECTION('',(0.,0.,-1.));
#1103=DIRECTION('center_axis',(0.,0.,1.));
#1104=DIRECTION('ref_axis',(1.,0.,0.));
#1105=DIRECTION('',(1.,0.,0.));
#1106=DIRECTION('',(0.,-1.,0.));
#1107=DIRECTION('',(-0.99999542116715,0.00302616006431225,0.));
#1108=DIRECTION('center_axis',(0.,0.,1.));
#1109=DIRECTION('ref_axis',(1.,0.,0.));
#1110=DIRECTION('',(-0.99999542116715,0.00302616006431225,0.));
#1111=DIRECTION('',(0.,1.,0.));
#1112=DIRECTION('',(-1.,0.,0.));
#1113=DIRECTION('',(0.,-1.,0.));
#1114=DIRECTION('',(1.,0.,0.));
#1115=DIRECTION('',(0.,1.,0.));
#1116=DIRECTION('center_axis',(1.,0.,0.));
#1117=DIRECTION('ref_axis',(0.,0.,-1.));
#1118=DIRECTION('',(0.,-0.743294151203805,0.668964726115073));
#1119=DIRECTION('',(0.,-0.743294141290527,-0.668964737129826));
#1120=DIRECTION('center_axis',(1.,0.,0.));
#1121=DIRECTION('ref_axis',(0.,0.,-1.));
#1122=DIRECTION('',(0.,0.743294141290527,-0.668964737129826));
#1123=DIRECTION('',(0.,0.743294151203805,0.668964726115073));
#1124=DIRECTION('center_axis',(1.,0.,0.));
#1125=DIRECTION('ref_axis',(0.,0.,-1.));
#1126=DIRECTION('center_axis',(0.,-0.668964726115073,-0.743294151203805));
#1127=DIRECTION('ref_axis',(0.,0.743294151203805,-0.668964726115073));
#1128=DIRECTION('center_axis',(0.,0.668964726115073,0.743294151203805));
#1129=DIRECTION('ref_axis',(0.,0.743294151203805,-0.668964726115073));
#1130=DIRECTION('center_axis',(0.,0.668964726115073,0.743294151203805));
#1131=DIRECTION('ref_axis',(0.,0.743294151203805,-0.668964726115073));
#1132=DIRECTION('',(-0.999991712358758,0.00302614884081302,-0.0027235339161479));
#1133=DIRECTION('',(0.,0.743294151203805,-0.668964726115073));
#1134=DIRECTION('',(1.,0.,0.));
#1135=DIRECTION('',(-0.999991712358758,0.00302614884081302,-0.0027235339161479));
#1136=DIRECTION('center_axis',(0.,-0.668964737129826,0.743294141290527));
#1137=DIRECTION('ref_axis',(0.,-0.743294141290527,-0.668964737129826));
#1138=DIRECTION('center_axis',(0.,0.668964737129826,-0.743294141290527));
#1139=DIRECTION('ref_axis',(0.,0.743294141290527,0.668964737129826));
#1140=DIRECTION('center_axis',(0.,0.668964737129826,-0.743294141290527));
#1141=DIRECTION('ref_axis',(0.,0.743294141290527,0.668964737129826));
#1142=DIRECTION('',(0.,-0.743294141290527,-0.668964737129826));
#1143=DIRECTION('',(0.999991712358537,-0.00302614884081235,-0.00272353399731494));
#1144=DIRECTION('center_axis',(0.00302616006431225,0.99999542116715,0.));
#1145=DIRECTION('ref_axis',(0.,0.,1.));
#1146=DIRECTION('',(0.,0.,-1.));
#1147=DIRECTION('center_axis',(0.00302616006431225,0.99999542116715,0.));
#1148=DIRECTION('ref_axis',(0.,0.,1.));
#1149=DIRECTION('',(0.,0.,-1.));
#1150=DIRECTION('',(0.,0.,-1.));
#1151=DIRECTION('center_axis',(0.00302616006431225,0.99999542116715,0.));
#1152=DIRECTION('ref_axis',(0.,0.,1.));
#1153=DIRECTION('',(0.,0.,-1.));
#1154=DIRECTION('',(0.,0.,-1.));
#1155=DIRECTION('center_axis',(0.,0.668964737129826,0.743294141290527));
#1156=DIRECTION('ref_axis',(0.,-0.743294141290527,0.668964737129826));
#1157=DIRECTION('',(-1.,0.,0.));
#1158=DIRECTION('',(-1.,0.,0.));
#1159=DIRECTION('',(0.,-0.743294141290527,0.668964737129826));
#1160=DIRECTION('',(1.,0.,0.));
#1161=DIRECTION('center_axis',(0.,0.668964726115073,-0.743294151203805));
#1162=DIRECTION('ref_axis',(0.,0.743294151203805,0.668964726115073));
#1163=DIRECTION('',(0.,0.743294151203805,0.668964726115073));
#1164=DIRECTION('',(1.,0.,0.));
#1165=DIRECTION('center_axis',(0.,-1.,0.));
#1166=DIRECTION('ref_axis',(0.,0.,-1.));
#1167=DIRECTION('center_axis',(0.,-1.,0.));
#1168=DIRECTION('ref_axis',(0.,0.,-1.));
#1169=DIRECTION('',(0.,0.,1.));
#1170=DIRECTION('center_axis',(0.,-1.,0.));
#1171=DIRECTION('ref_axis',(0.,0.,-1.));
#1172=DIRECTION('',(0.,0.,1.));
#1173=DIRECTION('center_axis',(0.,0.,1.));
#1174=DIRECTION('ref_axis',(1.,0.,0.));
#1175=DIRECTION('',(0.,0.,1.));
#1176=DIRECTION('center_axis',(-1.,0.,0.));
#1177=DIRECTION('ref_axis',(0.,1.,0.));
#1178=DIRECTION('',(0.,0.,-1.));
#1179=DIRECTION('',(0.,0.,-1.));
#1180=DIRECTION('center_axis',(0.,1.,0.));
#1181=DIRECTION('ref_axis',(1.,0.,0.));
#1182=DIRECTION('',(0.,0.,-1.));
#1183=DIRECTION('center_axis',(1.,0.,0.));
#1184=DIRECTION('ref_axis',(0.,1.,0.));
#1185=DIRECTION('center_axis',(1.,0.,0.));
#1186=DIRECTION('ref_axis',(0.,-1.,0.));
#1187=DIRECTION('',(0.,0.,-1.));
#1188=DIRECTION('center_axis',(0.,-1.,0.));
#1189=DIRECTION('ref_axis',(-1.,0.,0.));
#1190=CARTESIAN_POINT('',(0.,0.,0.));
#1191=CARTESIAN_POINT('Origin',(0.,0.,5.));
#1192=CARTESIAN_POINT('',(64.0125,-46.025,5.));
#1193=CARTESIAN_POINT('',(64.0125,46.025,5.));
#1194=CARTESIAN_POINT('',(64.0125,-23.0125,5.));
#1195=CARTESIAN_POINT('',(-64.0125,-46.025,5.));
#1196=CARTESIAN_POINT('',(-32.00625,-46.025,5.));
#1197=CARTESIAN_POINT('',(-64.0125,46.025,5.));
#1198=CARTESIAN_POINT('',(-64.0125,23.0125,5.));
#1199=CARTESIAN_POINT('',(32.00625,46.025,5.));
#1200=CARTESIAN_POINT('',(-57.2125,40.725,5.));
#1201=CARTESIAN_POINT('Origin',(-58.7125,40.725,5.));
#1202=CARTESIAN_POINT('',(52.5125,40.725,5.));
#1203=CARTESIAN_POINT('Origin',(54.0125,40.725,5.));
#1204=CARTESIAN_POINT('',(52.5125,-40.6947368871374,5.));
#1205=CARTESIAN_POINT('Origin',(54.0125,-40.6947368871374,5.));
#1206=CARTESIAN_POINT('',(-57.2125,-40.353611431933,5.));
#1207=CARTESIAN_POINT('Origin',(-58.7125,-40.353611431933,5.));
#1208=CARTESIAN_POINT('Origin',(64.0125,-46.025,0.));
#1209=CARTESIAN_POINT('',(64.0125,46.025,10.));
#1210=CARTESIAN_POINT('',(64.0125,46.025,0.));
#1211=CARTESIAN_POINT('',(64.0125,-46.025,10.));
#1212=CARTESIAN_POINT('',(64.0125,46.025,10.));
#1213=CARTESIAN_POINT('',(64.0125,-46.025,0.));
#1214=CARTESIAN_POINT('Origin',(64.0125,46.025,0.));
#1215=CARTESIAN_POINT('',(-64.0125,46.025,10.));
#1216=CARTESIAN_POINT('',(-64.0125,46.025,0.));
#1217=CARTESIAN_POINT('',(-64.0125,46.025,10.));
#1218=CARTESIAN_POINT('Origin',(0.,0.,10.));
#1219=CARTESIAN_POINT('',(-64.0125,-46.025,10.));
#1220=CARTESIAN_POINT('',(-64.0125,-46.025,10.));
#1221=CARTESIAN_POINT('',(64.0125,-46.025,10.));
#1222=CARTESIAN_POINT('',(-56.0625,-40.353611431933,10.));
#1223=CARTESIAN_POINT('Origin',(-58.7125,-40.353611431933,10.));
#1224=CARTESIAN_POINT('',(56.6625,-40.6947368871374,10.));
#1225=CARTESIAN_POINT('Origin',(54.0125,-40.6947368871374,10.));
#1226=CARTESIAN_POINT('',(-56.0625,40.725,10.));
#1227=CARTESIAN_POINT('Origin',(-58.7125,40.725,10.));
#1228=CARTESIAN_POINT('',(56.6625,40.725,10.));
#1229=CARTESIAN_POINT('Origin',(54.0125,40.725,10.));
#1230=CARTESIAN_POINT('Origin',(-64.0125,46.025,0.));
#1231=CARTESIAN_POINT('',(-64.0125,-46.025,0.));
#1232=CARTESIAN_POINT('Origin',(-64.0125,-46.025,0.));
#1233=CARTESIAN_POINT('Origin',(54.0125,40.725,-3.7));
#1234=CARTESIAN_POINT('',(52.5125,40.725,7.2));
#1235=CARTESIAN_POINT('',(52.5125,40.725,-3.7));
#1236=CARTESIAN_POINT('Origin',(54.0125,40.725,7.2));
#1237=CARTESIAN_POINT('Origin',(-58.7125,-40.353611431933,7.2));
#1238=CARTESIAN_POINT('',(-56.0625,-40.353611431933,7.2));
#1239=CARTESIAN_POINT('Origin',(-58.7125,-40.353611431933,7.2));
#1240=CARTESIAN_POINT('',(-57.2125,-40.353611431933,7.2));
#1241=CARTESIAN_POINT('Origin',(-58.7125,-40.353611431933,7.2));
#1242=CARTESIAN_POINT('Origin',(-58.7125,-40.353611431933,10.));
#1243=CARTESIAN_POINT('',(-56.0625,-40.353611431933,10.));
#1244=CARTESIAN_POINT('Origin',(54.0125,-40.6947368871374,7.2));
#1245=CARTESIAN_POINT('',(56.6625,-40.6947368871374,7.2));
#1246=CARTESIAN_POINT('Origin',(54.0125,-40.6947368871374,7.2));
#1247=CARTESIAN_POINT('',(52.5125,-40.6947368871374,7.2));
#1248=CARTESIAN_POINT('Origin',(54.0125,-40.6947368871374,7.2));
#1249=CARTESIAN_POINT('Origin',(54.0125,-40.6947368871374,10.));
#1250=CARTESIAN_POINT('',(56.6625,-40.6947368871374,10.));
#1251=CARTESIAN_POINT('Origin',(-58.7125,40.725,7.2));
#1252=CARTESIAN_POINT('',(-56.0625,40.725,7.2));
#1253=CARTESIAN_POINT('Origin',(-58.7125,40.725,7.2));
#1254=CARTESIAN_POINT('',(-57.2125,40.725,7.2));
#1255=CARTESIAN_POINT('Origin',(-58.7125,40.725,7.2));
#1256=CARTESIAN_POINT('Origin',(-58.7125,40.725,10.));
#1257=CARTESIAN_POINT('',(-56.0625,40.725,10.));
#1258=CARTESIAN_POINT('Origin',(54.0125,40.725,7.2));
#1259=CARTESIAN_POINT('',(56.6625,40.725,7.2));
#1260=CARTESIAN_POINT('Origin',(54.0125,40.725,7.2));
#1261=CARTESIAN_POINT('Origin',(54.0125,40.725,10.));
#1262=CARTESIAN_POINT('',(56.6625,40.725,10.));
#1263=CARTESIAN_POINT('Origin',(-58.7125,-40.353611431933,10.));
#1264=CARTESIAN_POINT('',(-57.2125,-40.353611431933,10.));
#1265=CARTESIAN_POINT('Origin',(-58.7125,40.725,10.));
#1266=CARTESIAN_POINT('',(-57.2125,40.725,10.));
#1267=CARTESIAN_POINT('Origin',(54.0125,-40.6947368871374,-3.7));
#1268=CARTESIAN_POINT('',(52.5125,-40.6947368871374,-3.7));
#1269=CARTESIAN_POINT('Origin',(1.33226762955019E-14,0.,5.));
#1270=CARTESIAN_POINT('',(64.0125,40.725,5.));
#1271=CARTESIAN_POINT('',(55.5125,40.725,5.));
#1272=CARTESIAN_POINT('',(-29.50625,40.725,5.));
#1273=CARTESIAN_POINT('',(52.5125,40.725,5.));
#1274=CARTESIAN_POINT('Origin',(54.0125,40.725,5.));
#1275=CARTESIAN_POINT('',(-57.2125,40.725,5.));
#1276=CARTESIAN_POINT('',(-29.50625,40.725,5.));
#1277=CARTESIAN_POINT('',(-58.7125,39.225,5.));
#1278=CARTESIAN_POINT('Origin',(-58.7125,40.725,5.));
#1279=CARTESIAN_POINT('',(-58.7125,-38.853611431933,5.));
#1280=CARTESIAN_POINT('',(-58.7125,-20.3263524767065,5.));
#1281=CARTESIAN_POINT('',(-57.2125068682493,-40.3581506720294,5.));
#1282=CARTESIAN_POINT('Origin',(-58.7125,-40.353611431933,5.));
#1283=CARTESIAN_POINT('',(52.5125068682493,-40.690197647041,5.));
#1284=CARTESIAN_POINT('',(31.9453771257941,-40.6279579353919,5.));
#1285=CARTESIAN_POINT('',(55.5124931317507,-40.6992761272339,5.));
#1286=CARTESIAN_POINT('Origin',(54.0125,-40.6947368871374,5.));
#1287=CARTESIAN_POINT('',(64.0125,-40.7249986263439,5.));
#1288=CARTESIAN_POINT('',(31.9453771257941,-40.6279579353919,5.));
#1289=CARTESIAN_POINT('',(64.0125,-23.0125,5.));
#1290=CARTESIAN_POINT('',(54.0125,36.025,5.));
#1291=CARTESIAN_POINT('',(54.0125,-36.025,5.));
#1292=CARTESIAN_POINT('',(54.0125,-18.0125,5.));
#1293=CARTESIAN_POINT('',(-54.0125,-36.025,5.));
#1294=CARTESIAN_POINT('',(-27.00625,-36.025,5.));
#1295=CARTESIAN_POINT('',(-54.0125,36.025,5.));
#1296=CARTESIAN_POINT('',(-54.0125,18.0125,5.));
#1297=CARTESIAN_POINT('',(27.00625,36.025,5.));
#1298=CARTESIAN_POINT('Origin',(-58.7125,-40.353611431933,15.));
#1299=CARTESIAN_POINT('',(-58.7125,-38.853611431933,-4.));
#1300=CARTESIAN_POINT('',(-58.7125,-38.853611431933,15.));
#1301=CARTESIAN_POINT('',(-57.2125068682493,-40.3581506720295,-4.));
#1302=CARTESIAN_POINT('Origin',(-58.7125,-40.353611431933,-4.));
#1303=CARTESIAN_POINT('',(-57.2125068682493,-40.3581506720295,-1.74591468397405));
#1304=CARTESIAN_POINT('',(-57.2125068682493,-40.3581506720295,15.));
#1305=CARTESIAN_POINT('',(-58.7125,-41.853611431933,-0.400000020116558));
#1306=CARTESIAN_POINT('Origin',(-58.7125,-40.353611431933,-1.74999999999998));
#1307=CARTESIAN_POINT('',(-58.7125,-41.853611431933,1.39999997988342));
#1308=CARTESIAN_POINT('',(-58.7125,-41.853611431933,15.));
#1309=CARTESIAN_POINT('',(-57.2125068682493,-40.3581506720295,2.74591468385231));
#1310=CARTESIAN_POINT('Origin',(-58.7125,-40.353611431933,2.74999999999999));
#1311=CARTESIAN_POINT('',(-57.2125068682493,-40.3581506720295,15.));
#1312=CARTESIAN_POINT('Origin',(-58.7125,40.725,15.));
#1313=CARTESIAN_POINT('',(-57.2125,40.725,2.75));
#1314=CARTESIAN_POINT('',(-57.2125,40.725,15.));
#1315=CARTESIAN_POINT('',(-58.7125,42.225,1.39999997988343));
#1316=CARTESIAN_POINT('Origin',(-58.7125,40.725,2.75));
#1317=CARTESIAN_POINT('',(-58.7125,42.225,-0.400000020116562));
#1318=CARTESIAN_POINT('',(-58.7125,42.225,15.));
#1319=CARTESIAN_POINT('',(-57.2125,40.725,-1.75));
#1320=CARTESIAN_POINT('Origin',(-58.7125,40.725,-1.75));
#1321=CARTESIAN_POINT('',(-57.2125,40.725,-4.));
#1322=CARTESIAN_POINT('',(-57.2125,40.725,15.));
#1323=CARTESIAN_POINT('',(-58.7125,39.225,-4.));
#1324=CARTESIAN_POINT('Origin',(-58.7125,40.725,-4.));
#1325=CARTESIAN_POINT('',(-58.7125,39.225,15.));
#1326=CARTESIAN_POINT('Origin',(54.0125,40.725,1.3));
#1327=CARTESIAN_POINT('',(55.5125,40.725,-1.75));
#1328=CARTESIAN_POINT('',(52.5125,40.725,-1.75));
#1329=CARTESIAN_POINT('Origin',(54.0125,40.725,-1.75));
#1330=CARTESIAN_POINT('',(55.5125,40.725,-4.));
#1331=CARTESIAN_POINT('',(55.5125,40.725,1.3));
#1332=CARTESIAN_POINT('',(52.5125,40.725,-4.));
#1333=CARTESIAN_POINT('Origin',(54.0125,40.725,-4.));
#1334=CARTESIAN_POINT('',(52.5125,40.725,1.3));
#1335=CARTESIAN_POINT('',(52.5125,40.725,2.75));
#1336=CARTESIAN_POINT('',(52.5125,40.725,1.3));
#1337=CARTESIAN_POINT('',(52.5125,40.725,1.3));
#1338=CARTESIAN_POINT('',(55.5125,40.725,2.75));
#1339=CARTESIAN_POINT('',(55.5125,40.725,1.3));
#1340=CARTESIAN_POINT('Origin',(54.0125,40.725,2.75));
#1341=CARTESIAN_POINT('Origin',(-59.0125,40.725,5.));
#1342=CARTESIAN_POINT('',(-58.8625,40.725,-1.75));
#1343=CARTESIAN_POINT('',(-28.25625,40.725,-4.));
#1344=CARTESIAN_POINT('Origin',(64.0134078480193,-40.7250013736516,5.));
#1345=CARTESIAN_POINT('',(52.5125068682493,-40.6901976470426,2.4470724018874));
#1346=CARTESIAN_POINT('',(2.64693480551168,-40.5392957533277,2.58288410825457));
#1347=CARTESIAN_POINT('',(52.5125068682493,-40.6901976470426,1.3));
#1348=CARTESIAN_POINT('Origin',(2.49999999999999,0.,-4.));
#1349=CARTESIAN_POINT('',(64.0125,40.725,-4.));
#1350=CARTESIAN_POINT('',(-28.25625,40.725,-4.));
#1351=CARTESIAN_POINT('',(64.0125,-40.7249986263439,-4.));
#1352=CARTESIAN_POINT('',(64.0125,-23.0125,-4.));
#1353=CARTESIAN_POINT('',(55.5124931317507,-40.6992761272355,-4.));
#1354=CARTESIAN_POINT('',(33.1953656787379,-40.6317406181532,-4.));
#1355=CARTESIAN_POINT('',(52.5125068682493,-40.6901976470426,-4.));
#1356=CARTESIAN_POINT('Origin',(54.0125,-40.6947368871374,-4.));
#1357=CARTESIAN_POINT('',(33.1953656787379,-40.6317406181532,-4.));
#1358=CARTESIAN_POINT('',(-58.7125,-20.3263524767065,-4.));
#1359=CARTESIAN_POINT('',(54.0125,36.025,-4.));
#1360=CARTESIAN_POINT('',(-54.0125,36.025,-4.));
#1361=CARTESIAN_POINT('',(28.25625,36.025,-4.));
#1362=CARTESIAN_POINT('',(-54.0125,-36.025,-4.));
#1363=CARTESIAN_POINT('',(-54.0125,18.0125,-4.));
#1364=CARTESIAN_POINT('',(54.0125,-36.025,-4.));
#1365=CARTESIAN_POINT('',(-25.75625,-36.025,-4.));
#1366=CARTESIAN_POINT('',(54.0125,-18.0125,-4.));
#1367=CARTESIAN_POINT('Origin',(-58.7125,-40.6527049534129,5.));
#1368=CARTESIAN_POINT('',(-58.7125,-42.853611431933,0.499999966472386));
#1369=CARTESIAN_POINT('',(-58.7125,-40.353611431933,-1.75));
#1370=CARTESIAN_POINT('',(-58.7125,-40.353611431933,2.75));
#1371=CARTESIAN_POINT('Origin',(-58.7125,-40.6527049534129,5.));
#1372=CARTESIAN_POINT('',(-58.7125,43.225,0.499999966472386));
#1373=CARTESIAN_POINT('',(-58.7125,40.725,2.75));
#1374=CARTESIAN_POINT('',(-58.7125,40.725,-1.75));
#1375=CARTESIAN_POINT('Origin',(-58.7125,-40.6527049534129,5.));
#1376=CARTESIAN_POINT('Origin',(-58.7125,-42.853611431933,0.499999966472386));
#1377=CARTESIAN_POINT('',(52.5125068682493,-40.6901976470426,-1.44707241091535));
#1378=CARTESIAN_POINT('',(52.5125,-40.6947368871374,-1.44298709489085));
#1379=CARTESIAN_POINT('Origin',(54.0125,-40.6947368871374,-1.44298709489085));
#1380=CARTESIAN_POINT('',(55.5124931317507,-40.6992761272355,-1.43890177886346));
#1381=CARTESIAN_POINT('Origin',(54.0125,-40.6947368871374,-1.44298709489085));
#1382=CARTESIAN_POINT('',(64.0125,-40.7249986263456,-1.41575153000934));
#1383=CARTESIAN_POINT('',(2.66603721159861,-40.5393535605308,-1.58283208675297));
#1384=CARTESIAN_POINT('',(64.0125,-42.853611431933,0.499999966472386));
#1385=CARTESIAN_POINT('',(64.0125,-40.353611431933,-1.75));
#1386=CARTESIAN_POINT('',(-58.7125,-42.853611431933,0.499999966472386));
#1387=CARTESIAN_POINT('',(2.66603721159861,-40.5393535605308,-1.58283208675297));
#1388=CARTESIAN_POINT('Origin',(-58.7125,-40.353611431933,2.75));
#1389=CARTESIAN_POINT('',(55.5124931317507,-40.6992761272355,2.43890176959201));
#1390=CARTESIAN_POINT('',(52.5125,-40.6947368871374,2.44298708574116));
#1391=CARTESIAN_POINT('Origin',(54.0125,-40.6947368871374,2.44298708574116));
#1392=CARTESIAN_POINT('Origin',(54.0125,-40.6947368871374,2.44298708574116));
#1393=CARTESIAN_POINT('',(64.0125,-40.7249986263456,2.41575152004796));
#1394=CARTESIAN_POINT('',(64.0125,-40.353611431933,2.75));
#1395=CARTESIAN_POINT('',(2.64693480551168,-40.5392957533277,2.58288410825457));
#1396=CARTESIAN_POINT('Origin',(64.0134078480193,-40.7250013736516,5.));
#1397=CARTESIAN_POINT('',(52.5125068682493,-40.6901976470426,1.3));
#1398=CARTESIAN_POINT('Origin',(64.0134078480193,-40.7250013736516,5.));
#1399=CARTESIAN_POINT('',(64.0125,-40.7249986263439,1.3));
#1400=CARTESIAN_POINT('',(55.5124931317507,-40.6992761272355,1.3));
#1401=CARTESIAN_POINT('Origin',(64.0134078480193,-40.7250013736516,5.));
#1402=CARTESIAN_POINT('',(55.5124931317507,-40.6992761272355,1.3));
#1403=CARTESIAN_POINT('',(64.0125,-40.7249986263439,1.3));
#1404=CARTESIAN_POINT('Origin',(-58.7125,43.225,0.499999966472386));
#1405=CARTESIAN_POINT('',(-58.8625,40.725,2.75));
#1406=CARTESIAN_POINT('',(64.0125,40.725,2.75));
#1407=CARTESIAN_POINT('',(-58.8625,40.725,2.75));
#1408=CARTESIAN_POINT('',(64.0125,43.225,0.499999966472386));
#1409=CARTESIAN_POINT('',(64.0125,40.725,2.75));
#1410=CARTESIAN_POINT('',(-58.7125,43.225,0.499999966472386));
#1411=CARTESIAN_POINT('Origin',(-58.7125,40.725,-1.75));
#1412=CARTESIAN_POINT('',(64.0125,40.725,-1.75));
#1413=CARTESIAN_POINT('',(64.0125,40.725,-1.75));
#1414=CARTESIAN_POINT('',(-58.8625,40.725,-1.75));
#1415=CARTESIAN_POINT('Origin',(-59.0125,40.725,5.));
#1416=CARTESIAN_POINT('Origin',(-59.0125,40.725,5.));
#1417=CARTESIAN_POINT('',(64.0125,40.725,5.));
#1418=CARTESIAN_POINT('Origin',(-59.0125,40.725,5.));
#1419=CARTESIAN_POINT('',(64.0125,40.725,5.));
#1420=CARTESIAN_POINT('Origin',(54.0125,-40.6947368871374,1.3));
#1421=CARTESIAN_POINT('',(52.5125,-40.6947368871374,1.3));
#1422=CARTESIAN_POINT('Origin',(54.0125,-36.025,5.));
#1423=CARTESIAN_POINT('',(54.0125,-36.025,1.3));
#1424=CARTESIAN_POINT('',(54.0125,36.025,5.));
#1425=CARTESIAN_POINT('Origin',(-54.0125,-36.025,5.));
#1426=CARTESIAN_POINT('',(-54.0125,-36.025,5.));
#1427=CARTESIAN_POINT('Origin',(64.0125,-46.025,5.));
#1428=CARTESIAN_POINT('Origin',(-54.0125,36.025,5.));
#1429=CARTESIAN_POINT('',(-54.0125,36.025,5.));
#1430=CARTESIAN_POINT('Origin',(54.0125,36.025,5.));
#1431=UNCERTAINTY_MEASURE_WITH_UNIT(LENGTH_MEASURE(0.01),#1435,
'DISTANCE_ACCURACY_VALUE',
'Maximum model space distance between geometric entities at asserted c
onnectivities');
#1432=UNCERTAINTY_MEASURE_WITH_UNIT(LENGTH_MEASURE(0.01),#1435,
'DISTANCE_ACCURACY_VALUE',
'Maximum model space distance between geometric entities at asserted c
onnectivities');
#1433=(
GEOMETRIC_REPRESENTATION_CONTEXT(3)
GLOBAL_UNCERTAINTY_ASSIGNED_CONTEXT((#1431))
GLOBAL_UNIT_ASSIGNED_CONTEXT((#1435,#1437,#1438))
REPRESENTATION_CONTEXT('','3D')
);
#1434=(
GEOMETRIC_REPRESENTATION_CONTEXT(3)
GLOBAL_UNCERTAINTY_ASSIGNED_CONTEXT((#1432))
GLOBAL_UNIT_ASSIGNED_CONTEXT((#1435,#1437,#1438))
REPRESENTATION_CONTEXT('','3D')
);
#1435=(
LENGTH_UNIT()
NAMED_UNIT(*)
SI_UNIT(.MILLI.,.METRE.)
);
#1436=(
LENGTH_UNIT()
NAMED_UNIT(*)
SI_UNIT($,.METRE.)
);
#1437=(
NAMED_UNIT(*)
PLANE_ANGLE_UNIT()
SI_UNIT($,.RADIAN.)
);
#1438=(
NAMED_UNIT(*)
SI_UNIT($,.STERADIAN.)
SOLID_ANGLE_UNIT()
);
#1439=SHAPE_DEFINITION_REPRESENTATION(#1440,#1441);
#1440=PRODUCT_DEFINITION_SHAPE('',$,#1443);
#1441=SHAPE_REPRESENTATION('',(#869),#1433);
#1442=PRODUCT_DEFINITION_CONTEXT('part definition',#1447,'design');
#1443=PRODUCT_DEFINITION('Crashsense Mark-1 LID',
'Crashsense Mark-1 LID v10',#1444,#1442);
#1444=PRODUCT_DEFINITION_FORMATION('',$,#1449);
#1445=PRODUCT_RELATED_PRODUCT_CATEGORY('Crashsense Mark-1 LID v10',
'Crashsense Mark-1 LID v10',(#1449));
#1446=APPLICATION_PROTOCOL_DEFINITION('international standard',
'automotive_design',2009,#1447);
#1447=APPLICATION_CONTEXT(
'Core Data for Automotive Mechanical Design Process');
#1448=PRODUCT_CONTEXT('part definition',#1447,'mechanical');
#1449=PRODUCT('Crashsense Mark-1 LID','Crashsense Mark-1 LID v10',$,(#1448));
#1450=PRESENTATION_STYLE_ASSIGNMENT((#1451));
#1451=SURFACE_STYLE_USAGE(.BOTH.,#1452);
#1452=SURFACE_SIDE_STYLE('',(#1453));
#1453=SURFACE_STYLE_FILL_AREA(#1454);
#1454=FILL_AREA_STYLE('Plastic - Matte (White)',(#1455));
#1455=FILL_AREA_STYLE_COLOUR('Plastic - Matte (White)',#1456);
#1456=COLOUR_RGB('Plastic - Matte (White)',0.964705882352941,0.964705882352941,
0.952941176470588);
ENDSEC;
END-ISO-10303-21;
